<?xml version="1.0" encoding="utf-8"?>
<!-- Generator: Adobe Illustrator 22.1.0, SVG Export Plug-In . SVG Version: 6.00 Build 0)  -->
<svg version="1.1" id="Layer_1" xmlns="http://www.w3.org/2000/svg" xmlns:xlink="http://www.w3.org/1999/xlink" x="0px" y="0px"
	 viewBox="0 0 345.4 124" style="enable-background:new 0 0 345.4 124;" xml:space="preserve">
<style type="text/css">
	.st0{fill:#282828;}
</style>
<title>logo/ADK</title>
<desc>Created with Sketch.</desc>
<g id="logo_x2F_ADK">
	<g id="Group">
		<path id="Fill-1" class="st0" d="M127.7,120.5V3h42.6c13.7,0,25.6,4.7,35,13.6c9.5,8.9,14.2,20.7,14.2,34.8v21.2
			c0,14.1-4.7,25.9-14.2,34.8c-9.5,8.9-20.8,13.6-35,13.6h-42.6V120.5z M155.7,24.1v75.7h13.3c7.1,0,13.3-2.4,17-7.5
			c4.3-5.2,6.2-11.8,6.2-19.8V51.4c0-8-1.9-14.6-6.2-19.8c-4.3-5.2-9.9-7.5-17-7.5H155.7z"/>
		<polygon id="Fill-3" class="st0" points="276.8,73.8 264.3,73.8 264.3,121 237.4,121 237.4,3 264.3,3 264.3,49.3 273.5,49.3 
			299.1,3 332.5,3 296.7,56.3 335.7,121 302.8,121 		"/>
		<polygon id="Fill-5" class="st0" points="76.7,3 47.7,3 9.7,121 36.9,121 61.7,34.6 62.2,34.6 87.5,121 114.6,121 		"/>
	</g>
</g>
</svg>
