<svg xmlns="http://www.w3.org/2000/svg" viewBox="0 0 300.25 34.5"><title>horizontal-black</title><g id="Horizontal_Black" data-name="Horizontal Black"><g id="horizontal-black"><path d="M33,1.95,26.16,8.77,33,15.59,39.8,8.77Z"/><path d="M33,19.71l-6.82,6.82L33,33.35l6.82-6.82Z"/><path d="M41.86,10.83,35,17.65l6.82,6.82,6.82-6.82Z"/><path d="M16.31,33.35l6.82-6.82-6.82-6.82L9.49,26.53Z"/><path d="M16.31,15.59l6.82-6.82L16.31,1.95,9.49,8.77Z"/><path d="M7.43,24.47l6.82-6.82L7.43,10.83.61,17.65Z"/><path d="M66.59,14.76a5.23,5.23,0,0,1,4.26-2c3.78,0,7,2.86,7,7.53,0,4-2.52,7.63-6.95,7.63a5.51,5.51,0,0,1-4.29-1.94v1.5H63.26V7.1h3.34Zm-.2,5.58c0,3,1.94,4.53,4.05,4.53,2.42,0,4-2.08,4-4.56s-1.57-4.6-4-4.6C68.33,15.71,66.39,17.21,66.39,20.34Z"/><path d="M84.87,7.1V27.43H81.53V7.1Z"/><path d="M99.56,13.09h3.34V27.43H99.56v-1.5a5.51,5.51,0,0,1-4.29,1.94c-4.43,0-6.95-3.68-6.95-7.63,0-4.67,3.2-7.53,7-7.53a5.23,5.23,0,0,1,4.26,2Zm-7.83,7.22c0,2.49,1.57,4.56,4,4.56,2.11,0,4.05-1.53,4.05-4.53s-1.94-4.63-4.05-4.63C93.3,15.71,91.73,17.76,91.73,20.31Z"/><path d="M117.89,17.48a5.63,5.63,0,0,0-4.05-1.77A4.29,4.29,0,0,0,110.67,17a4.58,4.58,0,0,0-1.23,3.3,4.75,4.75,0,0,0,1.29,3.44,4.34,4.34,0,0,0,3,1.16A5.59,5.59,0,0,0,117.89,23v3.71a7.85,7.85,0,0,1-4.36,1.12,7,7,0,0,1-5.45-2.11,7.45,7.45,0,0,1-2-5.38,7.66,7.66,0,0,1,2.18-5.55A7.78,7.78,0,0,1,114,12.72a7.7,7.7,0,0,1,3.92,1Z"/><path d="M125.17,7.1V17.89l4.67-4.8h4.43l-6.16,6,6.61,8.38h-4.22l-4.7-6.13-.61.61v5.52h-3.34V7.1Z"/><path d="M143,16.87a2.4,2.4,0,0,0-2-1.23,1.41,1.41,0,0,0-1,.37,1.08,1.08,0,0,0-.31.75.92.92,0,0,0,.48.82c.2.14.41.2,1.12.58l1.7.85a6.88,6.88,0,0,1,2,1.33A3.54,3.54,0,0,1,146,23a4.76,4.76,0,0,1-1.26,3.27,5.12,5.12,0,0,1-4,1.6,4.94,4.94,0,0,1-3.1-.92,5.59,5.59,0,0,1-1.84-2.62L138.5,23a3.77,3.77,0,0,0,.78,1.36,2,2,0,0,0,1.46.54,2,2,0,0,0,1.36-.48,1.69,1.69,0,0,0,.48-1.12,1.55,1.55,0,0,0-.44-1.09,4.4,4.4,0,0,0-1.43-.89l-1.23-.58a7.07,7.07,0,0,1-2-1.23,3.13,3.13,0,0,1-1-2.42,4.48,4.48,0,0,1,1.19-3.06,4.62,4.62,0,0,1,3.51-1.36,4.49,4.49,0,0,1,2.66.75,4.92,4.92,0,0,1,1.63,1.77Z"/><path d="M154.26,16.15V27.43h-3.34V16.15h-3V13.09h3v-6h3.34v6h3.06v3.06Z"/><path d="M174.12,20.28a7.66,7.66,0,0,1-15.32,0,7.66,7.66,0,0,1,15.32,0Zm-3.41,0c0-3.27-2.15-4.6-4.26-4.6s-4.26,1.33-4.26,4.6c0,2.76,1.63,4.56,4.26,4.56S170.72,23.07,170.72,20.31Z"/><path d="M177.39,13.09h3.34v1.33a4.94,4.94,0,0,1,3.88-1.7,4.79,4.79,0,0,1,4.22,1.94c.54.78.89,1.77.89,4v8.79h-3.34v-8c0-3.64-1.36-3.75-2.62-3.75-1.5,0-3,.2-3,4.84v6.88h-3.34Z"/><path d="M206.45,24.16A7.52,7.52,0,0,1,204,26.78a7.89,7.89,0,0,1-4.22,1.09A6.36,6.36,0,0,1,195,26a7.7,7.7,0,0,1-2.11-5.48,8.4,8.4,0,0,1,2.28-5.89,6.53,6.53,0,0,1,4.8-1.94,6.17,6.17,0,0,1,4.6,1.87,8.61,8.61,0,0,1,2,6.06v.41H196.27A4.74,4.74,0,0,0,197.5,24a3.41,3.41,0,0,0,2.55.92,3.51,3.51,0,0,0,2.28-.72,5.18,5.18,0,0,0,1.33-1.57Zm-3.3-5.82a3.47,3.47,0,0,0-1-1.94,3.48,3.48,0,0,0-4.6.1,3.76,3.76,0,0,0-1,1.84Z"/><path d="M218.07,13.09h3.34v1.33a4.42,4.42,0,0,1,3.54-1.7,4.21,4.21,0,0,1,3.71,2.11,5.08,5.08,0,0,1,4.26-2.11A4.59,4.59,0,0,1,237,15a7.06,7.06,0,0,1,.75,3.61v8.85h-3.34v-7.9a6.65,6.65,0,0,0-.31-2.55,1.89,1.89,0,0,0-1.91-1.26,2.47,2.47,0,0,0-2,1.06,5.82,5.82,0,0,0-.65,3.27v7.39h-3.34v-7.9a6.65,6.65,0,0,0-.31-2.55A1.89,1.89,0,0,0,224,15.71a2.47,2.47,0,0,0-2,1.06,5.82,5.82,0,0,0-.65,3.27v7.39h-3.34Z"/><path d="M254.45,24.16A7.52,7.52,0,0,1,252,26.78a7.89,7.89,0,0,1-4.22,1.09A6.36,6.36,0,0,1,243,26a7.7,7.7,0,0,1-2.11-5.48,8.4,8.4,0,0,1,2.28-5.89,6.53,6.53,0,0,1,4.8-1.94,6.17,6.17,0,0,1,4.6,1.87,8.61,8.61,0,0,1,2,6.06v.41H244.27A4.74,4.74,0,0,0,245.49,24a3.41,3.41,0,0,0,2.55.92,3.51,3.51,0,0,0,2.28-.72,5.18,5.18,0,0,0,1.33-1.57Zm-3.3-5.82a3.47,3.47,0,0,0-1-1.94,3.48,3.48,0,0,0-4.6.1,3.76,3.76,0,0,0-1,1.84Z"/><path d="M268.78,7.1h3.34V27.43h-3.34v-1.5a5.51,5.51,0,0,1-4.29,1.94c-4.43,0-6.95-3.68-6.95-7.63,0-4.67,3.2-7.53,7-7.53a5.23,5.23,0,0,1,4.26,2Zm-7.83,13.21c0,2.49,1.57,4.56,4,4.56,2.11,0,4.05-1.53,4.05-4.53s-1.94-4.63-4.05-4.63C262.51,15.71,260.95,17.76,260.95,20.31Z"/><path d="M278.42,5a2.09,2.09,0,0,1,2.15,2.15,2.15,2.15,0,0,1-4.29,0A2.09,2.09,0,0,1,278.42,5Zm1.67,8.07V27.43h-3.34V13.09Z"/><path d="M294.66,13.09H298V27.43h-3.34v-1.5a5.51,5.51,0,0,1-4.29,1.94c-4.43,0-6.95-3.68-6.95-7.63,0-4.67,3.2-7.53,7-7.53a5.23,5.23,0,0,1,4.26,2Zm-7.83,7.22c0,2.49,1.57,4.56,4,4.56,2.11,0,4.05-1.53,4.05-4.53s-1.94-4.63-4.05-4.63C288.4,15.71,286.83,17.76,286.83,20.31Z"/></g></g></svg>