<svg xmlns="http://www.w3.org/2000/svg" viewBox="0 0 199.17 73.85"><title>vertical-color</title><g id="Vertical_Color" data-name="Vertical Color"><g id="vertical-color"><path d="M110.33,2l-8.86,8.86,8.86,8.86,8.86-8.86Z" fill="#2834af"/><path d="M110.33,25.11,101.47,34l8.86,8.86L119.2,34Z" fill="#2834af"/><path d="M121.87,13.57,113,22.43l8.86,8.86,8.86-8.86Z" fill="#2834af"/><path d="M88.67,42.83,97.53,34l-8.86-8.86L79.8,34Z" fill="#2834af"/><path d="M88.67,19.76l8.86-8.86L88.67,2,79.8,10.9Z" fill="#2834af"/><path d="M77.13,31.29,86,22.43l-8.86-8.86-8.86,8.86Z" fill="#2834af"/><path d="M4.67,61.47a4.35,4.35,0,0,1,3.54-1.7C11.35,59.78,14,62.15,14,66c0,3.29-2.1,6.34-5.78,6.34a4.58,4.58,0,0,1-3.57-1.61V72H1.89V55.11H4.67ZM4.5,66.12c0,2.49,1.61,3.77,3.37,3.77,2,0,3.31-1.73,3.31-3.79s-1.3-3.82-3.31-3.82C6.11,62.27,4.5,63.51,4.5,66.12Z" fill="#2d2d2d"/><path d="M19.86,55.11V72H17.09V55.11Z" fill="#2d2d2d"/><path d="M32.08,60.09h2.78V72H32.08V70.76a4.58,4.58,0,0,1-3.57,1.61c-3.68,0-5.78-3.06-5.78-6.34,0-3.88,2.66-6.26,5.81-6.26a4.35,4.35,0,0,1,3.54,1.7Zm-6.51,6c0,2.07,1.3,3.79,3.31,3.79,1.76,0,3.37-1.27,3.37-3.77s-1.61-3.85-3.37-3.85C26.87,62.27,25.57,64,25.57,66.09Z" fill="#2d2d2d"/><path d="M47.32,63.74A4.68,4.68,0,0,0,44,62.27a3.57,3.57,0,0,0-2.63,1,3.81,3.81,0,0,0-1,2.75,4,4,0,0,0,1.08,2.86,3.61,3.61,0,0,0,2.52,1,4.65,4.65,0,0,0,3.43-1.53v3.09a6.53,6.53,0,0,1-3.62.93,5.81,5.81,0,0,1-4.53-1.76,6.2,6.2,0,0,1-1.7-4.47,6.37,6.37,0,0,1,1.81-4.62,6.47,6.47,0,0,1,4.79-1.76,6.4,6.4,0,0,1,3.26.85Z" fill="#2d2d2d"/><path d="M53.38,55.11v9l3.88-4h3.68l-5.13,5,5.49,7H57.8l-3.91-5.1-.51.51V72H50.61V55.11Z" fill="#2d2d2d"/><path d="M68.21,63.23a2,2,0,0,0-1.7-1,1.18,1.18,0,0,0-.85.31.9.9,0,0,0-.25.62.76.76,0,0,0,.4.68c.17.11.34.17.93.48l1.42.71a5.72,5.72,0,0,1,1.67,1.1,2.94,2.94,0,0,1,.88,2.21,4,4,0,0,1-1,2.72,4.26,4.26,0,0,1-3.34,1.33,4.1,4.1,0,0,1-2.58-.76,4.65,4.65,0,0,1-1.53-2.18l2.27-1.08a3.14,3.14,0,0,0,.65,1.13,1.7,1.7,0,0,0,1.22.45,1.67,1.67,0,0,0,1.13-.4,1.41,1.41,0,0,0,.4-.93,1.29,1.29,0,0,0-.37-.91A3.66,3.66,0,0,0,66.31,67l-1-.48a5.88,5.88,0,0,1-1.64-1,2.6,2.6,0,0,1-.85-2,3.72,3.72,0,0,1,1-2.55,3.84,3.84,0,0,1,2.92-1.13,3.73,3.73,0,0,1,2.21.62,4.09,4.09,0,0,1,1.36,1.47Z" fill="#2d2d2d"/><path d="M77.57,62.64V72H74.8V62.64H72.27V60.09H74.8v-5h2.78v5h2.54v2.55Z" fill="#2d2d2d"/><path d="M94.09,66.06a6.37,6.37,0,1,1-6.37-6.29A6.19,6.19,0,0,1,94.09,66.06Zm-2.83,0a3.55,3.55,0,1,0-7.08,0c0,2.29,1.36,3.79,3.54,3.79S91.26,68.38,91.26,66.09Z" fill="#2d2d2d"/><path d="M96.81,60.09h2.78v1.1a4.11,4.11,0,0,1,3.23-1.42,4,4,0,0,1,3.51,1.61,5.33,5.33,0,0,1,.74,3.31V72h-2.78V65.38c0-3-1.13-3.12-2.18-3.12-1.25,0-2.52.17-2.52,4V72H96.81Z" fill="#2d2d2d"/><path d="M121,69.29a6.25,6.25,0,0,1-2,2.18,6.56,6.56,0,0,1-3.51.91,5.29,5.29,0,0,1-4-1.53,6.4,6.4,0,0,1-1.76-4.56,7,7,0,0,1,1.9-4.9,5.43,5.43,0,0,1,4-1.61,5.13,5.13,0,0,1,3.82,1.56,7.16,7.16,0,0,1,1.67,5v.34h-8.55a3.94,3.94,0,0,0,1,2.41,2.84,2.84,0,0,0,2.12.76,2.92,2.92,0,0,0,1.9-.59,4.31,4.31,0,0,0,1.1-1.3Zm-2.75-4.84a2.88,2.88,0,0,0-.85-1.61,2.89,2.89,0,0,0-3.82.08,3.12,3.12,0,0,0-.85,1.53Z" fill="#2d2d2d"/><path d="M130.64,60.09h2.78v1.1a3.67,3.67,0,0,1,2.95-1.42,3.5,3.5,0,0,1,3.09,1.76A4.22,4.22,0,0,1,143,59.78a3.82,3.82,0,0,1,3.4,1.87,5.87,5.87,0,0,1,.62,3V72h-2.78V65.44a5.53,5.53,0,0,0-.25-2.12,1.57,1.57,0,0,0-1.59-1,2.05,2.05,0,0,0-1.64.88,4.84,4.84,0,0,0-.54,2.72V72h-2.78V65.44a5.53,5.53,0,0,0-.25-2.12,1.57,1.57,0,0,0-1.59-1,2.05,2.05,0,0,0-1.64.88,4.84,4.84,0,0,0-.54,2.72V72h-2.78Z" fill="#2d2d2d"/><path d="M160.89,69.29a6.25,6.25,0,0,1-2,2.18,6.56,6.56,0,0,1-3.51.91,5.29,5.29,0,0,1-4-1.53,6.4,6.4,0,0,1-1.76-4.56,7,7,0,0,1,1.9-4.9,5.43,5.43,0,0,1,4-1.61,5.13,5.13,0,0,1,3.82,1.56,7.16,7.16,0,0,1,1.67,5v.34h-8.55a3.94,3.94,0,0,0,1,2.41,2.84,2.84,0,0,0,2.12.76,2.92,2.92,0,0,0,1.9-.59,4.31,4.31,0,0,0,1.1-1.3Zm-2.75-4.84a2.88,2.88,0,0,0-.85-1.61,2.89,2.89,0,0,0-3.82.08,3.12,3.12,0,0,0-.85,1.53Z" fill="#2d2d2d"/><path d="M172.81,55.11h2.78V72h-2.78V70.76a4.58,4.58,0,0,1-3.57,1.61c-3.68,0-5.78-3.06-5.78-6.34,0-3.88,2.66-6.26,5.81-6.26a4.35,4.35,0,0,1,3.54,1.7Zm-6.51,11c0,2.07,1.3,3.79,3.31,3.79,1.76,0,3.37-1.27,3.37-3.77s-1.61-3.85-3.37-3.85C167.6,62.27,166.3,64,166.3,66.09Z" fill="#2d2d2d"/><path d="M180.82,53.37A1.78,1.78,0,1,1,179,55.16,1.74,1.74,0,0,1,180.82,53.37Zm1.39,6.71V72h-2.78V60.09Z" fill="#2d2d2d"/><path d="M194.33,60.09h2.78V72h-2.78V70.76a4.58,4.58,0,0,1-3.57,1.61c-3.68,0-5.78-3.06-5.78-6.34,0-3.88,2.66-6.26,5.81-6.26a4.35,4.35,0,0,1,3.54,1.7Zm-6.51,6c0,2.07,1.3,3.79,3.31,3.79,1.76,0,3.37-1.27,3.37-3.77s-1.61-3.85-3.37-3.85C189.12,62.27,187.82,64,187.82,66.09Z" fill="#2d2d2d"/></g></g></svg>