<svg xmlns="http://www.w3.org/2000/svg" viewBox="0 0 345.4 124"><path d="M127.7 120.5V3h42.6c13.7 0 25.6 4.7 35 13.6 9.5 8.9 14.2 20.7 14.2 34.8v21.2c0 14.1-4.7 25.9-14.2 34.8-9.5 8.9-20.8 13.6-35 13.6h-42.6v-.5zm28-96.4v75.7H169c7.1 0 13.3-2.4 17-7.5 4.3-5.2 6.2-11.8 6.2-19.8V51.4c0-8-1.9-14.6-6.2-19.8-4.3-5.2-9.9-7.5-17-7.5h-13.3z"/><path class="st0" d="M276.8 73.8h-12.5V121h-26.9V3h26.9v46.3h9.2L299.1 3h33.4l-35.8 53.3 39 64.7h-32.9zM76.7 3h-29l-38 118h27.2l24.8-86.4h.5L87.5 121h27.1z"/></svg>