<svg xmlns="http://www.w3.org/2000/svg" viewBox="0 0 32 32"><path d="M29.4 5.9c-.4-.4-.9-.6-1.5-.6h-2.1V3.7c0-.7-.3-1.4-.8-1.9-.4-.5-1-.8-1.7-.8h-1c-.7 0-1.3.3-1.8.8s-.8 1.2-.8 1.9v1.6h-6.2V3.7A2.732 2.732 0 0 0 10.8 1h-1c-.8 0-1.4.3-1.9.8s-.7 1.1-.7 1.9v1.6H5.1c-.6 0-1 .2-1.5.6-.4.4-.6.9-.6 1.5v21.4c0 .6.2 1.1.6 1.5.4.5.9.7 1.5.7h22.8c.6 0 1-.2 1.5-.6.4-.4.6-.9.6-1.5V7.4c0-.6-.2-1.1-.6-1.5zm-7.7-2.2c0-.2 0-.3.1-.4s.2-.2.4-.2h1c.2 0 .3.1.4.2.1.1.1.2.1.4v4.8c0 .2 0 .3-.1.4-.1.1-.2.1-.4.1h-1c-.2 0-.3-.1-.4-.2-.1-.1-.1-.2-.1-.4V3.7zm-12.5 0c0-.2 0-.3.1-.4s.2-.2.4-.2h1c.2 0 .3.1.4.2.1.1.1.2.1.4v4.8c0 .2 0 .3-.1.4 0 .1-.2.1-.3.1h-1c-.2 0-.3 0-.4-.1-.1-.1-.2-.2-.2-.4V3.7zm18.7 25.2H5.1V11.7h22.8v17.2z"/></svg>