<svg xmlns="http://www.w3.org/2000/svg" viewBox="0 0 512 512"><path d="M300.5 256.1l202-202.8c6.2-5.5 9.7-13.5 9.5-21.9.2-8.4-3.1-16.4-9.1-22.3-5.8-6-13.9-9.3-22.3-9.2-8.3-.2-16.3 3.3-21.8 9.6L256 211.5 53.2 9.6C47.7 3.4 39.7-.1 31.4 0 23.1-.1 15 3.2 9.2 9.2 3.2 15-.1 23.1 0 31.5c-.2 8.3 3.3 16.3 9.5 21.9l201.9 202.7L9.5 458.8c-6.2 5.5-9.7 13.5-9.5 21.8 0 8.8 3 16.2 9.1 22.3 6.1 6.1 13.5 9.2 22.3 9.2 8.3.2 16.3-3.3 21.8-9.6L256 299.8l202.8 202.8c5.5 6.2 13.5 9.7 21.8 9.5 8.4.2 16.4-3.2 22.3-9.2 6-5.8 9.3-13.9 9.2-22.3.2-8.3-3.3-16.3-9.5-21.8L300.5 256.1z"/></svg>