<svg xmlns="http://www.w3.org/2000/svg" viewBox="0 0 191.49 196.21"><path fill="#fed902" d="M173 131a20.72 20.72 0 0 0-18.74 0l-.12.07c-3.13 1.81-4.34 4.32-3.62 6.67v.07l1.35 9.86c0 1.74 1.18 3.49 3.5 4.81a17.14 17.14 0 0 0 8.3 2 16.93 16.93 0 0 0 8.34-2l.11-.06c2.28-1.33 3.41-3.07 3.4-4.8l1.4-10.88c.13-2.11-1.18-4.2-3.92-5.74zm-2.56 15.46l-2.3 3.9a.38.38 0 0 1-.32.18h-4.53a.3.3 0 0 1-.19-.05.32.32 0 0 1-.11-.12l-2.23-3.94a.37.37 0 0 1 0-.38l.17-.31-2.42 1.26a.41.41 0 0 1-.19 0 .42.42 0 0 1-.15 0l-3.92-2.27a.41.41 0 0 1-.19-.33v-4.53a.32.32 0 0 1 0-.16.38.38 0 0 1 .14-.14l3.92-2.26a.42.42 0 0 1 .38 0l3.92 2.27a.32.32 0 0 1 .14.14.38.38 0 0 1 0 .19v2.83l.44-.74a.35.35 0 0 1 .11-.1.39.39 0 0 1 .18-.06h4.53a.39.39 0 0 1 .32.19l2.23 3.95a.33.33 0 0 1 0 .19.26.26 0 0 1 .06.25z"/><path fill="#2834af" d="M181 121.25a7.83 7.83 0 0 0 .23-1.86c0-3.63-2.33-7-6.58-9.41a32.25 32.25 0 0 0-29.3.06l-.16.1c-4.15 2.4-6.43 5.69-6.43 9.26v.19a7.82 7.82 0 0 0 .23 1.73l3.38 24.73c.1 3 2.05 5.69 5.52 7.69a26.68 26.68 0 0 0 24.33 0l.14-.09c3.44-2 5.34-4.72 5.41-7.69zm-6.19 24.53c0 1.92-1.38 3.8-3.92 5.28l-.15.08a23.68 23.68 0 0 1-21.32.05c-2.59-1.49-4-3.37-4-5.31v-.19l-.21-1.54a6.63 6.63 0 0 1 1.51-2.23l.52 3.78c.07 2.15 1.47 4.11 4 5.54a19.47 19.47 0 0 0 17.67 0h.08c2.48-1.44 3.85-3.41 3.9-5.55l.49-3.82a6.57 6.57 0 0 1 1.68 2.55l-.16 1.25zm-1.65-33.19c3.25 1.86 5 4.24 5.06 6.74l-.39 3a11.38 11.38 0 0 1-4.36 4.11l-.17.1a20.69 20.69 0 0 1-3.33 1.54l-.17-.12c-5.48-3.13-14.33-3.11-19.75 0l-.12.07h-.06a21.45 21.45 0 0 1-3.36-1.52 12 12 0 0 1-4.27-3.84l-.47-3.44c0-2.43 1.76-4.77 4.93-6.61l.17-.1a26.59 26.59 0 0 1 13.13-3.03 26.87 26.87 0 0 1 13.11 3.1zm-.93 21.69a3.81 3.81 0 0 1-.05.59c-.26 1.43-1.4 2.79-3.28 3.89l-.12.07c-4.87 2.83-12.83 2.85-17.74 0a6.58 6.58 0 0 1-3.24-3.45l-.18-1.28a5.21 5.21 0 0 1 2.53-3.85 33.75 33.75 0 0 0 19.54 0c1.59 1.21 2.49 2.6 2.49 4.03zM152.62 129a20.46 20.46 0 0 1 14.5 0 32 32 0 0 1-14.5 0zm-7.94 12.11l-2-14.7a16.54 16.54 0 0 0 2.78 2 21.31 21.31 0 0 0 2.45 1.18 6.53 6.53 0 0 0-2.35 4.83 5.44 5.44 0 0 0 .22 1.5l.51 3.7a11.75 11.75 0 0 0-1.61 1.46zm3.62-1.61a11.47 11.47 0 0 0 1.69 1.18 21.84 21.84 0 0 0 19.75 0l.11-.07a11.88 11.88 0 0 0 1.7-1.2l-.78 6v.14c0 1.44-1 2.84-2.93 4h-.09a15.77 15.77 0 0 1-7.83 1.86 16 16 0 0 1-7.82-1.84c-1.91-1.09-3-2.49-3-4v-.1zm25.81-4.28a.2.2 0 0 1 0-.07l.08-.62a1.8 1.8 0 0 0 0-.22 6.51 6.51 0 0 0-2.36-4.79 21.1 21.1 0 0 0 2.43-1.2l.18-.1a16.62 16.62 0 0 0 2.87-2.1l-2 15a11.21 11.21 0 0 0-1.79-1.7z"/><path fill="#4e5ad5" d="M147 152.17h.07zm8.24-2.46z"/><path fill="#fff" d="M153.26 158.08l-.02-.06"/><path fill="#fed902" d="M130.32 154.66a20.72 20.72 0 0 0-18.74 0l-.12.07c-3.14 1.81-4.34 4.33-3.62 6.68l1.35 9.86c0 1.74 1.18 3.49 3.5 4.81a17.14 17.14 0 0 0 8.3 2 16.93 16.93 0 0 0 8.34-2l.11-.06c2.28-1.33 3.41-3.07 3.4-4.8l1.4-10.88c.14-2.01-1.17-4.1-3.92-5.68zm-.55 5.91l-3.11 3.3a.27.27 0 0 1-.16.1.31.31 0 0 1-.19 0l-2.77-.66.58.56a.25.25 0 0 1 .07.12.41.41 0 0 1 0 .19l-1.08 4.4a.37.37 0 0 1-.26.27l-4.35 1.26a.31.31 0 0 1-.19 0 .28.28 0 0 1-.17-.09l-3.27-3.14a.37.37 0 0 1-.1-.35l1.08-4.4a.38.38 0 0 1 .15-.13.32.32 0 0 1 .14-.08l4.35-1.26a.39.39 0 0 1 .37.09l.27.25-.8-2.66a.34.34 0 0 1 0-.2.26.26 0 0 1 .08-.13l3.11-3.3a.37.37 0 0 1 .36-.11l4.41 1.05a.37.37 0 0 1 .14.07.42.42 0 0 1 .1.17l1.3 4.34a.36.36 0 0 1-.06.34z"/><path fill="#2834af" d="M139 145.61a7.89 7.89 0 0 0 .23-1.86c0-3.63-2.32-7-6.58-9.41a32.17 32.17 0 0 0-29.3.06l-.16.1c-4.14 2.4-6.43 5.69-6.43 9.25a1.36 1.36 0 0 0 0 .2 8.48 8.48 0 0 0 .24 1.74l3.37 24.72c.1 3 2.05 5.7 5.53 7.69a26.7 26.7 0 0 0 24.32 0l.15-.09c3.43-2 5.34-4.72 5.4-7.69zm-6.19 24.53c0 1.92-1.37 3.8-3.91 5.27l-.15.09a23.74 23.74 0 0 1-21.33 0c-2.59-1.48-4-3.36-4-5.3v-.19l-.22-1.55a6.85 6.85 0 0 1 1.51-2.22l.52 3.78c.07 2.14 1.47 4.11 4 5.54a18.07 18.07 0 0 0 8.81 2.1 17.87 17.87 0 0 0 8.86-2.14l.08-.06c2.48-1.44 3.86-3.4 3.9-5.54l.5-3.82a6.73 6.73 0 0 1 1.68 2.55l-.17 1.24zm-.59-11.29v-.22a6.51 6.51 0 0 0-2.36-4.79 20.29 20.29 0 0 0 2.43-1.19l.18-.1a15.94 15.94 0 0 0 2.87-2.12l-2 15.06a10.83 10.83 0 0 0-1.79-1.71l.55-4.23v-.07l.08-.62zm-25.87 5A12.28 12.28 0 0 0 108 165a20.39 20.39 0 0 0 9.85 2.33 20.06 20.06 0 0 0 9.9-2.38l.11-.06a11.81 11.81 0 0 0 1.71-1.21l-.78 6v.13c0 1.45-1 2.85-2.93 3.95l-.08.06a17.5 17.5 0 0 1-15.66 0c-1.91-1.09-3-2.49-3-4v-.1zm20.55-.66l-.12.07c-4.86 2.83-12.82 2.85-17.74 0a6.7 6.7 0 0 1-3.24-3.45l-.17-1.28a5.18 5.18 0 0 1 2.53-3.85 33.68 33.68 0 0 0 19.55 0 5.13 5.13 0 0 1 2.53 4 2.94 2.94 0 0 1-.05.59c-.29 1.44-1.43 2.8-3.31 3.9zm-23.06-2.95l.5 3.7a10.56 10.56 0 0 0-1.6 1.52l-2-14.72a16.46 16.46 0 0 0 2.79 2 20.54 20.54 0 0 0 2.45 1.18 6.49 6.49 0 0 0-2.36 4.83 5.45 5.45 0 0 0 .2 1.47zm6.83-6.89a20.38 20.38 0 0 1 14.51 0 32.31 32.31 0 0 1-14.53-.02zm20.8-2.51l-.17.1a20.66 20.66 0 0 1-3.33 1.53l-.17-.11c-5.47-3.13-14.33-3.11-19.74 0l-.12.07-.07.05a21 21 0 0 1-3.36-1.53 11.88 11.88 0 0 1-4.28-3.85l-.46-3.42c0-2.43 1.77-4.77 4.93-6.61l.17-.1a29.17 29.17 0 0 1 26.29 0c3.25 1.85 5 4.24 5.07 6.74l-.39 3a11.4 11.4 0 0 1-4.39 4.11z"/><path fill="#fed902" d="M43.12 112.14l56-32.31.22-6.2c.11-4-.85-7.08-2.57-9.13a6.81 6.81 0 0 0-1-1c-.08-.07-8.88-4.78-11.65-6.26a1.69 1.69 0 0 0-1.63 0L34.38 85a.61.61 0 0 0-.23.25c-2.34 4.64-3.94 9.93-3.81 14.44l.66 10.03 4.16 2.41a8 8 0 0 0 7.96.01zm-7.98 23.57l-2.69-1.55.9 14.67a3.4 3.4 0 0 0 1.19 2.6 1.08 1.08 0 0 0 .32.19l11.33 6.78c.91.74 2.29.75 3.81-.13l42.56-24.63a11 11 0 0 0 4.92-8.15l.74-21.19-55.12 31.44a8 8 0 0 1-7.96-.03z"/><path fill="#2834af" d="M94.31 48.79l-15.39-9.3-.12-.06a28.28 28.28 0 0 0-3.35-1.36c.06-.93.13-2.42.17-4.82a9.45 9.45 0 0 0-2.28-5.66l.81-4.06c.55-3.5-1.48-6.86-5.56-9.21a25.62 25.62 0 0 0-12.58-3 25.3 25.3 0 0 0-12.44 3l-.12.08c-4.18 2.41-6.16 5.85-5.44 9.46l.8 3.62a9.84 9.84 0 0 0-2.34 6v3.86a8.05 8.05 0 0 0 1.23 4.21 100.27 100.27 0 0 1-3.45 15.35 52.63 52.63 0 0 0-13.31 16.86c-3.58 7.06-5.45 14.49-5.27 21l3.71 56.38a6.12 6.12 0 0 0 2.27 4.75l16.53 9.9a6 6 0 0 0 3.2.94 7.4 7.4 0 0 0 3.7-1.09l46.52-26.89a16.77 16.77 0 0 0 7.68-12.69l3.1-60.21c.24-8.12-2.7-14.33-8.07-17.06zM23.39 153.42a3.47 3.47 0 0 1-1-2.51l-1.46-22.26 4.12 2.35 1.1 18.38a4.4 4.4 0 0 0 1.56 3.31l.12.07 11.64 7a3.52 3.52 0 0 0 2.13.69 5.55 5.55 0 0 0 2.71-.8L86.87 135a11.94 11.94 0 0 0 5.42-9l.6-17.55 4.42-2.45-1 19.91a14 14 0 0 1-6.19 10.25L43.59 163a3.5 3.5 0 0 1-3.85.19zm-4.1-49.31L34.61 113a9 9 0 0 0 9 0l55-31.73-1.15 22.35-54.85 31.25a7 7 0 0 1-7 0l-14.89-8.6zM41 23.2c-.45-2.24 1-4.52 4-6.26l.12-.07A22.15 22.15 0 0 1 56 14.29a22.5 22.5 0 0 1 11.08 2.63c3 1.7 4.44 3.94 4.1 6.09l-.54 2.71a10.48 10.48 0 0 1-3.1 2.6l-.15.08c-6.16 3.6-16.25 3.6-22.47-.04a10 10 0 0 1-3.54-3.2zm15.21 22.91h-.06a29.79 29.79 0 0 1-3.06-.11h-.25a23.21 23.21 0 0 1-8.91-2.74 11.73 11.73 0 0 1-3.43-2.89 7.1 7.1 0 0 1-.46-.77 15.21 15.21 0 0 0 2.91 2.17 27.23 27.23 0 0 0 13.28 3.2 30.45 30.45 0 0 0 3.17-.16h.11v.06l.1-.06h.18c.61-.06 1.22-.15 1.81-.26h.09a23.53 23.53 0 0 0 7.66-2.69l.13-.08A15.56 15.56 0 0 0 72 39.86l-.19.56a11.19 11.19 0 0 1-3.3 2.75l-.16.09a24.86 24.86 0 0 1-12.14 2.85zm-12.29-16A25.21 25.21 0 0 0 56.23 33a24.87 24.87 0 0 0 12.18-2.9l.14-.08a14.38 14.38 0 0 0 1.92-1.33L70 32.28l.7.1H70c0 1.91-1.33 3.74-3.82 5.17l-.11.07a18 18 0 0 1-6.57 2.11c-4.75.65-9.82-.17-13.25-2.15a8 8 0 0 1-3.47-3.47 5.09 5.09 0 0 1-.26-.78l-.75-4.73a14.71 14.71 0 0 0 2.15 1.49zm-3.45 3a2.47 2.47 0 0 0 .11.63 6.53 6.53 0 0 0 .42 1.18 10 10 0 0 0 4.3 4.39A22.32 22.32 0 0 0 56.2 42a25.31 25.31 0 0 0 3.57-.25 20 20 0 0 0 7.33-2.38l.1-.06c3.06-1.76 4.74-4.15 4.78-6.75l.17-1.21a4.82 4.82 0 0 1 .47 1.92c0 .94 0 2-.08 2.86a5.34 5.34 0 0 1-.41.68l-.1.14a9.48 9.48 0 0 1-1.35 1.44 13.25 13.25 0 0 1-2.18 1.54l-.13.08a21.49 21.49 0 0 1-6.88 2.41h-.1c-.68.12-1.38.22-2.09.29h-.33c-5.5.5-11.08-.54-15-2.81a11.74 11.74 0 0 1-3.31-2.71l-.21-.28a6.08 6.08 0 0 1-1-1.72v-1.8a5.87 5.87 0 0 1 .65-2.47zm46.86 14.96a18.87 18.87 0 0 0-3.64.68A26.36 26.36 0 0 0 78 51.23l-.63.36a29.61 29.61 0 0 1-3.2-10.76 22.77 22.77 0 0 1 3.24 1.27zM36.82 58.75l.16-.51a114.22 114.22 0 0 0 3.53-15.05 15.19 15.19 0 0 0 2.43 1.72 25.17 25.17 0 0 0 9.62 3h.23c.77.09 1.55.14 2.33.16 0 .76-.1 1.56-.17 2.45a91.16 91.16 0 0 1-3.1 14.84 1 1 0 0 0 .69 1.24 1.35 1.35 0 0 0 .28 0 1 1 0 0 0 1-.73 93.91 93.91 0 0 0 3.12-15.17c.08-1 .14-1.82.18-2.62A26.45 26.45 0 0 0 69.37 45l.16-.09a14.61 14.61 0 0 0 2.89-2.16 31.35 31.35 0 0 0 3.43 10.23 1.59 1.59 0 0 0 2.19.59L79 53a24 24 0 0 1 5.23-2.29 14.13 14.13 0 0 1 6.63-.44l1.92 1.15.1.06c4.38 2.2 6.68 7.29 6.48 14.29l-.68 13.16-4.88 2.8.31-8.94c.11-4.09-.86-7.48-2.8-9.79a7.88 7.88 0 0 0-1.2-1.18c-.3-.21-1.74-1-11.8-6.36a2.69 2.69 0 0 0-2.61 0L27.51 83.59a1.55 1.55 0 0 0-.63.64c-2.52 5.14-3.88 10.32-3.74 14.62l.32 5.37-4.33-2.51-.47-7.12c-.16-5.94 1.6-12.85 4.95-19.47A49.29 49.29 0 0 1 36.37 59zm-11.29 46.67l-.39-6.66C25 95 26.25 90.23 28.46 85.6l10 5.79a31.71 31.71 0 0 0-3.57 14.5l.3 5.12zm14.25-15.57l-9.54-5.54L76.7 57.24a.69.69 0 0 1 .67 0c3.82 2.05 7.93 4.24 10.08 5.41l-6.62 3.82zM28 84.44v-.08zm9.23 27.5l-.36-6.14a30 30 0 0 1 3.65-14.08l41.3-23.53 7.55-4.36c.14.14.27.29.4.44 1.63 1.94 2.44 4.87 2.34 8.46l-.35 10.17-49.14 28.37a7 7 0 0 1-5.38.67zm-.49 25.52l1.15 19-8.69-5.16-.25-.15a2.46 2.46 0 0 1-.77-1.84l-1-17 7.51 4.34a8.82 8.82 0 0 0 2.06.81zm3.87 20.68a2.43 2.43 0 0 1-.72-1.8l-1.13-18.58h.37a9 9 0 0 0 4.46-1.18l47.25-26.93-.55 16.35a10.08 10.08 0 0 1-4.42 7.34l-42.56 24.6c-1.1.63-2.07.71-2.61.27z"/></svg>