<svg xmlns="http://www.w3.org/2000/svg" viewBox="0 0 191.49 196.21"><path fill="#75f8fb" d="M108.5 82.01v6.92l5.99-3.46v-6.93l-5.99 3.47zm9.91-5.74v6.92l5.99-3.46v-6.92l-5.99 3.46zm10.06-5.81v6.92l5.99-3.46V67l-5.99 3.46zM98.25 98.4v6.92l5.99-3.46v-6.93l-5.99 3.47zm10.25-5.9v6.93l5.99-3.46v-6.93l-5.99 3.46zm9.91-5.73v6.92l5.99-3.46v-6.92l-5.99 3.46zm-49.92 28.84v6.92l6-3.46v-6.92l-6 3.46zm10.25-5.89v6.92l6-3.46v-6.92l-6 3.46zm9.91-5.74v6.93l6-3.46v-6.93l-6 3.46zm39.82-23.02v6.92l5.99-3.46v-6.93l-5.99 3.47zm-30.22 27.82v6.92l5.99-3.46v-6.92l-5.99 3.46zm10.25-5.89v6.92l5.99-3.46v-6.92l-5.99 3.46zm9.91-5.74v6.92l5.99-3.46v-6.92l-5.99 3.46zM68.49 126v6.92l6-3.46v-6.93l-6 3.47zm10.25-5.9v6.92l6-3.46v-6.92l-6 3.46zm9.91-5.73v6.92l6-3.46v-6.92l-6 3.46zm39.82-23.03v6.92l5.99-3.46v-6.92l-5.99 3.46zm-30.22 27.94v6.92l5.99-3.46v-6.92l-5.99 3.46zm10.25-5.89v6.92l5.99-3.46v-6.93l-5.99 3.47zm9.91-5.74v6.92l5.99-3.46v-6.92l-5.99 3.46zm-49.92 28.84v6.92l6-3.46v-6.92l-6 3.46zm10.25-5.89v6.92l6-3.46v-6.92l-6 3.46zm9.91-5.73v6.92l6-3.46v-6.92l-6 3.46zm39.82-23.03v6.92l5.99-3.46v-6.92l-5.99 3.46zm-30.22 27.82v6.92l5.99-3.46v-6.92l-5.99 3.46zm10.25-5.89v6.92l5.99-3.46v-6.92l-5.99 3.46zm-40.01 23.11v6.92l6-3.46v-6.93l-6 3.47zm10.25-5.9v6.93l6-3.47v-6.92l-6 3.46zm9.91-5.73v6.92l6-3.46v-6.92l-6 3.46z"/><path fill="#2834af" d="M135.84 20.36l-12.33 7a18.82 18.82 0 0 0-4.14-3.36c-3-1.74-6-2.08-8.41-.91l-4.5 2.62-.14.09c-2 1.49-3.13 4.15-3.13 7.48v.16a26.6 26.6 0 0 0 .87 5.22l-7.73 4.47-17.48 10.34a18.69 18.69 0 0 0-4.24-3.42c-3-1.75-6-2.08-8.42-.89l-4.65 2.33-.22.15c-2 1.49-3.09 4.14-3.09 7.45v.15a27.61 27.61 0 0 0 .91 5.39l-16.43 9.48v94.28l13 7.48 93.11-53.75V27.84zM62.7 63.72l-.61.35a26.12 26.12 0 0 1-.86-4.83v-.15a8.2 8.2 0 0 1 .62-3.36 12.28 12.28 0 0 0-.13 1.74v.16a24.85 24.85 0 0 0 .98 6.09zM45.71 77l8.95 5.17v16.12l-8.95-5.17zm1-1.73l15.92-9.19 12.17-7a22.93 22.93 0 0 1 3.88 8.1l-23 13.28zm9.95 6.91l22.41-12.95a13.47 13.47 0 0 1 .11 1.66v.34l-.44.22a7.53 7.53 0 0 0-2.63 2.76 8.5 8.5 0 0 0-.71 1.52A7.07 7.07 0 0 0 75 78a3.2 3.2 0 0 0 1.44 2.93 2.63 2.63 0 0 0 1.32.35 4 4 0 0 0 2-.58 8.14 8.14 0 0 0 3.74-6.48v-.68a11.1 11.1 0 0 0 .71-4.08v-.15a17.79 17.79 0 0 0-.27-2.84L124 43.29a14.33 14.33 0 0 1 .13 1.83v.38a4.75 4.75 0 0 0-.55.28 7.53 7.53 0 0 0-2.58 2.76 8.54 8.54 0 0 0-.71 1.52 7 7 0 0 0-.38 2.19 3.25 3.25 0 0 0 1.44 2.94 2.63 2.63 0 0 0 1.33.34 3.86 3.86 0 0 0 2-.58 7.69 7.69 0 0 0 2.66-2.76 7.5 7.5 0 0 0 1.08-3.72V48a10.69 10.69 0 0 0 .82-4.33v-.15a16.7 16.7 0 0 0-.3-3l16.95-9.78v16.1L56.66 98.3zm23-4.85l.47-.19.57-.32v.08a5.73 5.73 0 0 1-1.93 2 1.42 1.42 0 0 1-1.28.23.78.78 0 0 1-.32-.43l.19-.07zm-2-1.67c.06-.13.13-.26.2-.39a6.8 6.8 0 0 1 .88-1.27 5.9 5.9 0 0 1-.83 1.6zm30-37.9l-.63.37a25.13 25.13 0 0 1-.82-4.64v-.16a8.3 8.3 0 0 1 .59-3.33 13.82 13.82 0 0 0-.12 1.73v.16a22.14 22.14 0 0 0 .96 5.86zM95.7 47l11.85-6.85 12.07-7a23.07 23.07 0 0 1 4 8.11l-7.13 4.11-33 19.06a25.34 25.34 0 0 0-3.88-7.87zm28.92 4.56a3.85 3.85 0 0 0 .57-.22l.35-.21v.06a5.69 5.69 0 0 1-1.93 2 1.38 1.38 0 0 1-1.28.23.73.73 0 0 1-.33-.42c.09 0 .18-.07.29-.13zm-2.13-1.65c.06-.12.12-.24.19-.36a6.13 6.13 0 0 1 1-1.35 5.49 5.49 0 0 1-.86 1.69zm1.77-19.53l11.56-6.56 9 5.18-16.41 9.47a25.58 25.58 0 0 0-4.15-8.1zm-6.85-3.64a17.57 17.57 0 0 1 4.51 3.89 23 23 0 0 1 4.88 9.84 14.89 14.89 0 0 1 .33 3.05v.15a7.22 7.22 0 0 1-1.42 4.77c.07-.24.14-.47.19-.72a12.66 12.66 0 0 0 .23-2.45v-.15c0-4.55-2.15-9.95-5.61-14.1a19.43 19.43 0 0 0-5.12-4.42 12.68 12.68 0 0 0-2.32-1h.27a8.26 8.26 0 0 1 4.06 1.13zm-3 1.6a16.8 16.8 0 0 1 3.9 3.22l-8.89 5.16a20.09 20.09 0 0 1-.74-4.84v-.16a8.71 8.71 0 0 1 1.08-4.41l.36-.21a8.19 8.19 0 0 1 4.29 1.23zm-42 24.16a17.41 17.41 0 0 1 4.44 3.82 23.21 23.21 0 0 1 4.94 9.81 15.51 15.51 0 0 1 .35 3.16v.15a7.29 7.29 0 0 1-1.41 4.78c.06-.23.13-.46.18-.7a12.8 12.8 0 0 0 .27-2.52v-.15a16.54 16.54 0 0 0-.37-3.45 25.07 25.07 0 0 0-5.32-10.7 19.47 19.47 0 0 0-5-4.33 13 13 0 0 0-1.82-.86 5.24 5.24 0 0 1 1.71.06 10.33 10.33 0 0 1 2.07.92zm-3 1.62a16.44 16.44 0 0 1 4 3.38l-9 5.2a22.26 22.26 0 0 1-.77-5.06v-.16a8.89 8.89 0 0 1 1-4.2l.81-.41a8.5 8.5 0 0 1 4 1.24zM45.72 166.66V95.43l8.95 5.17v71.22zm10.94-66l89.12-51.46v71.24l-89.12 51.39z"/></svg>