<svg xmlns="http://www.w3.org/2000/svg" viewBox="0 0 191.49 196.21"><path fill="#a8ffff" d="M164.72 85.79L145.44 74.7a1.56 1.56 0 0 1 .9-1.22 4.38 4.38 0 0 1 2.19-.52h.31a12.31 12.31 0 0 0 6-1.34h.07c3.14-1.81 3.13-4.76 0-6.59a11.84 11.84 0 0 0-5.75-1.37 11.62 11.62 0 0 0-5.67 1.35h-.07a4.08 4.08 0 0 0-2.33 3.47 1.46 1.46 0 0 1-.89 1.45 4.39 4.39 0 0 1-2.11.52l-19.17-11.06-19.07 11a1.46 1.46 0 0 0 .89 1.4 4.5 4.5 0 0 0 2.2.52h.3a12.31 12.31 0 0 1 6 1.35h.07c1.57.91 2.35 2.09 2.35 3.28s-.79 2.4-2.38 3.31a12.59 12.59 0 0 1-11.42 0h-.07a4.11 4.11 0 0 1-2.33-3.48 1.44 1.44 0 0 0-.89-1.44 4.55 4.55 0 0 0-2.41-.51l-19 11L54 96.9a4.39 4.39 0 0 1-2.11-.52 1.46 1.46 0 0 1-.89-1.45 4.08 4.08 0 0 0-2.33-3.47h-.07A11.62 11.62 0 0 0 42.87 90a11.84 11.84 0 0 0-5.75 1.37c-1.61.93-2.4 2.16-2.37 3.37A4 4 0 0 0 37.09 98h.07a12.31 12.31 0 0 0 6 1.34h.31a4.38 4.38 0 0 1 2.19.52 1.56 1.56 0 0 1 .9 1.22l-19.21 11.16v.06c0 .06 0 0 0 0l19.15 11a4.61 4.61 0 0 0 2.42-.52 1.44 1.44 0 0 0 .89-1.44 4.11 4.11 0 0 1 2.33-3.48h.07a12.59 12.59 0 0 1 11.42 0c1.59.91 2.38 2.11 2.38 3.31s-.78 2.37-2.35 3.28h-.07a12.31 12.31 0 0 1-6 1.35h-.3a4.5 4.5 0 0 0-2.2.52 1.46 1.46 0 0 0-.89 1.4l18.94 10.94 19.2-11.08a5.63 5.63 0 0 1 .58 0 4.53 4.53 0 0 1 2.2.52 1.45 1.45 0 0 1 .88 1.5 4.11 4.11 0 0 0 2.33 3.48h.08a11.52 11.52 0 0 0 5.67 1.36 11.69 11.69 0 0 0 5.74-1.38 4.19 4.19 0 0 0 2.35-3 1.94 1.94 0 0 0 0-.68 4.24 4.24 0 0 0-2.31-2.89h-.08a12.26 12.26 0 0 0-6-1.35h-.3a4.53 4.53 0 0 1-2.2-.52c-.75-.43-1-1-.85-1.6l7.09-4.07 11.43-6.57v-.07l18.92-10.93a1.46 1.46 0 0 0-.89-1.4 4.5 4.5 0 0 0-2.2-.52h-.3a12.31 12.31 0 0 1-6-1.35h-.07c-1.57-.91-2.35-2.09-2.35-3.28s.79-2.4 2.38-3.31a12.59 12.59 0 0 1 11.42 0h.07a4.11 4.11 0 0 1 2.33 3.48 1.44 1.44 0 0 0 .89 1.44 4.63 4.63 0 0 0 2.43.52l19.16-11a.06.06 0 0 0-.02-.17z"/><path fill="#2834af" d="M166.35 78a1.93 1.93 0 0 0-.43-1.09l-.14-.14-6.59-3.92V61.11c.05-1.82-1.09-3.53-3.13-4.71a13.26 13.26 0 0 0-6.49-1.57 14 14 0 0 0-6.67 1.55l-.14.09a5.53 5.53 0 0 0-3 4.77l-.12.09h-.06a2.62 2.62 0 0 1-1 .3l-18.78-10.8-.75-.43-20.49 11.83-.22 2.27h.14V71c-1.28-.78-1.32-1.08-1.38-1.52a4 4 0 0 0-1.81-2.74 5.59 5.59 0 0 0-3-.64h-.59l-.27.28-18.68 10.71-1 .64-8.8 5.08-9.2 5.31a2.8 2.8 0 0 1-1-.3.31.31 0 0 1-.12-.09 5.53 5.53 0 0 0-3-4.78l-.11-.08A13.09 13.09 0 0 0 43 81.28a13.33 13.33 0 0 0-6.5 1.57c-2 1.17-3.17 2.89-3.12 4.67l.15 11.53-6.67 3.81-.66.23-.39 1.65.15.15v14.17l20.18 11.65h.31a3.1 3.1 0 0 0 .43 0 5.84 5.84 0 0 0 2.86-.68l.12-.06a2.92 2.92 0 0 0 1.64-2.84 2.56 2.56 0 0 1 1.33-1.92v9.3l20.44 11.8 19.65-11.34a3.26 3.26 0 0 1 1.5.27l.11.07.14.09a5.6 5.6 0 0 0 3.15 4.86c1.91 1.11 4.71 1.25 6.94 1.25a13.15 13.15 0 0 0 6.49-1.58c2.06-1.2 3.19-2.94 3.1-4.7V122.7l5.47-3.15.76-.45 18.92-10.93v-.8a3.23 3.23 0 0 0 0-.44v-8.07a2.57 2.57 0 0 1 1.33 1.93 2.93 2.93 0 0 0 1.69 2.86 5.89 5.89 0 0 0 2.93.72 3.1 3.1 0 0 0 .43 0h.31l20.18-11.65V78.57a3.25 3.25 0 0 0 0-.54zm-25.94 5.31a13.52 13.52 0 0 0-12.41 0c-1.86 1.07-2.89 2.55-2.89 4.18s1 3.08 2.93 4.19a13 13 0 0 0 6.51 1.48h.3a3.57 3.57 0 0 1 1.75.41l.14.09-17.66 10.21-18.56-10.71-.23-.12-.13-.07-.16.03a5.32 5.32 0 0 0-.69 0 5.48 5.48 0 0 0-2.72.67A2.44 2.44 0 0 0 95.14 96a3.19 3.19 0 0 1-1.77 2.51l-.14.07a10.57 10.57 0 0 1-5.17 1.22 12.36 12.36 0 0 1-2.54-.27 8.49 8.49 0 0 1-2.19-.87 3.08 3.08 0 0 1-1.87-2.44c0-.87.65-1.72 1.92-2.45a11.19 11.19 0 0 1 5.52-1.22h.1a5.31 5.31 0 0 0 2.84-.62h.1A2.65 2.65 0 0 0 93.32 90a.34.34 0 0 0 0-.1v-.31a.34.34 0 0 0 0-.1v-.51l-17.6-10.13 17-9.77h.16a2.09 2.09 0 0 1 1 .26 1.24 1.24 0 0 1 .29.5c.22 1.72 1.14 2.68 2.7 3.64.23.16.46.32.71.47a13.51 13.51 0 0 0 12.42 0c1.86-1.06 2.88-2.55 2.88-4.18s-1-3.08-2.92-4.19a13.11 13.11 0 0 0-6.29-1.48h-.53a3.69 3.69 0 0 1-1.32-.25l17.27-10c18.68 10.8 18.75 10.83 19.17 10.83A5.75 5.75 0 0 0 141 64l.09-.05a3 3 0 0 0 1.63-2.84 2.69 2.69 0 0 1 1.6-2.11l.13-.08a11.24 11.24 0 0 1 5.12-1.12 10.43 10.43 0 0 1 5 1.17c1.05.61 1.64 1.35 1.62 2v.92a4.18 4.18 0 0 1-1.66 1.54 11 11 0 0 1-5.53 1.25h-.31a5.32 5.32 0 0 0-2.63.63h-.1a2.54 2.54 0 0 0-1.4 2v.61l18.37 10.57-17.53 10.16a3.4 3.4 0 0 1-1.7-.41c-.32-.18-.41-.35-.4-.4v-.14a5.1 5.1 0 0 0-2.89-4.41zm-39.49 34.93a5.5 5.5 0 0 0 2.7.65h.31a11.39 11.39 0 0 1 5.58 1.25 3.35 3.35 0 0 1 1.82 2.08v.57a3.26 3.26 0 0 1-1.85 2.21A11.55 11.55 0 0 1 99 125a3.21 3.21 0 0 1-1.83-2.53 2.47 2.47 0 0 0-1.44-2.47 5.81 5.81 0 0 0-3.38-.61h-.21l-18.88 10.9-17.71-10.2.1-.07h.1a3.45 3.45 0 0 1 1.7-.39h.28a13.13 13.13 0 0 0 6.61-1.52c1.84-1.07 2.85-2.54 2.85-4.15s-1-3.11-2.88-4.18a13.6 13.6 0 0 0-12.49 0 5.08 5.08 0 0 0-2.82 4.36v.15c0 .06-.1.23-.35.38h-.1a3.32 3.32 0 0 1-1.51.38h-.16L29.39 105l18.37-10.55v-.6a2.56 2.56 0 0 0-1.43-2.06 5.37 5.37 0 0 0-2.7-.66h-.33a11.18 11.18 0 0 1-5.49-1.2l-.09-.06a4.53 4.53 0 0 1-1.31-1.08V87.5c0-.69.57-1.43 1.61-2a10.48 10.48 0 0 1 5-1.17 10.07 10.07 0 0 1 4.87 1.13l.12.07a2.72 2.72 0 0 1 1.58 2.07 3 3 0 0 0 1.68 2.87 5.8 5.8 0 0 0 2.86.72c.4 0 .4 0 10.34-5.73l9.23-5.32h.11l16.91 9.73a1.56 1.56 0 0 1-.3.22 3.52 3.52 0 0 1-1.71.39h-.31a13 13 0 0 0-6.48 1.46l-.14.07A5.08 5.08 0 0 0 79 95.69v.34c0 1.63 1 3.11 2.88 4.18a11.53 11.53 0 0 0 3.12 1.23h.1a14.58 14.58 0 0 0 7.48-.16 10.88 10.88 0 0 0 2.22-1A5.11 5.11 0 0 0 97.66 96v-.14s.08-.22.44-.42a3.46 3.46 0 0 1 1.62-.44l17.38 10-17.1 9.85-.5.3v.45a2.4 2.4 0 0 0 1.42 2.62zm8.82 19.23a10.17 10.17 0 0 1-5 1.18c-1 0-4 0-5.51-.89a2.73 2.73 0 0 1-1.58-2.07 2.91 2.91 0 0 0-1.56-2.8l-.09-.09a6.24 6.24 0 0 0-3.68-.68H92L73.26 143l-17.44-10.11v-10.34l17.44 10.07 19.5-11.25a3.55 3.55 0 0 1 2 .4c.33.18.41.36.4.39v.16a5.11 5.11 0 0 0 2.9 4.4 12.42 12.42 0 0 0 6.18 1.5 12.68 12.68 0 0 0 6.23-1.51 6.8 6.8 0 0 0 .86-.58v9.46a2.83 2.83 0 0 1-1.59 1.86zm-73.32-46l.27.18.09.06a13.15 13.15 0 0 0 6.52 1.47h.31a3.53 3.53 0 0 1 1.72.4l-8.83 5.08zm83.65 14.17l16.42-9.49v10.34l-16.42 9.48zm-17-39.51h.32a11.24 11.24 0 0 1 5.61 1.2 3.06 3.06 0 0 1 1.85 2.41 3.1 3.1 0 0 1-1.85 2.45 11.64 11.64 0 0 1-7.48 1v-7.35a6.1 6.1 0 0 0 1.58.24zm53.09 6.32L147 67.09a3.48 3.48 0 0 1 1.68-.38h.3a13.33 13.33 0 0 0 6.6-1.52 7 7 0 0 0 .6-.41zM51.57 122.56a5.56 5.56 0 0 0-3.08 4.82h-.06l-.12.06a2.93 2.93 0 0 1-1.28.32L29 117.38V107l17 9.91.18.18h.39a5.4 5.4 0 0 0 2.9-.63h.1A2.45 2.45 0 0 0 51 114a3.27 3.27 0 0 1 1.9-2.57 11.68 11.68 0 0 1 10.42 0 3.09 3.09 0 0 1 1.88 2.44c0 .87-.66 1.72-1.92 2.45a11.32 11.32 0 0 1-5.52 1.22h-.3a5.38 5.38 0 0 0-2.65.63h-.09a2.47 2.47 0 0 0-1.39 2.27v1.23a11.86 11.86 0 0 0-1.76.89zm58.87-4.22a13.17 13.17 0 0 0-6.52-1.48h-.3a3.5 3.5 0 0 1-1.74-.41 1.46 1.46 0 0 1-.27-.2l16.46-9.46v10.27l-5.49 3.17a6.7 6.7 0 0 0-2.14-1.89zM139 94.08a2.49 2.49 0 0 0-1.43-2.29 5.5 5.5 0 0 0-2.7-.65h-.31A11.29 11.29 0 0 1 129 89.9c-1.2-.7-1.86-1.55-1.86-2.42A3.09 3.09 0 0 1 129 85a11.7 11.7 0 0 1 10.49 0 3.21 3.21 0 0 1 1.83 2.53 2.47 2.47 0 0 0 1.43 2.47 5.61 5.61 0 0 0 3 .65h.16l17.49-10v10.31l-18.08 10.44a3 3 0 0 1-1.32-.4l-.14-.09a5.61 5.61 0 0 0-3.15-4.86 10.24 10.24 0 0 0-1.68-.76v-1.21z"/></svg>