<svg xmlns="http://www.w3.org/2000/svg" viewBox="0 0 191.49 196.21"><path fill="#fff31c" d="M136.92 52.18c0-2.25-1.5-4.62-4.49-6.34l-19.12-11c-5.94-3.43-15.54-3.44-21.45 0L72.61 45.88c-3 1.71-4.42 3.95-4.41 6.19V105c0 2.24 1.51 4.48 4.48 6.2l19.11 11c.3.17.6.33.92.48s.83.39 1.26.56a21.89 21.89 0 0 0 5.88 1.39 24.24 24.24 0 0 0 11.28-1.37 17.15 17.15 0 0 0 2.11-1l19.26-11.12c2.94-1.7 4.41-3.92 4.41-6.16z"/><path fill="#2834af" d="M123.88 56.56c0 .83.59 1.17 1.3.75l.75-.44a2.87 2.87 0 0 0 1.3-2.26v-4.33a10.51 10.51 0 0 0-5.23-9.09L118.24 39a2.89 2.89 0 0 0-2.61 0l-.78.46a.79.79 0 0 0 0 1.49l3.75 2.15a10.49 10.49 0 0 1 5.27 9.1zm-9.73-10.85l-3.75-2.17a2.89 2.89 0 0 0-2.61 0L107 44a.78.78 0 0 0 0 1.48l3.75 2.15a10.49 10.49 0 0 1 5.27 9.1v4.34c0 .82.59 1.16 1.3.74l.75-.43a2.89 2.89 0 0 0 1.3-2.26v-4.33a10.49 10.49 0 0 0-5.22-9.08zm-7.84 5.15l-3.74-2.17a2.89 2.89 0 0 0-2.61 0l-.78.46a.78.78 0 0 0 0 1.48l3.75 2.15a10.49 10.49 0 0 1 5.27 9.1v4.34c0 .82.58 1.16 1.29.74l.76-.43a2.92 2.92 0 0 0 1.3-2.26v-4.33a10.48 10.48 0 0 0-5.24-9.08zM107.78 97L104 99.13a10.47 10.47 0 0 1-10.51 0L89.77 97c-.71-.42-1.3-.08-1.29.75v.87a2.88 2.88 0 0 0 1.3 2.25l3.76 2.13a10.51 10.51 0 0 0 10.46 0l3.75-2.16a2.88 2.88 0 0 0 1.3-2.26v-.91c.01-.79-.57-1.12-1.27-.67zm.01-9.09l-3.74 2.18a10.5 10.5 0 0 1-10.51 0l-3.76-2.17c-.71-.41-1.3-.07-1.29.75v.87a2.9 2.9 0 0 0 1.31 2.26l3.75 2.2A10.48 10.48 0 0 0 104 94l3.75-2.16a2.88 2.88 0 0 0 1.3-2.27v-.9c.02-.83-.56-1.16-1.26-.76zm-18.54-5.46L93 84.61a10.48 10.48 0 0 0 10.49 0l3.75-2.16a2.88 2.88 0 0 0 1.3-2.27v-.9c0-.82-.59-1.15-1.29-.74l-3.74 2.17a10.49 10.49 0 0 1-10.52 0l-3.75-2.17c-.71-.41-1.3-.07-1.29.75v.87a2.92 2.92 0 0 0 1.3 2.29z"/><path fill="#2834af" d="M128.56 37l-19.12-11c-6.45-3.72-16.52-3.74-23 0l-19.2 11c-3.24 1.88-5 4.45-5.14 7.25v53.3c0 2 .92 4.84 5.19 7.31l5.13 3.14v1c0 3.32 2.63 6.25 5.08 7.91l6.44 4 .14.08a15.37 15.37 0 0 0 4.68 1.35v14.29a35.23 35.23 0 0 0-9.16 3.21l-.2.12c-5.27 3-7.94 6.86-7.94 11.36v4.3c0 4.37 2.87 8.42 8 11.41s11.7 4.38 18.33 4.38S111 170 116 167.13l.23-.13c4.91-2.84 7.7-6.66 7.91-10.81v-4.84c0-4.37-2.87-8.42-8-11.41a29.09 29.09 0 0 0-8.92-2.89V117.4l21.51-12.63c3.3-1.91 5.13-4.53 5.16-7.39v-53c-.09-2.02-1-4.93-5.33-7.38zm-53 72.61a3.19 3.19 0 0 1-.08-.61v-2.66l.15-33.77c0-.71.18-1.23.52-1.42a1.71 1.71 0 0 1 1.58.32 6.76 6.76 0 0 1 2.86 5.12l-.06 36.35a11.21 11.21 0 0 0 .22 2.43l-1.52-1a8.71 8.71 0 0 1-3.58-4.49 2.84 2.84 0 0 1-.14-.31zm28.65 6.08a24.65 24.65 0 0 1-8.82.64 21 21 0 0 1-5.77-1.33 12.07 12.07 0 0 1-1.22-.55c-.3-.14-.59-.29-.85-.44l-5.09-3.08.05-34.33a8.73 8.73 0 0 0-3.8-6.82 3.51 3.51 0 0 0-3.62-.37 3.4 3.4 0 0 0-1.54 3.17l-.15 32.54-4.59-2.8c-1.69-1-3.71-2.6-3.72-4.74V87.26L71 91.42c.67.38 1.21 0 1.21-.91v-.42a2.86 2.86 0 0 0-1.21-2.3l-5.94-4.16v-4.78L71 83c.67.38 1.21 0 1.21-.92v-.41A2.86 2.86 0 0 0 71 79.33l-5.94-4.11v-4.79L71 74.58c.67.39 1.21 0 1.21-.91v-.42A2.89 2.89 0 0 0 71 71l-5.91-4.2V44.47c0-1.78 1.3-3.51 3.66-4.87L75 36l8.58 5.11a2.86 2.86 0 0 0 2.58 0l.57-.32a.79.79 0 0 0 0-1.5l-8.59-5.11 4.61-2.66 8.51 4.88a2.85 2.85 0 0 0 2.59 0l.56-.32c.72-.41.72-1.08 0-1.5L85.9 29.7l2.1-1.21a15.59 15.59 0 0 1 2.41-1.11l8.16 4.72a2.91 2.91 0 0 0 2.59 0l.56-.32a.8.8 0 0 0 0-1.51l-6.87-4c4.56-.58 9.55.14 13.1 2.2l19.12 11c1.71 1 3.74 2.61 3.74 4.8V66.9L125 71a2.89 2.89 0 0 0-1.21 2.3v.42c0 .89.54 1.3 1.21.91l5.81-4v4.79l-5.81 4a2.86 2.86 0 0 0-1.21 2.3V82c0 .89.54 1.3 1.21.92l5.81-4v4.78L125 87.79a2.86 2.86 0 0 0-1.21 2.3v.42c0 .88.54 1.29 1.21.91l5.81-4.06v9.94c0 1.77-1.3 3.49-3.67 4.86zM82.63 115a8.77 8.77 0 0 1-.18-2.07v-.33l2.69 1.63a6.43 6.43 0 0 1-2.51.77zm9.07 3.9l-1.83.5a9.74 9.74 0 0 1-4.39-1l-2.24-1.4a8.67 8.67 0 0 0 3.06-1.07l.83-.49c.22.12.43.24.64.34.39.2.81.38 1.33.59a22.65 22.65 0 0 0 4.8 1.27c-.51.33-1.09.68-1.62 1-.2.05-.39.14-.58.23zm-17.23 32.45c0-3.4 2.11-6.26 6.45-8.77l.21-.12a32.17 32.17 0 0 1 8.59-2.93v8.82h2V121a8.67 8.67 0 0 0 1.53-.69 27.15 27.15 0 0 0 3.75-2.45h1a25.6 25.6 0 0 0 6.13-.75v31.21a3 3 0 0 1-1.64 2.41l-.09.07a9.28 9.28 0 0 1-9 0 3.07 3.07 0 0 1-1.66-2.44h-2a5 5 0 0 0 2.58 4.12 11.24 11.24 0 0 0 11.22 0l.1-.08a4.9 4.9 0 0 0 2.51-4.06v-8.42a26.13 26.13 0 0 1 8.45 2.6c4.2 2.43 6.53 5.56 6.54 8.85V154c-.9 2.42-3 4.67-6.19 6.5l-.21.12c-9.33 5.39-24.56 5.37-34-.06-3.23-1.86-5.38-4.15-6.29-6.6zm40.22 13.05l-.22.13c-9.2 5.31-24.21 5.28-33.46-.06a14 14 0 0 1-5.73-5.59 19.72 19.72 0 0 0 4.48 3.45c5 2.89 11.54 4.33 18.08 4.33s13-1.42 17.89-4.27l.21-.12a19.75 19.75 0 0 0 4.39-3.39 13.5 13.5 0 0 1-5.64 5.52z"/></svg>