<svg xmlns="http://www.w3.org/2000/svg" viewBox="0 0 191.49 196.21"><path fill="#fff31c" d="M110.15 74.57c6.8 3.92 17.77 3.94 24.52 0l.16-.09c6.75-3.9 6.71-10.24-.08-14.16s-17.77-3.94-24.52 0l-.15.09c-6.75 3.9-6.72 10.23.07 14.16zM61 130.22c6.79 3.92 17.76 3.94 24.51 0l.16-.08c6.75-3.9 6.71-10.24-.08-14.16s-17.77-3.94-24.52 0l-.15.09c-6.79 3.93-6.76 10.23.08 14.15zm24.56-26.94c6.79 3.92 17.77 3.94 24.52 0l.15-.09C117 99.33 117 93 110.15 89.07c-6.79-3.92-17.76-3.94-24.51 0l-.15.09c-6.76 3.84-6.72 10.19.07 14.12z"/><path fill="#2834af" d="M137.08 62.1c-.48-2.73-2.53-5.27-5.76-7.13a28.59 28.59 0 0 0-26.07 0l-.1.06C102 56.83 100 59.3 99.48 62c-.13.68-.14 10.39-.12 19.16a30.65 30.65 0 0 0-5.72-.53 26.26 26.26 0 0 0-12.91 3.1l-.18.1c-3.91 2.26-6 5.49-5.79 8.88v5.43h-.06a9.9 9.9 0 0 0 0 1.09c0 .12 0 .24.06.36v8.75a28.27 28.27 0 0 0-5.77-.63 26.12 26.12 0 0 0-13 3.14l-.1.06c-3.92 2.27-6 5.5-5.79 8.88v13.2c0 2.22 1 5.45 5.89 8.27a26.76 26.76 0 0 0 13.07 3.13 26.55 26.55 0 0 0 13-3.11l.09-.06c3.79-2.22 5.85-5.17 5.85-8.39v-2.6c6.53 1.26 13.67.32 18.58-2.51l.25-.13c3.73-2.17 5.78-5.14 5.77-8.36v-3.74c6.52 1.26 13.65.3 18.61-2.56l.19-.1c3.75-2.15 5.81-5.13 5.79-8.36V63.25a4.83 4.83 0 0 0-.11-1.15zm-7.16 48.12l-.18.1c-4.72 2.72-12 3.46-18.15 1.87l-.07-.25-.06-4.2v-.17a29.5 29.5 0 0 0 6.82.8 25.75 25.75 0 0 0 12.72-3.05l.17-.09a14.1 14.1 0 0 0 3.05-2.34v1.59c-.03 2.11-1.55 4.16-4.3 5.74zm-24.78 14.85c-4.58 2.64-11.58 3.41-17.64 2a13.33 13.33 0 0 0 0-1.38v-3.1a30.06 30.06 0 0 0 5.62.52 26.16 26.16 0 0 0 12.71-3l.17-.11a13 13 0 0 0 3.61-2.94v2.18c0 2.11-1.51 4.15-4.2 5.72zm-52 6.19a14.16 14.16 0 0 0 3.11 2.38c7.06 4.06 18.51 4.08 25.56 0l.11-.08a13.32 13.32 0 0 0 3-2.33v1.6c0 2.1-1.51 4.14-4.35 5.77l-.09.07c-6.32 3.65-16.65 3.62-23-.06-2-1.14-4.33-3-4.39-5.57v-.14zM85 126.41v1.43a5.59 5.59 0 0 1-.47.84 10.41 10.41 0 0 1-3.61 3.19l-.12.08c-6.46 3.72-17 3.7-23.53 0a9.51 9.51 0 0 1-4.1-4.12V125a14.45 14.45 0 0 0 3.12 2.28 27.25 27.25 0 0 0 12.82 2.92 26.89 26.89 0 0 0 12.64-2.87l.18-.09a13.8 13.8 0 0 0 3.18-2.37l-.1 1.54zm-7.23-28.53a14 14 0 0 0 3.11 2.3 27.11 27.11 0 0 0 12.82 2.94 26.72 26.72 0 0 0 12.67-2.9l.15-.08a14 14 0 0 0 3.06-2.26l-.06.66v.13a4.25 4.25 0 0 1-.06.71 5.3 5.3 0 0 1-.89 2.28 10.48 10.48 0 0 1-3.56 3.16l-.18.1c-6.47 3.73-17 3.71-23.52 0a10.8 10.8 0 0 1-3.54-3.09zm28.93-40.29l.1-.07a23.29 23.29 0 0 1 11.44-2.7 23.52 23.52 0 0 1 11.58 2.75c2.45 1.41 4 3.21 4.3 5.06 0 .23.06.36.07.45v2.43a9.42 9.42 0 0 1-4.05 4.06l-.16.09c-6.46 3.73-17 3.71-23.51 0a9.66 9.66 0 0 1-4.09-4c0-1.68 0-2.81.05-3 .33-1.93 1.83-3.66 4.27-5.07zM84 112.78l-2.27-.85-2-1.71a8.86 8.86 0 0 1-1.64-1.94c-.11-.18-.2-.36-.29-.54v-3a14.81 14.81 0 0 0 2.54 1.84c7 4.07 18.49 4.09 25.5 0l.17-.09a13.21 13.21 0 0 0 3.54-2.85l-.09 1.8v1.92c-.52 1.65-1.79 3-4 4.27l-.12.08c-5.67 3.37-14.65 3.79-21.34 1.07zm34.35-18.1A25.53 25.53 0 0 0 131 91.63l.53-.32a13.41 13.41 0 0 0 2.69-2.12v3.29a6.13 6.13 0 0 1-.39.7 10.16 10.16 0 0 1-3.54 3.14l-.2.11c-4.75 2.75-12 3.54-18.27 2L112 94a29.67 29.67 0 0 0 6.37.68zm-6.93 10.83l.24-5a30.1 30.1 0 0 0 6.58.74 26.26 26.26 0 0 0 12.79-3l.15-.08a13.29 13.29 0 0 0 3-2.27v3.66a6.18 6.18 0 0 1-.47.87 10.26 10.26 0 0 1-3.56 3.14l-.17.1c-4.83 2.69-12.27 3.46-18.54 1.84zm-8.52-25.64l-.16-.26a6.89 6.89 0 0 1-.39-.7V75.5a14.16 14.16 0 0 0 3.13 2.38A26.3 26.3 0 0 0 118.36 81a25.93 25.93 0 0 0 12.7-3l.26-.14a13.8 13.8 0 0 0 2.87-2.19v3.28a6.31 6.31 0 0 1-.42.76l-.13.22a10.39 10.39 0 0 1-3.54 3.08L130 83c-6.47 3.73-17 3.71-23.52 0a10.7 10.7 0 0 1-3.58-3.13zm30.9-6.93a9.94 9.94 0 0 1-3.39 3.06l-.33.18c-6.48 3.75-17.06 3.73-23.6 0a9.63 9.63 0 0 1-4.12-4.06V69a13.86 13.86 0 0 0 3.11 2.38 28.26 28.26 0 0 0 25.52 0l.15-.09a14.1 14.1 0 0 0 3.05-2.29v3.31a6.48 6.48 0 0 1-.39.63zM102.36 83.1v-.79a12.67 12.67 0 0 0 1.43 1.27c-.47-.17-.94-.33-1.43-.48zm15.91 4.67a26 26 0 0 0 12.75-3l.11-.07a13.66 13.66 0 0 0 3.06-2.35v3.48a5.15 5.15 0 0 1-.33.61 9.63 9.63 0 0 1-3.42 3.22l-.46.28c-4.67 2.71-11.8 3.51-17.95 2a8.47 8.47 0 0 0-3.65-5.87 28.38 28.38 0 0 0 9.89 1.7zm-24.59 28.79a26.1 26.1 0 0 0 12.74-3.06l.11-.08a13 13 0 0 0 3-2.27v.94a4.85 4.85 0 0 1-.15 1.19 5.34 5.34 0 0 1-.82 1.8 10.32 10.32 0 0 1-3.54 3.16l-.18.1c-4.53 2.61-11.35 3.44-17.35 2.2v-1.48h-.06a7.26 7.26 0 0 0-1.36-3.49 29.71 29.71 0 0 0 7.61.99zm-11.91-30l.16-.08a24.68 24.68 0 0 1 11.7-2.68 25.06 25.06 0 0 1 11.84 2.72c2.91 1.61 4.53 3.68 4.6 5.83l-.1 1c-.38 1.84-1.91 3.58-4.41 5l-.16.08c-6.47 3.59-17 3.57-23.55 0a9.47 9.47 0 0 1-4.09-3.88v-2c-.16-2 1.14-4 3.55-5.64.16-.14.3-.24.46-.33zM57.2 113.75l.12-.07A24.6 24.6 0 0 1 69 111a28.72 28.72 0 0 1 7 .85l.3.08a16.58 16.58 0 0 1 2 .63l.37.15a15.2 15.2 0 0 1 2.15 1 13 13 0 0 1 2.18 1.48l.21.17a6 6 0 0 1 2.23 4l-.06.94c-.31 1.9-1.87 3.72-4.44 5.14l-.16.09c-6.47 3.56-17 3.54-23.56 0a9.55 9.55 0 0 1-4.08-3.84v-2.1a5.82 5.82 0 0 1 2.31-4.68 12.35 12.35 0 0 1 1.75-1.16z"/></svg>