<svg xmlns="http://www.w3.org/2000/svg" viewBox="0 0 191.49 196.21"><path fill="#fff31c" d="M105.81 47.98V59.5l29.93 17.27 9.97-5.76V59.49l-29.92-17.27-9.98 5.76zm-9.12 74.19v11.51l29.92 17.28 9.98-5.76-.01-11.52-29.92-17.27-9.97 5.76zM83.73 97.03l29.92-17.28 9.97 5.76v11.51L93.69 114.3l-9.97-5.75.01-11.52zm0-68.16l29.92-17.28 9.97 5.76v11.51L93.69 46.15l-9.97-5.76.01-11.52z"/><path fill="#2834af" d="M70.69 109l-10-5.77-29.95 17.3-.95.59v12.64l11 6.34 30.92-17.85v-12.66zm-2 1.16l-27.92 16.1-8-4.6 27.92-16.12zM31.8 123.39l8 4.6v9.21l-8-4.6zm37.89-2.31L41.77 137.2V128l27.92-16.12zM144 23.93l.25-.14-.25-.14v-.92l-32-18.4-32.43 18.46v14.37l17.32 10-17.63 10V83.2l7.84 4.49L79.69 92v47.79l32.06 18.53 30.63-17.68 1.49-.81V115l-7.6-4.43 7.78-4.53zm-14-5.78l-28.3 16.41-8-4.61L122 13.56zm10.55 7.78v9.19l-27.88 16.12V42zm0 77.89v.41l-27.9 16.11v-9.21L140.6 95v8.81zm-17.66-.91V93.7l7.83-4.51v9.2zm-12.26-5.59l-8-4.61V83.5l8 4.61zm-8-36.84l8 4.61v9.19l-8-4.6zM132.75 42l7.82-4.52v9.2l-7.82 4.51zm-2 10.35l-7.83 4.52v-9.2l7.83-4.52zm-9.83 4.85l-7.25-4.2 7.25-4.18zm2 22.71v-7.76l6.7 3.87zm.73-9.62l7.1-4.1v8.2zm-12.14-16l.16-.09 8 4.6-8 4.59-8-4.59 7.8-4.51zm1.14 22.38l8.27-4.77V81l-8.27 4.78zm8.28 18.25v8.38l-7.26-4.19zm-8.26 2.44v-9.25L140.59 72v9.2zm20.08-23.09V65l7.83-4.52v9.19zm-20.07.07v-9.27L140.6 49v9.19zm-12-38v9.21l-8-4.6v-9.27zm-10-5.75v9.21l-8-4.61v-9.27zm19 22.46l-8 4.59-8-4.6 8-4.6zm-18.95 9.71l-7-4 7-4zm2-8.06l8 4.63v9.19l-8-4.6zm8 36.86l-8-4.6v-9.21l8 4.6zm-10-5.76l-8-4.6V72l8 4.61zm20.43 14.11l8.47 4.89-8 4.6-27.88-16.11 8-4.6zm-10.46 5.48v9.21l-8-4.6v-9.21zm10 5.77v9.2l-8-4.61v-9.2zm-11 16.68l-7 4v-8zm1 1.73v8.06l-7-4zm2 9.21v-9.21l8 4.61v9.21zm10-6.93v-9.19l8.24-4.76v9.19zm-22-9.18v9.2l-8-4.61v-9.2zm39.89-1.58v.41l-7.69 4.44v-9.2l7.83-4.51v8.86zM90.74 99.64v9.2l-8-4.6V95zm20 23v9.2l-27.99-16.1v-9.2zm0 23v8.52l-27.99-16.08v-8.51zm2 .41v-.42l8.25-4.76v8.6l-8.25 4.77zm10.25-6.34l7.83-4.52v8.6l-7.83 4.52zm9.83-5.67l7.83-4.52v8.6l-7.83 4.52zm-20.08 9.28v-9.21l27.92-16.12v9.21zm20.08-23.11v-7.9l6.84 3.95zm0-23V88l7.83-4.52v9.2zm-22.09-46l-8-4.61v-9.2l8 4.6zm-19-22.46l-8-4.6 28.34-16.31 8 4.57zm18.93 47.8v9.2L82.74 69.67v-9.2zm1-36.28l-8-4.6L132 19.3l8 4.61zM90.69 155.48l-11.09 6.4.11 12.61 30.92 17.85 11-6.34v-12.67zm27.91 18.43l-8 4.6-27.81-16.16 7.9-4.56zm-37-9.93l28 16.26v9.21l-27.9-16.12zm30 25.47v-9.21l8-4.6v9.21z"/></svg>