<svg xmlns="http://www.w3.org/2000/svg" viewBox="0 0 191.49 196.21"><path fill="#fff31c" d="M108.58 61.11l-80.31 46.37 61.89 35.73 80.24-46.32-61.82-35.78z"/><path fill="#2834af" d="M106.67 69.34l-5.92 3.42-1.44-.84 3.69-2.13-5 1.39-1.26-.73 2.41-2.89-3.7 2.14-1.45-.83 5.91-3.42 1.77 1-2.5 3.31 5.7-1.46zm6.47 3.66l-6 1.1-2 1.14-1.46-.84 2-1.14 1.9-3.5 1.66 1-1.27 2.07 3.58-.74zm-14.98 3.16l-7.39 2.61-1.8-1 3-2.85-5 1.74-1.8-1 4.52-4.26 1.58.91-3.54 2.93 5.36-1.88 1.59.92-3.18 3.01 5.09-2zm5.1 3.29a1.4 1.4 0 0 1 0 1.26 2.61 2.61 0 0 1-1.17 1.13 5.47 5.47 0 0 1-2 .68 7.24 7.24 0 0 1-2.18 0 5.74 5.74 0 0 1-1.91-.66 2.66 2.66 0 0 1-1.14-1.11 1.4 1.4 0 0 1 0-1.26A2.73 2.73 0 0 1 96 78.35a5.68 5.68 0 0 1 2-.68 6.93 6.93 0 0 1 2.18 0 5.26 5.26 0 0 1 1.92.66 2.63 2.63 0 0 1 1.16 1.12zm-4.08-.73a3.61 3.61 0 0 0-1.67.48c-.52.3-.79.62-.82 1s.19.65.67.92a3 3 0 0 0 1.59.39 3.58 3.58 0 0 0 1.67-.48c.52-.3.79-.62.82-1s-.19-.65-.66-.92a3 3 0 0 0-1.6-.39zm4.06 7.28l1-2-.33-.19-2.3 1.19-1.45-.84 6-3.44 2.48 1.43a2.55 2.55 0 0 1 1 .84.85.85 0 0 1 .07.81 1.71 1.71 0 0 1-.73.7 3.36 3.36 0 0 1-1.46.43 4.08 4.08 0 0 1-1.67-.24l-.92 2.17zm1.6-2.81l.9.52a1.9 1.9 0 0 0 .83.26 1.53 1.53 0 0 0 .76-.21c.24-.14.35-.28.35-.44s-.15-.32-.43-.48l-.9-.52zm6.83 4.13l-.67 3.15-1.75-1 .63-2.72-2.67 1.55-1.45-.84 6-3.44 1.45.84-2.62 1.51 4.67-.33L117 87zM122 90.24a1.38 1.38 0 0 1 0 1.25 2.79 2.79 0 0 1-1.17 1.14 5.81 5.81 0 0 1-2 .68 7.24 7.24 0 0 1-2.18 0 5.59 5.59 0 0 1-1.92-.66 2.66 2.66 0 0 1-1.14-1.11 1.43 1.43 0 0 1 0-1.26 2.66 2.66 0 0 1 1.18-1.14 5.68 5.68 0 0 1 2-.68 6.93 6.93 0 0 1 2.18 0 5.52 5.52 0 0 1 1.92.65 2.7 2.7 0 0 1 1.13 1.13zm-4.08-.73a3.39 3.39 0 0 0-1.67.48c-.52.3-.8.62-.83 1s.2.65.67.92a2.93 2.93 0 0 0 1.59.38 3.42 3.42 0 0 0 1.67-.47c.52-.3.8-.62.83-1s-.19-.65-.67-.92a2.85 2.85 0 0 0-1.64-.39zm8.29 2.84l-3.44 2c-.39.22-.6.45-.63.67s.12.43.46.63a2.08 2.08 0 0 0 1.09.27 2.58 2.58 0 0 0 1.17-.37l3.43-2 1.45.83-3.43 2a5.27 5.27 0 0 1-1.75.63 5.52 5.52 0 0 1-1.77 0 5.21 5.21 0 0 1-1.59-.58 2.48 2.48 0 0 1-1-.9 1 1 0 0 1 0-1 2.7 2.7 0 0 1 1.11-1l3.44-2zm9.06 5.23l-1.15.67-1.62-.94-4.81 2.77-1.46-.84 4.77-2.78-1.61-.93 1.14-.66zm-.22 5.82a4.07 4.07 0 0 1-1.34-.05 4.39 4.39 0 0 1-1.38-.52 2.23 2.23 0 0 1-1.17-1.24c-.11-.44.11-.84.65-1.2l1.54.89c-.2.15-.3.29-.29.45s.13.29.34.42a1.24 1.24 0 0 0 .59.16 1 1 0 0 0 .57-.14c.15-.09.23-.19.23-.3a.65.65 0 0 0-.12-.36 5.85 5.85 0 0 0-.38-.48 5.51 5.51 0 0 1-.55-.76.81.81 0 0 1-.08-.66 1.28 1.28 0 0 1 .67-.69 2.77 2.77 0 0 1 1.19-.37 3.81 3.81 0 0 1 1.34.09 4.57 4.57 0 0 1 1.31.51c.66.38 1 .78 1.11 1.19s-.13.79-.63 1.13l-1.57-.9a.53.53 0 0 0 .26-.4c0-.13-.1-.25-.3-.37a1.17 1.17 0 0 0-.55-.16 1 1 0 0 0-.55.14.38.38 0 0 0-.22.29.59.59 0 0 0 .11.34c.08.12.21.28.38.49a4.36 4.36 0 0 1 .55.76.85.85 0 0 1 .08.68 1.35 1.35 0 0 1-.68.7 3.09 3.09 0 0 1-1.11.36z"/><path fill="#2834af" d="M105.09 53.91l-81.81 47.24v5.59l63.4 36.6 81.73-47.19v-5.59zm-19.42 85.38L26.28 105v-1l59.39 34.29zm-58.39-37l77.81-44.92 59.32 34.33-77.74 44.89zm60.39 36l77.74-44.88v1l-77.74 44.88z"/><path fill="#2834af" d="M83.17 87.1l37.29 21.54a1 1 0 1 0 1-1.74L84.17 85.37a1 1 0 0 0-1.37.37 1 1 0 0 0 .37 1.36zm-8.44-4.87L77.85 84a1 1 0 0 0 .49.13 1 1 0 0 0 .87-.5 1 1 0 0 0-.36-1.36l-3.12-1.8a1 1 0 1 0-1 1.73zm-12.99 7.5l3.12 1.8a1 1 0 0 0 1.37-.37 1 1 0 0 0-.37-1.36L62.74 88a1 1 0 0 0-1 1.74zm-6.13 3.53l3.12 1.8a.93.93 0 0 0 .5.14 1 1 0 0 0 .5-1.87l-3.12-1.8a1 1 0 0 0-1 1.73zm-8.86 7.57L43.63 99a1 1 0 1 0-1 1.73l3.12 1.8a1 1 0 0 0 1-1.73zm68.25 9.78L77.74 89.08a1 1 0 0 0-1 1.73L114 112.34a1 1 0 0 0 1-1.73zM70.18 94.6l37.29 21.53a1 1 0 0 0 .5.14 1 1 0 0 0 .5-1.87L71.18 92.87a1 1 0 0 0-1 1.73zm32.52 23.54L65.41 96.61a1 1 0 1 0-1 1.73l37.29 21.53a1 1 0 0 0 1.37-.36 1 1 0 0 0-.37-1.37zm-6.42 3.71L59 100.32a1 1 0 0 0-1.36.36 1 1 0 0 0 .36 1.37l37.3 21.53a1 1 0 0 0 .5.13 1 1 0 0 0 .86-.5 1 1 0 0 0-.38-1.36zm-7.07 5.65a1 1 0 0 0 .51-1.86l-37.3-21.53a1 1 0 0 0-1.36.36 1 1 0 0 0 .36 1.37l37.3 21.53a1 1 0 0 0 .49.13z"/></svg>