<svg xmlns="http://www.w3.org/2000/svg" viewBox="0 0 32 32"><path d="M23.7 10c-1 0-1.7-.8-1.7-1.7 0-1 .8-1.7 1.7-1.7 1 0 1.7.8 1.7 1.7.1.9-.7 1.7-1.7 1.7M16 11.2c-2.7 0-4.8 2.2-4.8 4.8s2.2 4.8 4.8 4.8c2.7 0 4.8-2.2 4.8-4.8s-2.1-4.8-4.8-4.8m0 12.2c-4.1 0-7.4-3.3-7.4-7.4 0-4.1 3.3-7.4 7.4-7.4 4.1 0 7.4 3.3 7.4 7.4 0 4.1-3.3 7.4-7.4 7.4M7.4 4.7c-.6.3-1.1.6-1.6 1.1-.5.5-.8 1-1.1 1.7-.8 1.9-.6 6.4-.6 8.5 0 2.1-.2 6.6.6 8.6.3.7.6 1.2 1.1 1.7.5.5 1 .8 1.7 1.1 1.9.8 6.4.6 8.5.6 2.1 0 6.6.2 8.6-.6.7-.3 1.2-.6 1.7-1.1.5-.5.8-1 1.1-1.7.8-1.9.6-6.4.6-8.6 0-2.1.2-6.6-.6-8.5-.3-.7-.6-1.2-1.1-1.7-.5-.5-1-.8-1.7-1.1-1.9-.8-6.4-.6-8.6-.6-2.1 0-6.6-.2-8.6.6m23 17.3c-.1 2.3-.6 4.4-2.3 6.1-1.7 1.7-3.8 2.2-6.1 2.3-2 .1-4 .1-6 .1s-4 0-6-.1c-2.3-.1-4.4-.6-6.1-2.3-1.7-1.7-2.2-3.8-2.3-6.1-.1-2-.1-4-.1-6s0-4 .1-6c.1-2.3.6-4.4 2.3-6.1C5.6 2.2 7.7 1.7 10 1.6c2-.1 4-.1 6-.1s4 0 6 .1c2.3.1 4.4.6 6.1 2.3 1.7 1.7 2.2 3.8 2.3 6.1.1 2 .1 4 .1 6s0 4-.1 6"/></svg>