<svg xmlns="http://www.w3.org/2000/svg" viewBox="0 0 32 32"><path d="M26.5 24.1l-2.4 2.4c-.3.4-.7.5-1.1.5-.4 0-.8-.1-1.1-.4l-3.4-3.4c-.3-.4-.5-.8-.5-1.2 0-.5.2-.9.5-1.2.5.5 1 1.2 1.9 1.2.9 0 1.6-.7 1.6-1.6 0-.8-.6-1.3-1.2-1.9.3-.3.7-.5 1.2-.5.4 0 .8.2 1.1.5l3.4 3.4c.3.3.5.7.5 1.1 0 .5-.2.9-.5 1.1m-12-11.9c-.5-.5-1-1.2-1.8-1.2-.9 0-1.6.7-1.6 1.6 0 .8.6 1.3 1.2 1.9-.4.3-.8.5-1.3.5-.4 0-.8-.1-1.1-.4l-3.4-3.4c-.3-.4-.5-.8-.5-1.2 0-.4.2-.8.5-1.1l2.4-2.4c.3-.3.7-.5 1.1-.5.4 0 .8.2 1.1.5l3.4 3.4c.3.3.5.7.5 1.1 0 .5-.2.9-.5 1.2m14.1 7.3L25.2 16c-.9-.9-2.1-1.4-3.4-1.4-1.3 0-2.5.5-3.4 1.5l-1.5-1.5c.9-.9 1.5-2.2 1.5-3.5 0-1.3-.5-2.5-1.4-3.4l-3.4-3.4c-.9-.8-2.1-1.3-3.4-1.3-1.3 0-2.5.5-3.4 1.4L4.4 6.8C3.5 7.7 3 8.9 3 10.1c0 1.3.5 2.5 1.4 3.4L7.8 17c.9.9 2.1 1.4 3.4 1.4 1.3 0 2.5-.5 3.4-1.5l1.5 1.5c-.9.9-1.5 2.2-1.5 3.5 0 1.3.5 2.5 1.4 3.4l3.4 3.4c.9.9 2.1 1.4 3.4 1.4 1.3 0 2.5-.5 3.4-1.4l2.4-2.4c.9-.9 1.4-2.1 1.4-3.4 0-1.3-.5-2.5-1.4-3.4"/></svg>