<svg xmlns="http://www.w3.org/2000/svg" viewBox="0 0 199.17 73.85"><path d="M110.33 2l-8.86 8.86 8.86 8.86 8.86-8.86zm0 23.11L101.47 34l8.86 8.86L119.2 34zm11.54-11.54L113 22.43l8.86 8.86 8.86-8.86zm-33.2 29.26L97.53 34l-8.86-8.86L79.8 34zm0-23.07l8.86-8.86L88.67 2l-8.87 8.9zM77.13 31.29L86 22.43l-8.86-8.86-8.86 8.86zM4.67 61.47a4.35 4.35 0 0 1 3.54-1.7C11.35 59.78 14 62.15 14 66c0 3.29-2.1 6.34-5.78 6.34a4.58 4.58 0 0 1-3.57-1.61V72H1.89V55.11h2.78zm-.17 4.65c0 2.49 1.61 3.77 3.37 3.77 2 0 3.31-1.73 3.31-3.79s-1.3-3.82-3.31-3.82c-1.76-.01-3.37 1.23-3.37 3.84zm15.36-11.01V72h-2.77V55.11zm12.22 4.98h2.78V72h-2.78v-1.24a4.58 4.58 0 0 1-3.57 1.61c-3.68 0-5.78-3.06-5.78-6.34 0-3.88 2.66-6.26 5.81-6.26a4.35 4.35 0 0 1 3.54 1.7zm-6.51 6c0 2.07 1.3 3.79 3.31 3.79 1.76 0 3.37-1.27 3.37-3.77s-1.61-3.85-3.37-3.85c-2.01.01-3.31 1.74-3.31 3.83zm21.75-2.35A4.68 4.68 0 0 0 44 62.27a3.57 3.57 0 0 0-2.63 1 3.81 3.81 0 0 0-1 2.75 4 4 0 0 0 1.08 2.86 3.61 3.61 0 0 0 2.52 1 4.65 4.65 0 0 0 3.43-1.53v3.09a6.53 6.53 0 0 1-3.62.93 5.81 5.81 0 0 1-4.53-1.76 6.2 6.2 0 0 1-1.7-4.47 6.37 6.37 0 0 1 1.81-4.62 6.47 6.47 0 0 1 4.79-1.76 6.4 6.4 0 0 1 3.26.85zm6.06-8.63v9l3.88-4h3.68l-5.13 5 5.49 7h-3.5l-3.91-5.1-.51.51V72h-2.77V55.11zm14.83 8.12a2 2 0 0 0-1.7-1 1.18 1.18 0 0 0-.85.31.9.9 0 0 0-.25.62.76.76 0 0 0 .4.68c.17.11.34.17.93.48l1.42.71a5.72 5.72 0 0 1 1.67 1.1 2.94 2.94 0 0 1 .88 2.21 4 4 0 0 1-1 2.72 4.26 4.26 0 0 1-3.34 1.33 4.1 4.1 0 0 1-2.58-.76 4.65 4.65 0 0 1-1.53-2.18l2.27-1.08a3.14 3.14 0 0 0 .65 1.13 1.7 1.7 0 0 0 1.22.45 1.67 1.67 0 0 0 1.13-.4 1.41 1.41 0 0 0 .4-.93 1.29 1.29 0 0 0-.37-.91 3.66 3.66 0 0 0-1.25-.71l-1-.48a5.88 5.88 0 0 1-1.64-1 2.6 2.6 0 0 1-.85-2 3.72 3.72 0 0 1 1-2.55 3.84 3.84 0 0 1 2.92-1.13 3.73 3.73 0 0 1 2.21.62 4.09 4.09 0 0 1 1.36 1.47zm9.36-.59V72H74.8v-9.36h-2.53v-2.55h2.53v-5h2.78v5h2.54v2.55zm16.52 3.42a6.37 6.37 0 1 1-6.37-6.29 6.19 6.19 0 0 1 6.37 6.29zm-2.83 0a3.55 3.55 0 1 0-7.08 0c0 2.29 1.36 3.79 3.54 3.79s3.54-1.47 3.54-3.76zm5.55-5.97h2.78v1.1a4.11 4.11 0 0 1 3.23-1.42 4 4 0 0 1 3.51 1.61 5.33 5.33 0 0 1 .74 3.31V72h-2.78v-6.62c0-3-1.13-3.12-2.18-3.12-1.25 0-2.52.17-2.52 4V72h-2.78zm24.19 9.2a6.25 6.25 0 0 1-2 2.18 6.56 6.56 0 0 1-3.51.91 5.29 5.29 0 0 1-4-1.53 6.4 6.4 0 0 1-1.76-4.56 7 7 0 0 1 1.9-4.9 5.43 5.43 0 0 1 4-1.61 5.13 5.13 0 0 1 3.82 1.56 7.16 7.16 0 0 1 1.67 5v.34h-8.55a3.94 3.94 0 0 0 1 2.41 2.84 2.84 0 0 0 2.12.76 2.92 2.92 0 0 0 1.9-.59 4.31 4.31 0 0 0 1.1-1.3zm-2.75-4.84a2.88 2.88 0 0 0-.85-1.61 2.89 2.89 0 0 0-3.82.08 3.12 3.12 0 0 0-.85 1.53zm12.39-4.36h2.78v1.1a3.67 3.67 0 0 1 2.95-1.42 3.5 3.5 0 0 1 3.09 1.76 4.22 4.22 0 0 1 3.54-1.75 3.82 3.82 0 0 1 3.4 1.87 5.87 5.87 0 0 1 .62 3V72h-2.78v-6.56a5.53 5.53 0 0 0-.25-2.12 1.57 1.57 0 0 0-1.59-1 2.05 2.05 0 0 0-1.64.88 4.84 4.84 0 0 0-.54 2.72V72h-2.78v-6.56a5.53 5.53 0 0 0-.25-2.12 1.57 1.57 0 0 0-1.59-1 2.05 2.05 0 0 0-1.64.88 4.84 4.84 0 0 0-.54 2.72V72h-2.78zm30.25 9.2a6.25 6.25 0 0 1-2 2.18 6.56 6.56 0 0 1-3.51.91 5.29 5.29 0 0 1-4-1.53 6.4 6.4 0 0 1-1.76-4.56 7 7 0 0 1 1.9-4.9 5.43 5.43 0 0 1 4-1.61 5.13 5.13 0 0 1 3.82 1.56 7.16 7.16 0 0 1 1.67 5v.34h-8.55a3.94 3.94 0 0 0 1 2.41 2.84 2.84 0 0 0 2.12.76 2.92 2.92 0 0 0 1.9-.59 4.31 4.31 0 0 0 1.1-1.3zm-2.75-4.84a2.88 2.88 0 0 0-.85-1.61 2.89 2.89 0 0 0-3.82.08 3.12 3.12 0 0 0-.85 1.53zm14.67-9.34h2.78V72h-2.78v-1.24a4.58 4.58 0 0 1-3.57 1.61c-3.68 0-5.78-3.06-5.78-6.34 0-3.88 2.66-6.26 5.81-6.26a4.35 4.35 0 0 1 3.54 1.7zm-6.51 11c0 2.07 1.3 3.79 3.31 3.79 1.76 0 3.37-1.27 3.37-3.77s-1.61-3.85-3.37-3.85c-2.01-.01-3.31 1.72-3.31 3.81zm14.52-12.74a1.78 1.78 0 1 1-1.82 1.79 1.74 1.74 0 0 1 1.82-1.79zm1.39 6.71V72h-2.78V60.09zm12.12.01h2.78V72h-2.78v-1.24a4.58 4.58 0 0 1-3.57 1.61c-3.68 0-5.78-3.06-5.78-6.34 0-3.88 2.66-6.26 5.81-6.26a4.35 4.35 0 0 1 3.54 1.7zm-6.51 6c0 2.07 1.3 3.79 3.31 3.79 1.76 0 3.37-1.27 3.37-3.77s-1.61-3.85-3.37-3.85c-2.01.01-3.31 1.74-3.31 3.83z"/></svg>