<svg xmlns="http://www.w3.org/2000/svg" viewBox="0 0 300.25 34.5"><path d="M33 1.95l-6.84 6.82L33 15.59l6.8-6.82zm0 17.76l-6.82 6.82L33 33.35l6.82-6.82zm8.86-8.88L35 17.65l6.82 6.82 6.82-6.82zM16.31 33.35l6.82-6.82-6.82-6.82-6.82 6.82zm0-17.76l6.82-6.82-6.82-6.82-6.82 6.82zm-8.88 8.88l6.82-6.82-6.82-6.82-6.82 6.82zm59.16-9.71a5.23 5.23 0 0 1 4.26-2c3.78 0 7 2.86 7 7.53 0 4-2.52 7.63-6.95 7.63a5.51 5.51 0 0 1-4.29-1.94v1.5h-3.35V7.1h3.34zm-.2 5.58c0 3 1.94 4.53 4.05 4.53 2.42 0 4-2.08 4-4.56s-1.57-4.6-4-4.6c-2.11 0-4.05 1.5-4.05 4.63zM84.87 7.1v20.33h-3.34V7.1zm14.69 5.99h3.34v14.34h-3.34v-1.5a5.51 5.51 0 0 1-4.29 1.94c-4.43 0-6.95-3.68-6.95-7.63 0-4.67 3.2-7.53 7-7.53a5.23 5.23 0 0 1 4.26 2zm-7.83 7.22c0 2.49 1.57 4.56 4 4.56 2.11 0 4.05-1.53 4.05-4.53s-1.94-4.63-4.05-4.63c-2.43 0-4 2.05-4 4.6zm26.16-2.83a5.63 5.63 0 0 0-4.05-1.77 4.29 4.29 0 0 0-3.17 1.29 4.58 4.58 0 0 0-1.23 3.3 4.75 4.75 0 0 0 1.29 3.44 4.34 4.34 0 0 0 3 1.16 5.59 5.59 0 0 0 4.16-1.9v3.71a7.85 7.85 0 0 1-4.36 1.12 7 7 0 0 1-5.45-2.11 7.45 7.45 0 0 1-2-5.38 7.66 7.66 0 0 1 2.18-5.55 7.78 7.78 0 0 1 5.74-2.07 7.7 7.7 0 0 1 3.92 1zm7.28-10.38v10.79l4.67-4.8h4.43l-6.16 6 6.61 8.38h-4.22l-4.7-6.13-.61.61v5.52h-3.34V7.1zM143 16.87a2.4 2.4 0 0 0-2-1.23 1.41 1.41 0 0 0-1 .37 1.08 1.08 0 0 0-.31.75.92.92 0 0 0 .48.82c.2.14.41.2 1.12.58l1.7.85a6.88 6.88 0 0 1 2 1.33A3.54 3.54 0 0 1 146 23a4.76 4.76 0 0 1-1.26 3.27 5.12 5.12 0 0 1-4 1.6 4.94 4.94 0 0 1-3.1-.92 5.59 5.59 0 0 1-1.84-2.62l2.7-1.33a3.77 3.77 0 0 0 .78 1.36 2 2 0 0 0 1.46.54 2 2 0 0 0 1.36-.48 1.69 1.69 0 0 0 .48-1.12 1.55 1.55 0 0 0-.44-1.09 4.4 4.4 0 0 0-1.43-.89l-1.23-.58a7.07 7.07 0 0 1-2-1.23 3.13 3.13 0 0 1-1-2.42 4.48 4.48 0 0 1 1.19-3.06 4.62 4.62 0 0 1 3.51-1.36 4.49 4.49 0 0 1 2.66.75 4.92 4.92 0 0 1 1.63 1.77zm11.26-.72v11.28h-3.34V16.15h-3v-3.06h3v-6h3.34v6h3.06v3.06zm19.86 4.13a7.66 7.66 0 0 1-15.32 0 7.66 7.66 0 0 1 15.32 0zm-3.41 0c0-3.27-2.15-4.6-4.26-4.6s-4.26 1.33-4.26 4.6c0 2.76 1.63 4.56 4.26 4.56s4.27-1.77 4.27-4.53zm6.68-7.19h3.34v1.33a4.94 4.94 0 0 1 3.88-1.7 4.79 4.79 0 0 1 4.22 1.94c.54.78.89 1.77.89 4v8.79h-3.34v-8c0-3.64-1.36-3.75-2.62-3.75-1.5 0-3 .2-3 4.84v6.88h-3.34zm29.06 11.07a7.52 7.52 0 0 1-2.45 2.62 7.89 7.89 0 0 1-4.22 1.09A6.36 6.36 0 0 1 195 26a7.7 7.7 0 0 1-2.11-5.48 8.4 8.4 0 0 1 2.28-5.89 6.53 6.53 0 0 1 4.8-1.94 6.17 6.17 0 0 1 4.6 1.87 8.61 8.61 0 0 1 2 6.06v.41h-10.3A4.74 4.74 0 0 0 197.5 24a3.41 3.41 0 0 0 2.55.92 3.51 3.51 0 0 0 2.28-.72 5.18 5.18 0 0 0 1.33-1.57zm-3.3-5.82a3.47 3.47 0 0 0-1-1.94 3.48 3.48 0 0 0-4.6.1 3.76 3.76 0 0 0-1 1.84zm14.92-5.25h3.34v1.33a4.42 4.42 0 0 1 3.54-1.7 4.21 4.21 0 0 1 3.71 2.11 5.08 5.08 0 0 1 4.26-2.11A4.59 4.59 0 0 1 237 15a7.06 7.06 0 0 1 .75 3.61v8.85h-3.34v-7.9a6.65 6.65 0 0 0-.31-2.55 1.89 1.89 0 0 0-1.91-1.26 2.47 2.47 0 0 0-2 1.06 5.82 5.82 0 0 0-.65 3.27v7.39h-3.34v-7.9a6.65 6.65 0 0 0-.31-2.55 1.89 1.89 0 0 0-1.89-1.31 2.47 2.47 0 0 0-2 1.06 5.82 5.82 0 0 0-.65 3.27v7.39h-3.34zm36.38 11.07a7.52 7.52 0 0 1-2.45 2.62 7.89 7.89 0 0 1-4.22 1.09A6.36 6.36 0 0 1 243 26a7.7 7.7 0 0 1-2.11-5.48 8.4 8.4 0 0 1 2.28-5.89 6.53 6.53 0 0 1 4.8-1.94 6.17 6.17 0 0 1 4.6 1.87 8.61 8.61 0 0 1 2 6.06v.41h-10.3a4.74 4.74 0 0 0 1.22 2.97 3.41 3.41 0 0 0 2.55.92 3.51 3.51 0 0 0 2.28-.72 5.18 5.18 0 0 0 1.33-1.57zm-3.3-5.82a3.47 3.47 0 0 0-1-1.94 3.48 3.48 0 0 0-4.6.1 3.76 3.76 0 0 0-1 1.84zM268.78 7.1h3.34v20.33h-3.34v-1.5a5.51 5.51 0 0 1-4.29 1.94c-4.43 0-6.95-3.68-6.95-7.63 0-4.67 3.2-7.53 7-7.53a5.23 5.23 0 0 1 4.26 2zm-7.83 13.21c0 2.49 1.57 4.56 4 4.56 2.11 0 4.05-1.53 4.05-4.53s-1.94-4.63-4.05-4.63c-2.44 0-4 2.05-4 4.6zM278.42 5a2.09 2.09 0 0 1 2.15 2.15 2.15 2.15 0 0 1-4.29 0A2.09 2.09 0 0 1 278.42 5zm1.67 8.07v14.36h-3.34V13.09zm14.57.02H298v14.34h-3.34v-1.5a5.51 5.51 0 0 1-4.29 1.94c-4.43 0-6.95-3.68-6.95-7.63 0-4.67 3.2-7.53 7-7.53a5.23 5.23 0 0 1 4.26 2zm-7.83 7.22c0 2.49 1.57 4.56 4 4.56 2.11 0 4.05-1.53 4.05-4.53s-1.94-4.63-4.05-4.63c-2.43 0-4 2.05-4 4.6z"/></svg>