<svg xmlns="http://www.w3.org/2000/svg" viewBox="0 0 512 512"><path d="M117.1 454.6h275.5v-78.1H117.1v78.1zm0-197.5h275.5V137.8h-48.2c-9.2 0-16.1-2.3-20.7-9.2-4.6-6.9-9.2-13.8-9.2-20.7V59.7H117.1v197.4zm349 32.2c4.6-4.6 6.9-9.2 6.9-13.8 0-4.6-2.3-9.2-6.9-13.8-4.6-4.6-9.2-6.9-13.8-6.9s-9.2 2.3-13.8 6.9c-4.6 4.6-6.9 9.2-6.9 13.8 0 4.6 2.3 9.2 6.9 13.8 4.6 4.6 9.2 6.9 13.8 6.9s9.2-2.3 13.8-6.9zm45.9-13.8v128.6c0 2.3 0 4.6-2.3 6.9-2.3 2.3-4.6 2.3-6.9 2.3h-68.9v48.2c0 9.2-2.3 16.1-9.2 20.7-6.9 4.6-13.8 9.2-20.7 9.2H107.9c-9.2 0-16.1-2.3-20.7-9.2-4.6-6.9-9.2-13.8-9.2-20.7v-48.2H9.2c-2.3 0-4.6 0-6.9-2.3-2.3-2.3-2.3-4.6-2.3-6.9V275.5c0-16.1 6.9-29.8 18.4-41.3 11.5-11.5 25.3-18.4 41.3-18.4h20.7V50.5c0-9.2 2.3-16.1 9.2-20.7 6.9-4.6 11.5-9.2 18.4-9.2h206.6c9.2 0 16.1 2.3 27.6 6.9s18.4 9.2 23 13.8L411 87.2c6.9 6.9 11.5 13.8 13.8 23 4.6 9.2 6.9 18.4 6.9 27.6v78.1h20.7c16.1 0 29.8 6.9 41.3 18.4 11.4 11.4 18.3 25.1 18.3 41.2z"/></svg>