<svg xmlns="http://www.w3.org/2000/svg" viewBox="0 0 512 512"><path d="M63.7 212.3c.8 22.1 5 41.8 12.5 59.3 7.5 17.9 18.3 33.9 32.5 48.1s30.2 25 48.1 32.5c17.5 7.5 37.3 11.7 59.3 12.5 20.4-.8 39.8-5 58.1-12.5 20-8.3 36-19.1 48.1-32.5 13.7-15 24.6-31 32.5-48.1 7.5-16.2 11.2-34.1 11.2-53.7v-11.2c0-17.9-3.7-35.4-11.2-52.4-8.3-18.7-19.1-34.8-32.5-48.1C309 92.9 293 82.1 274.2 73.7c-17.1-7.5-34.5-11.2-52.4-11.2h-11.2c-19.6 0-37.5 3.7-53.7 11.2-17.1 7.9-33.1 18.7-48.1 32.5-13.3 12.1-24.1 28.1-32.5 48.1-7.6 18.2-11.8 37.6-12.6 58zM464.5 512L338.4 387.1l-27.5 15.6-30 12.5-31.8 7.5-34.3 1.9h-5.6c-25.4 0-50.8-5.4-76.2-16.2-26.2-11.7-48.7-26.8-67.4-45.6-18.8-18.8-34-41.2-45.6-67.5-10.8-25.4-16.3-50.7-16.3-76.1v-11.9c0-26.2 5.4-51.8 16.2-76.8 11.7-24.6 26.8-47 45.6-67.4 19.1-19.6 41.6-34.8 67.4-45.6C160.1 6.7 187.3.8 214.8 0c29.1.8 56.8 6.7 83 17.5 25.4 10.8 47.9 26 67.4 45.6 19.6 19.6 34.8 42 45.6 67.4 10.8 26.2 16.7 53.9 17.5 83-.8 11.7-2.1 23.5-3.7 35.6-1.7 13.3-4.6 24.8-8.7 34.3-5 12.9-9.8 23.5-14.4 31.8-5 10.4-11.4 19.8-19.4 28.1l126.1 126.1-43.7 42.6z"/></svg>