<?xml version="1.0" encoding="utf-8"?>
<svg xmlns="http://www.w3.org/2000/svg">
<symbol id="arrow-down" viewBox="0 0 512 512"><path d="M503.1 264.9L256 512 8.9 264.9l23.5-24.6 206.8 206.8V0h33.5v447.2l206.8-206.8 23.6 24.5z"/>
</symbol>
<symbol id="arrow-left" viewBox="0 0 512 512"><path d="M512 272.8H67l213.8 213.8-25.4 25.4L0 255.4 255.4 0l25.4 24.3L67 238.1h445v34.7z"/>
</symbol>
<symbol id="arrow-right" viewBox="0 0 512 512"><path d="M512 256L256.6 511.4l-25.4-24.3 213.8-215-445 1.2v-35.8l445 1.2-213.8-215L256.6.6 512 254.8v1.2z"/>
</symbol>
<symbol id="arrow-up" viewBox="0 0 512 512"><path d="M479.6 271.7L272.8 64.8V512h-33.5V64.8L32.4 271.7 8.9 247.1 256 0l247.1 247.1-23.5 24.6z"/>
</symbol>
<symbol id="chevron-down" viewBox="0 0 512 512"><path d="M512 138.8l-256 256-256-256 23.8-21.6L256 348.4l232.2-231.2 23.8 21.6z"/>
</symbol>
<symbol id="chevron-left" viewBox="0 0 512 512"><path d="M162.9 255.5l232.7 232.7-22.7 23.8-256.5-256.5L372.9 0l22.7 22.7-232.7 232.8z"/>
</symbol>
<symbol id="chevron-right" viewBox="0 0 512 512"><path d="M395.6 255.5L139.1 512l-22.7-23.8 232.7-232.7L116.4 22.7 139.1 0l256.5 255.5z"/>
</symbol>
<symbol id="chevron-up" viewBox="0 0 512 512"><path d="M512 372.7l-22.7 22.7L256 163.1 24.8 395.3 0 372.7l257.1-256 254.9 256z"/>
</symbol>
<symbol id="close" viewBox="0 0 512 512"><path d="M300.5 256.1l202-202.8c6.2-5.5 9.7-13.5 9.5-21.9.2-8.4-3.1-16.4-9.1-22.3-5.8-6-13.9-9.3-22.3-9.2-8.3-.2-16.3 3.3-21.8 9.6L256 211.5 53.2 9.6C47.7 3.4 39.7-.1 31.4 0 23.1-.1 15 3.2 9.2 9.2 3.2 15-.1 23.1 0 31.5c-.2 8.3 3.3 16.3 9.5 21.9l201.9 202.7L9.5 458.8c-6.2 5.5-9.7 13.5-9.5 21.8 0 8.8 3 16.2 9.1 22.3 6.1 6.1 13.5 9.2 22.3 9.2 8.3.2 16.3-3.3 21.8-9.6L256 299.8l202.8 202.8c5.5 6.2 13.5 9.7 21.8 9.5 8.4.2 16.4-3.2 22.3-9.2 6-5.8 9.3-13.9 9.2-22.3.2-8.3-3.3-16.3-9.5-21.8L300.5 256.1z"/>
</symbol>
<symbol id="email" viewBox="0 0 512 512"><path d="M461.5 153.8v-51.7L256 230.8 50.5 102.2v51.7L256 281.2l205.5-127.4zm0-103.3c14 0 25.8 5.1 35.7 15.4C507 76.2 512 88.3 512 102.2v307.7c0 14-4.9 26-14.8 36.3-9.8 10.3-21.7 15.4-35.7 15.4h-411c-14 0-25.8-5.1-35.7-15.4C5.2 436.5-.1 423.4 0 409.8V102.2c0-14 4.9-26 14.8-36.3s21.7-15.4 35.7-15.4h411z"/>
</symbol>
<symbol id="facebook" viewBox="0 0 448 512"><path d="M448 56.7v398.5c0 13.7-11.1 24.7-24.7 24.7H309.1V306.5h58.2l8.7-67.6h-67v-43.2c0-19.6 5.4-32.9 33.5-32.9h35.8v-60.5c-6.2-.8-27.4-2.7-52.2-2.7-51.6 0-87 31.5-87 89.4v49.9h-58.4v67.6h58.4V480H24.7C11.1 480 0 468.9 0 455.3V56.7C0 43.1 11.1 32 24.7 32h398.5c13.7 0 24.8 11.1 24.8 24.7z"/>
</symbol>
<symbol id="hamburger" viewBox="0 0 512 512"><path d="M0 426.7v-57.3h512v57.3H0zM0 284v-56h512v56H0zM0 85.3h512v57.3H0V85.3z"/>
</symbol>
<symbol id="instagram" viewBox="0 0 448 512"><path d="M224.1 141c-63.6 0-114.9 51.3-114.9 114.9s51.3 114.9 114.9 114.9S339 319.5 339 255.9 287.7 141 224.1 141zm0 189.6c-41.1 0-74.7-33.5-74.7-74.7s33.5-74.7 74.7-74.7 74.7 33.5 74.7 74.7-33.6 74.7-74.7 74.7zm146.4-194.3c0 14.9-12 26.8-26.8 26.8-14.9 0-26.8-12-26.8-26.8s12-26.8 26.8-26.8 26.8 12 26.8 26.8zm76.1 27.2c-1.7-35.9-9.9-67.7-36.2-93.9-26.2-26.2-58-34.4-93.9-36.2-37-2.1-147.9-2.1-184.9 0-35.8 1.7-67.6 9.9-93.9 36.1s-34.4 58-36.2 93.9c-2.1 37-2.1 147.9 0 184.9 1.7 35.9 9.9 67.7 36.2 93.9s58 34.4 93.9 36.2c37 2.1 147.9 2.1 184.9 0 35.9-1.7 67.7-9.9 93.9-36.2 26.2-26.2 34.4-58 36.2-93.9 2.1-37 2.1-147.8 0-184.8zM398.8 388c-7.8 19.6-22.9 34.7-42.6 42.6-29.5 11.7-99.5 9-132.1 9s-102.7 2.6-132.1-9c-19.6-7.8-34.7-22.9-42.6-42.6-11.7-29.5-9-99.5-9-132.1s-2.6-102.7 9-132.1c7.8-19.6 22.9-34.7 42.6-42.6 29.5-11.7 99.5-9 132.1-9s102.7-2.6 132.1 9c19.6 7.8 34.7 22.9 42.6 42.6 11.7 29.5 9 99.5 9 132.1s2.7 102.7-9 132.1z"/>
</symbol>
<symbol id="linkedin" viewBox="0 0 448 512"><path d="M416 32H31.9C14.3 32 0 46.5 0 64.3v383.4C0 465.5 14.3 480 31.9 480H416c17.6 0 32-14.5 32-32.3V64.3c0-17.8-14.4-32.3-32-32.3zM135.4 416H69V202.2h66.5V416zm-33.2-243c-21.3 0-38.5-17.3-38.5-38.5S80.9 96 102.2 96c21.2 0 38.5 17.3 38.5 38.5 0 21.3-17.2 38.5-38.5 38.5zm282.1 243h-66.4V312c0-24.8-.5-56.7-34.5-56.7-34.6 0-39.9 27-39.9 54.9V416h-66.4V202.2h63.7v29.2h.9c8.9-16.8 30.6-34.5 62.9-34.5 67.2 0 79.7 44.3 79.7 101.9V416z"/>
</symbol>
<symbol id="minus" viewBox="0 0 512 512"><path d="M512 197.4v117.2H0V197.4h512z"/>
</symbol>
<symbol id="plus" viewBox="0 0 512 512"><path d="M313.1 197.5h196v114.1h-196V512H198.9V311.6H2.9V197.5h196V0H313v197.5z"/>
</symbol>
<symbol id="print" viewBox="0 0 512 512"><path d="M117.1 454.6h275.5v-78.1H117.1v78.1zm0-197.5h275.5V137.8h-48.2c-9.2 0-16.1-2.3-20.7-9.2-4.6-6.9-9.2-13.8-9.2-20.7V59.7H117.1v197.4zm349 32.2c4.6-4.6 6.9-9.2 6.9-13.8 0-4.6-2.3-9.2-6.9-13.8-4.6-4.6-9.2-6.9-13.8-6.9s-9.2 2.3-13.8 6.9c-4.6 4.6-6.9 9.2-6.9 13.8 0 4.6 2.3 9.2 6.9 13.8 4.6 4.6 9.2 6.9 13.8 6.9s9.2-2.3 13.8-6.9zm45.9-13.8v128.6c0 2.3 0 4.6-2.3 6.9-2.3 2.3-4.6 2.3-6.9 2.3h-68.9v48.2c0 9.2-2.3 16.1-9.2 20.7-6.9 4.6-13.8 9.2-20.7 9.2H107.9c-9.2 0-16.1-2.3-20.7-9.2-4.6-6.9-9.2-13.8-9.2-20.7v-48.2H9.2c-2.3 0-4.6 0-6.9-2.3-2.3-2.3-2.3-4.6-2.3-6.9V275.5c0-16.1 6.9-29.8 18.4-41.3 11.5-11.5 25.3-18.4 41.3-18.4h20.7V50.5c0-9.2 2.3-16.1 9.2-20.7 6.9-4.6 11.5-9.2 18.4-9.2h206.6c9.2 0 16.1 2.3 27.6 6.9s18.4 9.2 23 13.8L411 87.2c6.9 6.9 11.5 13.8 13.8 23 4.6 9.2 6.9 18.4 6.9 27.6v78.1h20.7c16.1 0 29.8 6.9 41.3 18.4 11.4 11.4 18.3 25.1 18.3 41.2z"/>
</symbol>
<symbol id="rss" viewBox="0 0 448 512"><path d="M128.081 415.959c0 35.369-28.672 64.041-64.041 64.041S0 451.328 0 415.959s28.672-64.041 64.041-64.041 64.04 28.673 64.04 64.041zm175.66 47.25c-8.354-154.6-132.185-278.587-286.95-286.95C7.656 175.765 0 183.105 0 192.253v48.069c0 8.415 6.49 15.472 14.887 16.018 111.832 7.284 201.473 96.702 208.772 208.772.547 8.397 7.604 14.887 16.018 14.887h48.069c9.149.001 16.489-7.655 15.995-16.79zm144.249.288C439.596 229.677 251.465 40.445 16.503 32.01 7.473 31.686 0 38.981 0 48.016v48.068c0 8.625 6.835 15.645 15.453 15.999 191.179 7.839 344.627 161.316 352.465 352.465.353 8.618 7.373 15.453 15.999 15.453h48.068c9.034-.001 16.329-7.474 16.005-16.504z"/>
</symbol>
<symbol id="search" viewBox="0 0 512 512"><path d="M63.7 212.3c.8 22.1 5 41.8 12.5 59.3 7.5 17.9 18.3 33.9 32.5 48.1s30.2 25 48.1 32.5c17.5 7.5 37.3 11.7 59.3 12.5 20.4-.8 39.8-5 58.1-12.5 20-8.3 36-19.1 48.1-32.5 13.7-15 24.6-31 32.5-48.1 7.5-16.2 11.2-34.1 11.2-53.7v-11.2c0-17.9-3.7-35.4-11.2-52.4-8.3-18.7-19.1-34.8-32.5-48.1C309 92.9 293 82.1 274.2 73.7c-17.1-7.5-34.5-11.2-52.4-11.2h-11.2c-19.6 0-37.5 3.7-53.7 11.2-17.1 7.9-33.1 18.7-48.1 32.5-13.3 12.1-24.1 28.1-32.5 48.1-7.6 18.2-11.8 37.6-12.6 58zM464.5 512L338.4 387.1l-27.5 15.6-30 12.5-31.8 7.5-34.3 1.9h-5.6c-25.4 0-50.8-5.4-76.2-16.2-26.2-11.7-48.7-26.8-67.4-45.6-18.8-18.8-34-41.2-45.6-67.5-10.8-25.4-16.3-50.7-16.3-76.1v-11.9c0-26.2 5.4-51.8 16.2-76.8 11.7-24.6 26.8-47 45.6-67.4 19.1-19.6 41.6-34.8 67.4-45.6C160.1 6.7 187.3.8 214.8 0c29.1.8 56.8 6.7 83 17.5 25.4 10.8 47.9 26 67.4 45.6 19.6 19.6 34.8 42 45.6 67.4 10.8 26.2 16.7 53.9 17.5 83-.8 11.7-2.1 23.5-3.7 35.6-1.7 13.3-4.6 24.8-8.7 34.3-5 12.9-9.8 23.5-14.4 31.8-5 10.4-11.4 19.8-19.4 28.1l126.1 126.1-43.7 42.6z"/>
</symbol>
<symbol id="twitter" viewBox="0 0 512 512"><path d="M459.37 151.716c.325 4.548.325 9.097.325 13.645 0 138.72-105.583 298.558-298.558 298.558-59.452 0-114.68-17.219-161.137-47.106 8.447.974 16.568 1.299 25.34 1.299 49.055 0 94.213-16.568 130.274-44.832-46.132-.975-84.792-31.188-98.112-72.772 6.498.974 12.995 1.624 19.818 1.624 9.421 0 18.843-1.3 27.614-3.573-48.081-9.747-84.143-51.98-84.143-102.985v-1.299c13.969 7.797 30.214 12.67 47.431 13.319-28.264-18.843-46.781-51.005-46.781-87.391 0-19.492 5.197-37.36 14.294-52.954 51.655 63.675 129.3 105.258 216.365 109.807-1.624-7.797-2.599-15.918-2.599-24.04 0-57.828 46.782-104.934 104.934-104.934 30.213 0 57.502 12.67 76.67 33.137 23.715-4.548 46.456-13.32 66.599-25.34-7.798 24.366-24.366 44.833-46.132 57.827 21.117-2.273 41.584-8.122 60.426-16.243-14.292 20.791-32.161 39.308-52.628 54.253z"/>
</symbol>
<symbol id="youtube" viewBox="0 0 576 512"><path d="M549.655 124.083c-6.281-23.65-24.787-42.276-48.284-48.597C458.781 64 288 64 288 64S117.22 64 74.629 75.486c-23.497 6.322-42.003 24.947-48.284 48.597-11.412 42.867-11.412 132.305-11.412 132.305s0 89.438 11.412 132.305c6.281 23.65 24.787 41.5 48.284 47.821C117.22 448 288 448 288 448s170.78 0 213.371-11.486c23.497-6.321 42.003-24.171 48.284-47.821 11.412-42.867 11.412-132.305 11.412-132.305s0-89.438-11.412-132.305zm-317.51 213.508V175.185l142.739 81.205-142.739 81.201z"/>
</symbol></svg>