<?xml version="1.0" encoding="utf-8"?>
<svg xmlns="http://www.w3.org/2000/svg">
<symbol id="adk" viewBox="0 0 345.4 124"><path d="M127.7 120.5V3h42.6c13.7 0 25.6 4.7 35 13.6 9.5 8.9 14.2 20.7 14.2 34.8v21.2c0 14.1-4.7 25.9-14.2 34.8-9.5 8.9-20.8 13.6-35 13.6h-42.6v-.5zm28-96.4v75.7H169c7.1 0 13.3-2.4 17-7.5 4.3-5.2 6.2-11.8 6.2-19.8V51.4c0-8-1.9-14.6-6.2-19.8-4.3-5.2-9.9-7.5-17-7.5h-13.3z"/><path class="st0" d="M276.8 73.8h-12.5V121h-26.9V3h26.9v46.3h9.2L299.1 3h33.4l-35.8 53.3 39 64.7h-32.9zM76.7 3h-29l-38 118h27.2l24.8-86.4h.5L87.5 121h27.1z"/>
</symbol>
<symbol id="calendar" viewBox="0 0 32 32"><path d="M29.4 5.9c-.4-.4-.9-.6-1.5-.6h-2.1V3.7c0-.7-.3-1.4-.8-1.9-.4-.5-1-.8-1.7-.8h-1c-.7 0-1.3.3-1.8.8s-.8 1.2-.8 1.9v1.6h-6.2V3.7A2.732 2.732 0 0 0 10.8 1h-1c-.8 0-1.4.3-1.9.8s-.7 1.1-.7 1.9v1.6H5.1c-.6 0-1 .2-1.5.6-.4.4-.6.9-.6 1.5v21.4c0 .6.2 1.1.6 1.5.4.5.9.7 1.5.7h22.8c.6 0 1-.2 1.5-.6.4-.4.6-.9.6-1.5V7.4c0-.6-.2-1.1-.6-1.5zm-7.7-2.2c0-.2 0-.3.1-.4s.2-.2.4-.2h1c.2 0 .3.1.4.2.1.1.1.2.1.4v4.8c0 .2 0 .3-.1.4-.1.1-.2.1-.4.1h-1c-.2 0-.3-.1-.4-.2-.1-.1-.1-.2-.1-.4V3.7zm-12.5 0c0-.2 0-.3.1-.4s.2-.2.4-.2h1c.2 0 .3.1.4.2.1.1.1.2.1.4v4.8c0 .2 0 .3-.1.4 0 .1-.2.1-.3.1h-1c-.2 0-.3 0-.4-.1-.1-.1-.2-.2-.2-.4V3.7zm18.7 25.2H5.1V11.7h22.8v17.2z"/>
</symbol>
<symbol id="check" viewBox="0 0 32 32"><path d="M29.3 8.5L26.9 6c-.3-.3-.8-.5-1.2-.5s-.9.2-1.2.5L12.8 17.8l-5.2-5.3c-.4-.3-.8-.5-1.3-.5s-.9.2-1.2.5l-2.4 2.4c-.3.3-.5.8-.5 1.2 0 .4.2.9.5 1.2l8.9 8.9c.3.3.8.5 1.2.5s.9-.2 1.2-.5l15.4-15.4c.3-.3.5-.8.5-1.2-.1-.4-.2-.8-.6-1.1z"/>
</symbol>
<symbol id="chevron-double-down" viewBox="0 0 32 32"><path d="M15.5 19c-.2 0-.5-.1-.7-.3l-14-14C.6 4.5.5 4.2.5 4c0-.2.1-.5.3-.7l1.5-1.5c.2-.2.5-.3.7-.3s.5.1.7.3l11.8 11.8L27.3 1.8c.2-.2.5-.3.7-.3s.5.1.7.3l1.5 1.5c.2.2.3.5.3.7 0 .2-.1.5-.3.7l-14 14c-.2.2-.4.3-.7.3zm0 11.5c-.2 0-.5-.1-.7-.3l-14-14c-.2-.2-.3-.5-.3-.7s.1-.5.3-.7l1.5-1.5c.2-.2.5-.3.7-.3s.5.1.7.3l11.8 11.8 11.8-11.8c.2-.2.5-.3.7-.3s.5.1.7.3l1.5 1.5c.2.2.3.5.3.7s-.1.5-.3.7l-14 14c-.2.2-.4.3-.7.3z"/>
</symbol>
<symbol id="chevron-left" viewBox="0 0 32 32"><path d="M21 31l4.8-4.8L15.6 16 25.8 5.8 21 1 6 16z"/>
</symbol>
<symbol id="chevron-right" viewBox="0 0 32 32"><path d="M10.8 31L6 26.2 16.2 16 6 5.8 10.8 1l15 15z"/>
</symbol>
<symbol id="diamond-outline" viewBox="0 0 32 32"><path d="M16 11.8L11.8 16l4.2 4.2 4.2-4.2-4.2-4.2zm0-5.7l9.9 9.9-9.9 9.9L6.1 16 16 6.1z"/>
</symbol>
<symbol id="diamond" viewBox="0 0 32 32"><path d="M16 6.1l9.9 9.9-9.9 9.9L6.1 16 16 6.1z"/>
</symbol>
<symbol id="envelope" viewBox="0 0 32 32"><path d="M3.9 11.2C2.7 10.4 1 8.5 1 7c0-1.6.9-3 2.7-3h24.4c1.4 0 2.7 1.2 2.7 2.7 0 1.9-1.4 3.5-2.8 4.5l-7.8 5.4c-1.1.7-2.9 2.3-4.2 2.3-1.3 0-3.2-1.5-4.2-2.3C9 14.8 6.4 13 3.9 11.2zm16.9 7.5c2.7-2 5.5-3.8 8.3-5.7.6-.4 1.2-.9 1.7-1.4v13.2c0 1.5-1.2 2.7-2.7 2.7H3.7c-1.5 0-2.7-1.2-2.7-2.7V11.5c.5.5 1.1 1 1.7 1.4 2.8 1.9 5.5 3.7 8.2 5.7 1.4 1 3.1 2.3 4.9 2.3 1.9.1 3.6-1.2 5-2.2z"/>
</symbol>
<symbol id="facebook" viewBox="0 0 32 32"><path d="M18.2 12.6h3.9l-.5 3.9h-3.4v11.6h-5V16.5h-2.7v-3.9h2.7V10c0-1.7.4-3 1.3-3.8s2.3-1.3 4.2-1.3h3.4v3.9H20c-.8 0-1.3.1-1.5.4s-.3.6-.3 1.2v2.2z"/>
</symbol>
<symbol id="i-integrity" viewBox="0 0 191.49 196.21"><path fill="#a8ffff" d="M164.72 85.79L145.44 74.7a1.56 1.56 0 0 1 .9-1.22 4.38 4.38 0 0 1 2.19-.52h.31a12.31 12.31 0 0 0 6-1.34h.07c3.14-1.81 3.13-4.76 0-6.59a11.84 11.84 0 0 0-5.75-1.37 11.62 11.62 0 0 0-5.67 1.35h-.07a4.08 4.08 0 0 0-2.33 3.47 1.46 1.46 0 0 1-.89 1.45 4.39 4.39 0 0 1-2.11.52l-19.17-11.06-19.07 11a1.46 1.46 0 0 0 .89 1.4 4.5 4.5 0 0 0 2.2.52h.3a12.31 12.31 0 0 1 6 1.35h.07c1.57.91 2.35 2.09 2.35 3.28s-.79 2.4-2.38 3.31a12.59 12.59 0 0 1-11.42 0h-.07a4.11 4.11 0 0 1-2.33-3.48 1.44 1.44 0 0 0-.89-1.44 4.55 4.55 0 0 0-2.41-.51l-19 11L54 96.9a4.39 4.39 0 0 1-2.11-.52 1.46 1.46 0 0 1-.89-1.45 4.08 4.08 0 0 0-2.33-3.47h-.07A11.62 11.62 0 0 0 42.87 90a11.84 11.84 0 0 0-5.75 1.37c-1.61.93-2.4 2.16-2.37 3.37A4 4 0 0 0 37.09 98h.07a12.31 12.31 0 0 0 6 1.34h.31a4.38 4.38 0 0 1 2.19.52 1.56 1.56 0 0 1 .9 1.22l-19.21 11.16v.06c0 .06 0 0 0 0l19.15 11a4.61 4.61 0 0 0 2.42-.52 1.44 1.44 0 0 0 .89-1.44 4.11 4.11 0 0 1 2.33-3.48h.07a12.59 12.59 0 0 1 11.42 0c1.59.91 2.38 2.11 2.38 3.31s-.78 2.37-2.35 3.28h-.07a12.31 12.31 0 0 1-6 1.35h-.3a4.5 4.5 0 0 0-2.2.52 1.46 1.46 0 0 0-.89 1.4l18.94 10.94 19.2-11.08a5.63 5.63 0 0 1 .58 0 4.53 4.53 0 0 1 2.2.52 1.45 1.45 0 0 1 .88 1.5 4.11 4.11 0 0 0 2.33 3.48h.08a11.52 11.52 0 0 0 5.67 1.36 11.69 11.69 0 0 0 5.74-1.38 4.19 4.19 0 0 0 2.35-3 1.94 1.94 0 0 0 0-.68 4.24 4.24 0 0 0-2.31-2.89h-.08a12.26 12.26 0 0 0-6-1.35h-.3a4.53 4.53 0 0 1-2.2-.52c-.75-.43-1-1-.85-1.6l7.09-4.07 11.43-6.57v-.07l18.92-10.93a1.46 1.46 0 0 0-.89-1.4 4.5 4.5 0 0 0-2.2-.52h-.3a12.31 12.31 0 0 1-6-1.35h-.07c-1.57-.91-2.35-2.09-2.35-3.28s.79-2.4 2.38-3.31a12.59 12.59 0 0 1 11.42 0h.07a4.11 4.11 0 0 1 2.33 3.48 1.44 1.44 0 0 0 .89 1.44 4.63 4.63 0 0 0 2.43.52l19.16-11a.06.06 0 0 0-.02-.17z"/><path fill="#2834af" d="M166.35 78a1.93 1.93 0 0 0-.43-1.09l-.14-.14-6.59-3.92V61.11c.05-1.82-1.09-3.53-3.13-4.71a13.26 13.26 0 0 0-6.49-1.57 14 14 0 0 0-6.67 1.55l-.14.09a5.53 5.53 0 0 0-3 4.77l-.12.09h-.06a2.62 2.62 0 0 1-1 .3l-18.78-10.8-.75-.43-20.49 11.83-.22 2.27h.14V71c-1.28-.78-1.32-1.08-1.38-1.52a4 4 0 0 0-1.81-2.74 5.59 5.59 0 0 0-3-.64h-.59l-.27.28-18.68 10.71-1 .64-8.8 5.08-9.2 5.31a2.8 2.8 0 0 1-1-.3.31.31 0 0 1-.12-.09 5.53 5.53 0 0 0-3-4.78l-.11-.08A13.09 13.09 0 0 0 43 81.28a13.33 13.33 0 0 0-6.5 1.57c-2 1.17-3.17 2.89-3.12 4.67l.15 11.53-6.67 3.81-.66.23-.39 1.65.15.15v14.17l20.18 11.65h.31a3.1 3.1 0 0 0 .43 0 5.84 5.84 0 0 0 2.86-.68l.12-.06a2.92 2.92 0 0 0 1.64-2.84 2.56 2.56 0 0 1 1.33-1.92v9.3l20.44 11.8 19.65-11.34a3.26 3.26 0 0 1 1.5.27l.11.07.14.09a5.6 5.6 0 0 0 3.15 4.86c1.91 1.11 4.71 1.25 6.94 1.25a13.15 13.15 0 0 0 6.49-1.58c2.06-1.2 3.19-2.94 3.1-4.7V122.7l5.47-3.15.76-.45 18.92-10.93v-.8a3.23 3.23 0 0 0 0-.44v-8.07a2.57 2.57 0 0 1 1.33 1.93 2.93 2.93 0 0 0 1.69 2.86 5.89 5.89 0 0 0 2.93.72 3.1 3.1 0 0 0 .43 0h.31l20.18-11.65V78.57a3.25 3.25 0 0 0 0-.54zm-25.94 5.31a13.52 13.52 0 0 0-12.41 0c-1.86 1.07-2.89 2.55-2.89 4.18s1 3.08 2.93 4.19a13 13 0 0 0 6.51 1.48h.3a3.57 3.57 0 0 1 1.75.41l.14.09-17.66 10.21-18.56-10.71-.23-.12-.13-.07-.16.03a5.32 5.32 0 0 0-.69 0 5.48 5.48 0 0 0-2.72.67A2.44 2.44 0 0 0 95.14 96a3.19 3.19 0 0 1-1.77 2.51l-.14.07a10.57 10.57 0 0 1-5.17 1.22 12.36 12.36 0 0 1-2.54-.27 8.49 8.49 0 0 1-2.19-.87 3.08 3.08 0 0 1-1.87-2.44c0-.87.65-1.72 1.92-2.45a11.19 11.19 0 0 1 5.52-1.22h.1a5.31 5.31 0 0 0 2.84-.62h.1A2.65 2.65 0 0 0 93.32 90a.34.34 0 0 0 0-.1v-.31a.34.34 0 0 0 0-.1v-.51l-17.6-10.13 17-9.77h.16a2.09 2.09 0 0 1 1 .26 1.24 1.24 0 0 1 .29.5c.22 1.72 1.14 2.68 2.7 3.64.23.16.46.32.71.47a13.51 13.51 0 0 0 12.42 0c1.86-1.06 2.88-2.55 2.88-4.18s-1-3.08-2.92-4.19a13.11 13.11 0 0 0-6.29-1.48h-.53a3.69 3.69 0 0 1-1.32-.25l17.27-10c18.68 10.8 18.75 10.83 19.17 10.83A5.75 5.75 0 0 0 141 64l.09-.05a3 3 0 0 0 1.63-2.84 2.69 2.69 0 0 1 1.6-2.11l.13-.08a11.24 11.24 0 0 1 5.12-1.12 10.43 10.43 0 0 1 5 1.17c1.05.61 1.64 1.35 1.62 2v.92a4.18 4.18 0 0 1-1.66 1.54 11 11 0 0 1-5.53 1.25h-.31a5.32 5.32 0 0 0-2.63.63h-.1a2.54 2.54 0 0 0-1.4 2v.61l18.37 10.57-17.53 10.16a3.4 3.4 0 0 1-1.7-.41c-.32-.18-.41-.35-.4-.4v-.14a5.1 5.1 0 0 0-2.89-4.41zm-39.49 34.93a5.5 5.5 0 0 0 2.7.65h.31a11.39 11.39 0 0 1 5.58 1.25 3.35 3.35 0 0 1 1.82 2.08v.57a3.26 3.26 0 0 1-1.85 2.21A11.55 11.55 0 0 1 99 125a3.21 3.21 0 0 1-1.83-2.53 2.47 2.47 0 0 0-1.44-2.47 5.81 5.81 0 0 0-3.38-.61h-.21l-18.88 10.9-17.71-10.2.1-.07h.1a3.45 3.45 0 0 1 1.7-.39h.28a13.13 13.13 0 0 0 6.61-1.52c1.84-1.07 2.85-2.54 2.85-4.15s-1-3.11-2.88-4.18a13.6 13.6 0 0 0-12.49 0 5.08 5.08 0 0 0-2.82 4.36v.15c0 .06-.1.23-.35.38h-.1a3.32 3.32 0 0 1-1.51.38h-.16L29.39 105l18.37-10.55v-.6a2.56 2.56 0 0 0-1.43-2.06 5.37 5.37 0 0 0-2.7-.66h-.33a11.18 11.18 0 0 1-5.49-1.2l-.09-.06a4.53 4.53 0 0 1-1.31-1.08V87.5c0-.69.57-1.43 1.61-2a10.48 10.48 0 0 1 5-1.17 10.07 10.07 0 0 1 4.87 1.13l.12.07a2.72 2.72 0 0 1 1.58 2.07 3 3 0 0 0 1.68 2.87 5.8 5.8 0 0 0 2.86.72c.4 0 .4 0 10.34-5.73l9.23-5.32h.11l16.91 9.73a1.56 1.56 0 0 1-.3.22 3.52 3.52 0 0 1-1.71.39h-.31a13 13 0 0 0-6.48 1.46l-.14.07A5.08 5.08 0 0 0 79 95.69v.34c0 1.63 1 3.11 2.88 4.18a11.53 11.53 0 0 0 3.12 1.23h.1a14.58 14.58 0 0 0 7.48-.16 10.88 10.88 0 0 0 2.22-1A5.11 5.11 0 0 0 97.66 96v-.14s.08-.22.44-.42a3.46 3.46 0 0 1 1.62-.44l17.38 10-17.1 9.85-.5.3v.45a2.4 2.4 0 0 0 1.42 2.62zm8.82 19.23a10.17 10.17 0 0 1-5 1.18c-1 0-4 0-5.51-.89a2.73 2.73 0 0 1-1.58-2.07 2.91 2.91 0 0 0-1.56-2.8l-.09-.09a6.24 6.24 0 0 0-3.68-.68H92L73.26 143l-17.44-10.11v-10.34l17.44 10.07 19.5-11.25a3.55 3.55 0 0 1 2 .4c.33.18.41.36.4.39v.16a5.11 5.11 0 0 0 2.9 4.4 12.42 12.42 0 0 0 6.18 1.5 12.68 12.68 0 0 0 6.23-1.51 6.8 6.8 0 0 0 .86-.58v9.46a2.83 2.83 0 0 1-1.59 1.86zm-73.32-46l.27.18.09.06a13.15 13.15 0 0 0 6.52 1.47h.31a3.53 3.53 0 0 1 1.72.4l-8.83 5.08zm83.65 14.17l16.42-9.49v10.34l-16.42 9.48zm-17-39.51h.32a11.24 11.24 0 0 1 5.61 1.2 3.06 3.06 0 0 1 1.85 2.41 3.1 3.1 0 0 1-1.85 2.45 11.64 11.64 0 0 1-7.48 1v-7.35a6.1 6.1 0 0 0 1.58.24zm53.09 6.32L147 67.09a3.48 3.48 0 0 1 1.68-.38h.3a13.33 13.33 0 0 0 6.6-1.52 7 7 0 0 0 .6-.41zM51.57 122.56a5.56 5.56 0 0 0-3.08 4.82h-.06l-.12.06a2.93 2.93 0 0 1-1.28.32L29 117.38V107l17 9.91.18.18h.39a5.4 5.4 0 0 0 2.9-.63h.1A2.45 2.45 0 0 0 51 114a3.27 3.27 0 0 1 1.9-2.57 11.68 11.68 0 0 1 10.42 0 3.09 3.09 0 0 1 1.88 2.44c0 .87-.66 1.72-1.92 2.45a11.32 11.32 0 0 1-5.52 1.22h-.3a5.38 5.38 0 0 0-2.65.63h-.09a2.47 2.47 0 0 0-1.39 2.27v1.23a11.86 11.86 0 0 0-1.76.89zm58.87-4.22a13.17 13.17 0 0 0-6.52-1.48h-.3a3.5 3.5 0 0 1-1.74-.41 1.46 1.46 0 0 1-.27-.2l16.46-9.46v10.27l-5.49 3.17a6.7 6.7 0 0 0-2.14-1.89zM139 94.08a2.49 2.49 0 0 0-1.43-2.29 5.5 5.5 0 0 0-2.7-.65h-.31A11.29 11.29 0 0 1 129 89.9c-1.2-.7-1.86-1.55-1.86-2.42A3.09 3.09 0 0 1 129 85a11.7 11.7 0 0 1 10.49 0 3.21 3.21 0 0 1 1.83 2.53 2.47 2.47 0 0 0 1.43 2.47 5.61 5.61 0 0 0 3 .65h.16l17.49-10v10.31l-18.08 10.44a3 3 0 0 1-1.32-.4l-.14-.09a5.61 5.61 0 0 0-3.15-4.86 10.24 10.24 0 0 0-1.68-.76v-1.21z"/>
</symbol>
<symbol id="i-bourbon" viewBox="0 0 191.49 196.21"><path fill="#fed902" d="M173 131a20.72 20.72 0 0 0-18.74 0l-.12.07c-3.13 1.81-4.34 4.32-3.62 6.67v.07l1.35 9.86c0 1.74 1.18 3.49 3.5 4.81a17.14 17.14 0 0 0 8.3 2 16.93 16.93 0 0 0 8.34-2l.11-.06c2.28-1.33 3.41-3.07 3.4-4.8l1.4-10.88c.13-2.11-1.18-4.2-3.92-5.74zm-2.56 15.46l-2.3 3.9a.38.38 0 0 1-.32.18h-4.53a.3.3 0 0 1-.19-.05.32.32 0 0 1-.11-.12l-2.23-3.94a.37.37 0 0 1 0-.38l.17-.31-2.42 1.26a.41.41 0 0 1-.19 0 .42.42 0 0 1-.15 0l-3.92-2.27a.41.41 0 0 1-.19-.33v-4.53a.32.32 0 0 1 0-.16.38.38 0 0 1 .14-.14l3.92-2.26a.42.42 0 0 1 .38 0l3.92 2.27a.32.32 0 0 1 .14.14.38.38 0 0 1 0 .19v2.83l.44-.74a.35.35 0 0 1 .11-.1.39.39 0 0 1 .18-.06h4.53a.39.39 0 0 1 .32.19l2.23 3.95a.33.33 0 0 1 0 .19.26.26 0 0 1 .06.25z"/><path fill="#2834af" d="M181 121.25a7.83 7.83 0 0 0 .23-1.86c0-3.63-2.33-7-6.58-9.41a32.25 32.25 0 0 0-29.3.06l-.16.1c-4.15 2.4-6.43 5.69-6.43 9.26v.19a7.82 7.82 0 0 0 .23 1.73l3.38 24.73c.1 3 2.05 5.69 5.52 7.69a26.68 26.68 0 0 0 24.33 0l.14-.09c3.44-2 5.34-4.72 5.41-7.69zm-6.19 24.53c0 1.92-1.38 3.8-3.92 5.28l-.15.08a23.68 23.68 0 0 1-21.32.05c-2.59-1.49-4-3.37-4-5.31v-.19l-.21-1.54a6.63 6.63 0 0 1 1.51-2.23l.52 3.78c.07 2.15 1.47 4.11 4 5.54a19.47 19.47 0 0 0 17.67 0h.08c2.48-1.44 3.85-3.41 3.9-5.55l.49-3.82a6.57 6.57 0 0 1 1.68 2.55l-.16 1.25zm-1.65-33.19c3.25 1.86 5 4.24 5.06 6.74l-.39 3a11.38 11.38 0 0 1-4.36 4.11l-.17.1a20.69 20.69 0 0 1-3.33 1.54l-.17-.12c-5.48-3.13-14.33-3.11-19.75 0l-.12.07h-.06a21.45 21.45 0 0 1-3.36-1.52 12 12 0 0 1-4.27-3.84l-.47-3.44c0-2.43 1.76-4.77 4.93-6.61l.17-.1a26.59 26.59 0 0 1 13.13-3.03 26.87 26.87 0 0 1 13.11 3.1zm-.93 21.69a3.81 3.81 0 0 1-.05.59c-.26 1.43-1.4 2.79-3.28 3.89l-.12.07c-4.87 2.83-12.83 2.85-17.74 0a6.58 6.58 0 0 1-3.24-3.45l-.18-1.28a5.21 5.21 0 0 1 2.53-3.85 33.75 33.75 0 0 0 19.54 0c1.59 1.21 2.49 2.6 2.49 4.03zM152.62 129a20.46 20.46 0 0 1 14.5 0 32 32 0 0 1-14.5 0zm-7.94 12.11l-2-14.7a16.54 16.54 0 0 0 2.78 2 21.31 21.31 0 0 0 2.45 1.18 6.53 6.53 0 0 0-2.35 4.83 5.44 5.44 0 0 0 .22 1.5l.51 3.7a11.75 11.75 0 0 0-1.61 1.46zm3.62-1.61a11.47 11.47 0 0 0 1.69 1.18 21.84 21.84 0 0 0 19.75 0l.11-.07a11.88 11.88 0 0 0 1.7-1.2l-.78 6v.14c0 1.44-1 2.84-2.93 4h-.09a15.77 15.77 0 0 1-7.83 1.86 16 16 0 0 1-7.82-1.84c-1.91-1.09-3-2.49-3-4v-.1zm25.81-4.28a.2.2 0 0 1 0-.07l.08-.62a1.8 1.8 0 0 0 0-.22 6.51 6.51 0 0 0-2.36-4.79 21.1 21.1 0 0 0 2.43-1.2l.18-.1a16.62 16.62 0 0 0 2.87-2.1l-2 15a11.21 11.21 0 0 0-1.79-1.7z"/><path fill="#4e5ad5" d="M147 152.17h.07zm8.24-2.46z"/><path fill="#fff" d="M153.26 158.08l-.02-.06"/><path fill="#fed902" d="M130.32 154.66a20.72 20.72 0 0 0-18.74 0l-.12.07c-3.14 1.81-4.34 4.33-3.62 6.68l1.35 9.86c0 1.74 1.18 3.49 3.5 4.81a17.14 17.14 0 0 0 8.3 2 16.93 16.93 0 0 0 8.34-2l.11-.06c2.28-1.33 3.41-3.07 3.4-4.8l1.4-10.88c.14-2.01-1.17-4.1-3.92-5.68zm-.55 5.91l-3.11 3.3a.27.27 0 0 1-.16.1.31.31 0 0 1-.19 0l-2.77-.66.58.56a.25.25 0 0 1 .07.12.41.41 0 0 1 0 .19l-1.08 4.4a.37.37 0 0 1-.26.27l-4.35 1.26a.31.31 0 0 1-.19 0 .28.28 0 0 1-.17-.09l-3.27-3.14a.37.37 0 0 1-.1-.35l1.08-4.4a.38.38 0 0 1 .15-.13.32.32 0 0 1 .14-.08l4.35-1.26a.39.39 0 0 1 .37.09l.27.25-.8-2.66a.34.34 0 0 1 0-.2.26.26 0 0 1 .08-.13l3.11-3.3a.37.37 0 0 1 .36-.11l4.41 1.05a.37.37 0 0 1 .14.07.42.42 0 0 1 .1.17l1.3 4.34a.36.36 0 0 1-.06.34z"/><path fill="#2834af" d="M139 145.61a7.89 7.89 0 0 0 .23-1.86c0-3.63-2.32-7-6.58-9.41a32.17 32.17 0 0 0-29.3.06l-.16.1c-4.14 2.4-6.43 5.69-6.43 9.25a1.36 1.36 0 0 0 0 .2 8.48 8.48 0 0 0 .24 1.74l3.37 24.72c.1 3 2.05 5.7 5.53 7.69a26.7 26.7 0 0 0 24.32 0l.15-.09c3.43-2 5.34-4.72 5.4-7.69zm-6.19 24.53c0 1.92-1.37 3.8-3.91 5.27l-.15.09a23.74 23.74 0 0 1-21.33 0c-2.59-1.48-4-3.36-4-5.3v-.19l-.22-1.55a6.85 6.85 0 0 1 1.51-2.22l.52 3.78c.07 2.14 1.47 4.11 4 5.54a18.07 18.07 0 0 0 8.81 2.1 17.87 17.87 0 0 0 8.86-2.14l.08-.06c2.48-1.44 3.86-3.4 3.9-5.54l.5-3.82a6.73 6.73 0 0 1 1.68 2.55l-.17 1.24zm-.59-11.29v-.22a6.51 6.51 0 0 0-2.36-4.79 20.29 20.29 0 0 0 2.43-1.19l.18-.1a15.94 15.94 0 0 0 2.87-2.12l-2 15.06a10.83 10.83 0 0 0-1.79-1.71l.55-4.23v-.07l.08-.62zm-25.87 5A12.28 12.28 0 0 0 108 165a20.39 20.39 0 0 0 9.85 2.33 20.06 20.06 0 0 0 9.9-2.38l.11-.06a11.81 11.81 0 0 0 1.71-1.21l-.78 6v.13c0 1.45-1 2.85-2.93 3.95l-.08.06a17.5 17.5 0 0 1-15.66 0c-1.91-1.09-3-2.49-3-4v-.1zm20.55-.66l-.12.07c-4.86 2.83-12.82 2.85-17.74 0a6.7 6.7 0 0 1-3.24-3.45l-.17-1.28a5.18 5.18 0 0 1 2.53-3.85 33.68 33.68 0 0 0 19.55 0 5.13 5.13 0 0 1 2.53 4 2.94 2.94 0 0 1-.05.59c-.29 1.44-1.43 2.8-3.31 3.9zm-23.06-2.95l.5 3.7a10.56 10.56 0 0 0-1.6 1.52l-2-14.72a16.46 16.46 0 0 0 2.79 2 20.54 20.54 0 0 0 2.45 1.18 6.49 6.49 0 0 0-2.36 4.83 5.45 5.45 0 0 0 .2 1.47zm6.83-6.89a20.38 20.38 0 0 1 14.51 0 32.31 32.31 0 0 1-14.53-.02zm20.8-2.51l-.17.1a20.66 20.66 0 0 1-3.33 1.53l-.17-.11c-5.47-3.13-14.33-3.11-19.74 0l-.12.07-.07.05a21 21 0 0 1-3.36-1.53 11.88 11.88 0 0 1-4.28-3.85l-.46-3.42c0-2.43 1.77-4.77 4.93-6.61l.17-.1a29.17 29.17 0 0 1 26.29 0c3.25 1.85 5 4.24 5.07 6.74l-.39 3a11.4 11.4 0 0 1-4.39 4.11z"/><path fill="#fed902" d="M43.12 112.14l56-32.31.22-6.2c.11-4-.85-7.08-2.57-9.13a6.81 6.81 0 0 0-1-1c-.08-.07-8.88-4.78-11.65-6.26a1.69 1.69 0 0 0-1.63 0L34.38 85a.61.61 0 0 0-.23.25c-2.34 4.64-3.94 9.93-3.81 14.44l.66 10.03 4.16 2.41a8 8 0 0 0 7.96.01zm-7.98 23.57l-2.69-1.55.9 14.67a3.4 3.4 0 0 0 1.19 2.6 1.08 1.08 0 0 0 .32.19l11.33 6.78c.91.74 2.29.75 3.81-.13l42.56-24.63a11 11 0 0 0 4.92-8.15l.74-21.19-55.12 31.44a8 8 0 0 1-7.96-.03z"/><path fill="#2834af" d="M94.31 48.79l-15.39-9.3-.12-.06a28.28 28.28 0 0 0-3.35-1.36c.06-.93.13-2.42.17-4.82a9.45 9.45 0 0 0-2.28-5.66l.81-4.06c.55-3.5-1.48-6.86-5.56-9.21a25.62 25.62 0 0 0-12.58-3 25.3 25.3 0 0 0-12.44 3l-.12.08c-4.18 2.41-6.16 5.85-5.44 9.46l.8 3.62a9.84 9.84 0 0 0-2.34 6v3.86a8.05 8.05 0 0 0 1.23 4.21 100.27 100.27 0 0 1-3.45 15.35 52.63 52.63 0 0 0-13.31 16.86c-3.58 7.06-5.45 14.49-5.27 21l3.71 56.38a6.12 6.12 0 0 0 2.27 4.75l16.53 9.9a6 6 0 0 0 3.2.94 7.4 7.4 0 0 0 3.7-1.09l46.52-26.89a16.77 16.77 0 0 0 7.68-12.69l3.1-60.21c.24-8.12-2.7-14.33-8.07-17.06zM23.39 153.42a3.47 3.47 0 0 1-1-2.51l-1.46-22.26 4.12 2.35 1.1 18.38a4.4 4.4 0 0 0 1.56 3.31l.12.07 11.64 7a3.52 3.52 0 0 0 2.13.69 5.55 5.55 0 0 0 2.71-.8L86.87 135a11.94 11.94 0 0 0 5.42-9l.6-17.55 4.42-2.45-1 19.91a14 14 0 0 1-6.19 10.25L43.59 163a3.5 3.5 0 0 1-3.85.19zm-4.1-49.31L34.61 113a9 9 0 0 0 9 0l55-31.73-1.15 22.35-54.85 31.25a7 7 0 0 1-7 0l-14.89-8.6zM41 23.2c-.45-2.24 1-4.52 4-6.26l.12-.07A22.15 22.15 0 0 1 56 14.29a22.5 22.5 0 0 1 11.08 2.63c3 1.7 4.44 3.94 4.1 6.09l-.54 2.71a10.48 10.48 0 0 1-3.1 2.6l-.15.08c-6.16 3.6-16.25 3.6-22.47-.04a10 10 0 0 1-3.54-3.2zm15.21 22.91h-.06a29.79 29.79 0 0 1-3.06-.11h-.25a23.21 23.21 0 0 1-8.91-2.74 11.73 11.73 0 0 1-3.43-2.89 7.1 7.1 0 0 1-.46-.77 15.21 15.21 0 0 0 2.91 2.17 27.23 27.23 0 0 0 13.28 3.2 30.45 30.45 0 0 0 3.17-.16h.11v.06l.1-.06h.18c.61-.06 1.22-.15 1.81-.26h.09a23.53 23.53 0 0 0 7.66-2.69l.13-.08A15.56 15.56 0 0 0 72 39.86l-.19.56a11.19 11.19 0 0 1-3.3 2.75l-.16.09a24.86 24.86 0 0 1-12.14 2.85zm-12.29-16A25.21 25.21 0 0 0 56.23 33a24.87 24.87 0 0 0 12.18-2.9l.14-.08a14.38 14.38 0 0 0 1.92-1.33L70 32.28l.7.1H70c0 1.91-1.33 3.74-3.82 5.17l-.11.07a18 18 0 0 1-6.57 2.11c-4.75.65-9.82-.17-13.25-2.15a8 8 0 0 1-3.47-3.47 5.09 5.09 0 0 1-.26-.78l-.75-4.73a14.71 14.71 0 0 0 2.15 1.49zm-3.45 3a2.47 2.47 0 0 0 .11.63 6.53 6.53 0 0 0 .42 1.18 10 10 0 0 0 4.3 4.39A22.32 22.32 0 0 0 56.2 42a25.31 25.31 0 0 0 3.57-.25 20 20 0 0 0 7.33-2.38l.1-.06c3.06-1.76 4.74-4.15 4.78-6.75l.17-1.21a4.82 4.82 0 0 1 .47 1.92c0 .94 0 2-.08 2.86a5.34 5.34 0 0 1-.41.68l-.1.14a9.48 9.48 0 0 1-1.35 1.44 13.25 13.25 0 0 1-2.18 1.54l-.13.08a21.49 21.49 0 0 1-6.88 2.41h-.1c-.68.12-1.38.22-2.09.29h-.33c-5.5.5-11.08-.54-15-2.81a11.74 11.74 0 0 1-3.31-2.71l-.21-.28a6.08 6.08 0 0 1-1-1.72v-1.8a5.87 5.87 0 0 1 .65-2.47zm46.86 14.96a18.87 18.87 0 0 0-3.64.68A26.36 26.36 0 0 0 78 51.23l-.63.36a29.61 29.61 0 0 1-3.2-10.76 22.77 22.77 0 0 1 3.24 1.27zM36.82 58.75l.16-.51a114.22 114.22 0 0 0 3.53-15.05 15.19 15.19 0 0 0 2.43 1.72 25.17 25.17 0 0 0 9.62 3h.23c.77.09 1.55.14 2.33.16 0 .76-.1 1.56-.17 2.45a91.16 91.16 0 0 1-3.1 14.84 1 1 0 0 0 .69 1.24 1.35 1.35 0 0 0 .28 0 1 1 0 0 0 1-.73 93.91 93.91 0 0 0 3.12-15.17c.08-1 .14-1.82.18-2.62A26.45 26.45 0 0 0 69.37 45l.16-.09a14.61 14.61 0 0 0 2.89-2.16 31.35 31.35 0 0 0 3.43 10.23 1.59 1.59 0 0 0 2.19.59L79 53a24 24 0 0 1 5.23-2.29 14.13 14.13 0 0 1 6.63-.44l1.92 1.15.1.06c4.38 2.2 6.68 7.29 6.48 14.29l-.68 13.16-4.88 2.8.31-8.94c.11-4.09-.86-7.48-2.8-9.79a7.88 7.88 0 0 0-1.2-1.18c-.3-.21-1.74-1-11.8-6.36a2.69 2.69 0 0 0-2.61 0L27.51 83.59a1.55 1.55 0 0 0-.63.64c-2.52 5.14-3.88 10.32-3.74 14.62l.32 5.37-4.33-2.51-.47-7.12c-.16-5.94 1.6-12.85 4.95-19.47A49.29 49.29 0 0 1 36.37 59zm-11.29 46.67l-.39-6.66C25 95 26.25 90.23 28.46 85.6l10 5.79a31.71 31.71 0 0 0-3.57 14.5l.3 5.12zm14.25-15.57l-9.54-5.54L76.7 57.24a.69.69 0 0 1 .67 0c3.82 2.05 7.93 4.24 10.08 5.41l-6.62 3.82zM28 84.44v-.08zm9.23 27.5l-.36-6.14a30 30 0 0 1 3.65-14.08l41.3-23.53 7.55-4.36c.14.14.27.29.4.44 1.63 1.94 2.44 4.87 2.34 8.46l-.35 10.17-49.14 28.37a7 7 0 0 1-5.38.67zm-.49 25.52l1.15 19-8.69-5.16-.25-.15a2.46 2.46 0 0 1-.77-1.84l-1-17 7.51 4.34a8.82 8.82 0 0 0 2.06.81zm3.87 20.68a2.43 2.43 0 0 1-.72-1.8l-1.13-18.58h.37a9 9 0 0 0 4.46-1.18l47.25-26.93-.55 16.35a10.08 10.08 0 0 1-4.42 7.34l-42.56 24.6c-1.1.63-2.07.71-2.61.27z"/>
</symbol>
<symbol id="i-calendar" viewBox="0 0 191.49 196.21"><path fill="#75f8fb" d="M108.5 82.01v6.92l5.99-3.46v-6.93l-5.99 3.47zm9.91-5.74v6.92l5.99-3.46v-6.92l-5.99 3.46zm10.06-5.81v6.92l5.99-3.46V67l-5.99 3.46zM98.25 98.4v6.92l5.99-3.46v-6.93l-5.99 3.47zm10.25-5.9v6.93l5.99-3.46v-6.93l-5.99 3.46zm9.91-5.73v6.92l5.99-3.46v-6.92l-5.99 3.46zm-49.92 28.84v6.92l6-3.46v-6.92l-6 3.46zm10.25-5.89v6.92l6-3.46v-6.92l-6 3.46zm9.91-5.74v6.93l6-3.46v-6.93l-6 3.46zm39.82-23.02v6.92l5.99-3.46v-6.93l-5.99 3.47zm-30.22 27.82v6.92l5.99-3.46v-6.92l-5.99 3.46zm10.25-5.89v6.92l5.99-3.46v-6.92l-5.99 3.46zm9.91-5.74v6.92l5.99-3.46v-6.92l-5.99 3.46zM68.49 126v6.92l6-3.46v-6.93l-6 3.47zm10.25-5.9v6.92l6-3.46v-6.92l-6 3.46zm9.91-5.73v6.92l6-3.46v-6.92l-6 3.46zm39.82-23.03v6.92l5.99-3.46v-6.92l-5.99 3.46zm-30.22 27.94v6.92l5.99-3.46v-6.92l-5.99 3.46zm10.25-5.89v6.92l5.99-3.46v-6.93l-5.99 3.47zm9.91-5.74v6.92l5.99-3.46v-6.92l-5.99 3.46zm-49.92 28.84v6.92l6-3.46v-6.92l-6 3.46zm10.25-5.89v6.92l6-3.46v-6.92l-6 3.46zm9.91-5.73v6.92l6-3.46v-6.92l-6 3.46zm39.82-23.03v6.92l5.99-3.46v-6.92l-5.99 3.46zm-30.22 27.82v6.92l5.99-3.46v-6.92l-5.99 3.46zm10.25-5.89v6.92l5.99-3.46v-6.92l-5.99 3.46zm-40.01 23.11v6.92l6-3.46v-6.93l-6 3.47zm10.25-5.9v6.93l6-3.47v-6.92l-6 3.46zm9.91-5.73v6.92l6-3.46v-6.92l-6 3.46z"/><path fill="#2834af" d="M135.84 20.36l-12.33 7a18.82 18.82 0 0 0-4.14-3.36c-3-1.74-6-2.08-8.41-.91l-4.5 2.62-.14.09c-2 1.49-3.13 4.15-3.13 7.48v.16a26.6 26.6 0 0 0 .87 5.22l-7.73 4.47-17.48 10.34a18.69 18.69 0 0 0-4.24-3.42c-3-1.75-6-2.08-8.42-.89l-4.65 2.33-.22.15c-2 1.49-3.09 4.14-3.09 7.45v.15a27.61 27.61 0 0 0 .91 5.39l-16.43 9.48v94.28l13 7.48 93.11-53.75V27.84zM62.7 63.72l-.61.35a26.12 26.12 0 0 1-.86-4.83v-.15a8.2 8.2 0 0 1 .62-3.36 12.28 12.28 0 0 0-.13 1.74v.16a24.85 24.85 0 0 0 .98 6.09zM45.71 77l8.95 5.17v16.12l-8.95-5.17zm1-1.73l15.92-9.19 12.17-7a22.93 22.93 0 0 1 3.88 8.1l-23 13.28zm9.95 6.91l22.41-12.95a13.47 13.47 0 0 1 .11 1.66v.34l-.44.22a7.53 7.53 0 0 0-2.63 2.76 8.5 8.5 0 0 0-.71 1.52A7.07 7.07 0 0 0 75 78a3.2 3.2 0 0 0 1.44 2.93 2.63 2.63 0 0 0 1.32.35 4 4 0 0 0 2-.58 8.14 8.14 0 0 0 3.74-6.48v-.68a11.1 11.1 0 0 0 .71-4.08v-.15a17.79 17.79 0 0 0-.27-2.84L124 43.29a14.33 14.33 0 0 1 .13 1.83v.38a4.75 4.75 0 0 0-.55.28 7.53 7.53 0 0 0-2.58 2.76 8.54 8.54 0 0 0-.71 1.52 7 7 0 0 0-.38 2.19 3.25 3.25 0 0 0 1.44 2.94 2.63 2.63 0 0 0 1.33.34 3.86 3.86 0 0 0 2-.58 7.69 7.69 0 0 0 2.66-2.76 7.5 7.5 0 0 0 1.08-3.72V48a10.69 10.69 0 0 0 .82-4.33v-.15a16.7 16.7 0 0 0-.3-3l16.95-9.78v16.1L56.66 98.3zm23-4.85l.47-.19.57-.32v.08a5.73 5.73 0 0 1-1.93 2 1.42 1.42 0 0 1-1.28.23.78.78 0 0 1-.32-.43l.19-.07zm-2-1.67c.06-.13.13-.26.2-.39a6.8 6.8 0 0 1 .88-1.27 5.9 5.9 0 0 1-.83 1.6zm30-37.9l-.63.37a25.13 25.13 0 0 1-.82-4.64v-.16a8.3 8.3 0 0 1 .59-3.33 13.82 13.82 0 0 0-.12 1.73v.16a22.14 22.14 0 0 0 .96 5.86zM95.7 47l11.85-6.85 12.07-7a23.07 23.07 0 0 1 4 8.11l-7.13 4.11-33 19.06a25.34 25.34 0 0 0-3.88-7.87zm28.92 4.56a3.85 3.85 0 0 0 .57-.22l.35-.21v.06a5.69 5.69 0 0 1-1.93 2 1.38 1.38 0 0 1-1.28.23.73.73 0 0 1-.33-.42c.09 0 .18-.07.29-.13zm-2.13-1.65c.06-.12.12-.24.19-.36a6.13 6.13 0 0 1 1-1.35 5.49 5.49 0 0 1-.86 1.69zm1.77-19.53l11.56-6.56 9 5.18-16.41 9.47a25.58 25.58 0 0 0-4.15-8.1zm-6.85-3.64a17.57 17.57 0 0 1 4.51 3.89 23 23 0 0 1 4.88 9.84 14.89 14.89 0 0 1 .33 3.05v.15a7.22 7.22 0 0 1-1.42 4.77c.07-.24.14-.47.19-.72a12.66 12.66 0 0 0 .23-2.45v-.15c0-4.55-2.15-9.95-5.61-14.1a19.43 19.43 0 0 0-5.12-4.42 12.68 12.68 0 0 0-2.32-1h.27a8.26 8.26 0 0 1 4.06 1.13zm-3 1.6a16.8 16.8 0 0 1 3.9 3.22l-8.89 5.16a20.09 20.09 0 0 1-.74-4.84v-.16a8.71 8.71 0 0 1 1.08-4.41l.36-.21a8.19 8.19 0 0 1 4.29 1.23zm-42 24.16a17.41 17.41 0 0 1 4.44 3.82 23.21 23.21 0 0 1 4.94 9.81 15.51 15.51 0 0 1 .35 3.16v.15a7.29 7.29 0 0 1-1.41 4.78c.06-.23.13-.46.18-.7a12.8 12.8 0 0 0 .27-2.52v-.15a16.54 16.54 0 0 0-.37-3.45 25.07 25.07 0 0 0-5.32-10.7 19.47 19.47 0 0 0-5-4.33 13 13 0 0 0-1.82-.86 5.24 5.24 0 0 1 1.71.06 10.33 10.33 0 0 1 2.07.92zm-3 1.62a16.44 16.44 0 0 1 4 3.38l-9 5.2a22.26 22.26 0 0 1-.77-5.06v-.16a8.89 8.89 0 0 1 1-4.2l.81-.41a8.5 8.5 0 0 1 4 1.24zM45.72 166.66V95.43l8.95 5.17v71.22zm10.94-66l89.12-51.46v71.24l-89.12 51.39z"/>
</symbol>
<symbol id="i-globe" viewBox="0 0 191.49 196.21"><path fill="#75f8fb" d="M90.27 120.41a9.89 9.89 0 0 1-.62-4.12 84.08 84.08 0 0 1 .88-12.07 9.27 9.27 0 0 0 .1-3.36c-.41-1.81-1.9-3.14-3.09-4.56s-2.17-3.41-1.38-5.09c.7-1.46 2.65-2.55 2.24-4.12a2.5 2.5 0 0 0-2.22-1.57 21 21 0 0 1-2.86-.27c-2.44-.67-4-3.75-6.49-3.66-1.06 0-2.27.63-3.09 0a2.48 2.48 0 0 1-.66-1.26c-.51-1.68-1-3.36-1.52-5-1-3.2-1.94-6.56-1.27-9.84a10.31 10.31 0 0 1 4.49-6.56c1.56-1 3.66-2 3.63-3.84 0-1.53-1.1-.89-2.52-.56a39.56 39.56 0 0 0-12.73 29.03v.5a39.69 39.69 0 0 0 28.49 38.06 4.35 4.35 0 0 1-1.38-1.71zm.05-57.93a7.41 7.41 0 0 1 2.78-4.61c-1.31-.68-2.77-1.38-4-.7a2.58 2.58 0 0 0-1.07 3 3.92 3.92 0 0 0 2.29 2.31z"/><path fill="#75f8fb" d="M133.34 107.7a4 4 0 0 1 .06-1.79l1.88-10.14a10.09 10.09 0 0 0 .22-3.86c-.26-1.25-1-2.41-1-3.68 0-1 .39-2.35-.49-2.91a2.33 2.33 0 0 0-1.67-.07 9.24 9.24 0 0 1-4.64-.29 9 9 0 0 1-5.4-6.59 14.47 14.47 0 0 1 1.1-8.68c.59-1.39 1.35-2.94.8-4.35-.47-1.24-1.85-2.07-2-3.39-.09-1 .61-2.22-.08-3-.43-.5-1.2-.49-1.86-.54s-1.46-.4-1.48-1.06c0-1 1.36-1.08 2.28-.86s2.3.14 2.32-.81c0-.59-.6-1-1.13-1.26a11 11 0 0 1-3.73-2.83 4.58 4.58 0 0 1-.81-4.42v-.37a39.54 39.54 0 0 0-14.94-2.92 39.44 39.44 0 0 0-18.47 4.6 1.61 1.61 0 0 1 .33.12 8.24 8.24 0 0 1 1 .94c1.31 1.05 3.21.08 4.57-.89 2.22-1.57 4.82-3.21 7.46-2.57 1 .24 2 .83 3 1 1.64.23 3.25-.63 4.9-.54 2.46.13 4.27 2.27 5.77 4.24a2.52 2.52 0 0 1 .64 1.32c.05 1-.94 1.61-1.84 1.91a4.48 4.48 0 0 0-2.47 1.32c-.69 1.05-.18 2.68-1.11 3.52s-2.27.24-3-.67a23.12 23.12 0 0 1-1.48-3.09 5.67 5.67 0 0 0-2.53-2.41 1.69 1.69 0 0 0-.78-.21c-1 0-1.38 1.35-1.19 2.33s.65 2 .23 2.92v.07a9.5 9.5 0 0 1 1.55 3.63c.48 1.9.76 4.22-.69 5.55-2.08 1.9-6.36.42-7.58 3-.25.51-.29 1.1-.54 1.61a7.15 7.15 0 0 1-1.44 1.63 6.24 6.24 0 0 0-1.69 3.51 6.25 6.25 0 0 0-7.48-1.71c-1 .48-1.89 1.59-1.39 2.54.77 1.47 3.26.19 4.61 1.16.75.53.91 1.63 1.64 2.2 1.29 1 3-.26 4.61-.69a6.15 6.15 0 0 1 4.72.87A25.36 25.36 0 0 1 98 84.14a43.79 43.79 0 0 0 8.42 5.93c1.67.91 3.48 1.77 4.57 3.34s1.07 4.09-.58 5a3.35 3.35 0 0 0-1.15.74c-.43.6-.11 1.41.06 2.13a6.67 6.67 0 0 1-2 5.86 39.36 39.36 0 0 1-5.1 4 26.25 26.25 0 0 0-8.63 11.46 41.55 41.55 0 0 0 5.61.93 8.54 8.54 0 0 1 5.3-3.1c1.1-.18 2.5-.34 2.81-1.41s-.63-2.34.18-3c.72 1.21 1.5 2.4 2.33 3.54.54.76 1.26 1.58 2.19 1.56a5.49 5.49 0 0 0 1.72-.59 6.62 6.62 0 0 1 2.7-.23l2.32.12A39.72 39.72 0 0 0 134 108.59a1.54 1.54 0 0 1-.66-.89z"/><path fill="#2834af" d="M106.72 40.74l-9.63-5.63a23.29 23.29 0 0 0-11.63-3.33 19.92 19.92 0 0 0-11.08 3.4l-10.3 6.23c-7.67 4.68-12.4 14.31-12 24.52a29.38 29.38 0 0 0 .44 6.28 33.45 33.45 0 0 0 2.17 8.18v.57a41.24 41.24 0 0 0 30.71 39.81 15.94 15.94 0 0 0-3 1.18l-.15.1c-4.25 2.45-6.6 5.82-6.6 9.47V134c0 3.68 2.38 7.08 6.69 9.56a30.64 30.64 0 0 0 15.08 3.63 30.12 30.12 0 0 0 14.87-3.57l.2-.11c4.14-2.39 6.61-6.08 6.61-9.87v-2.21c0-3.6-2.38-6.95-6.69-9.43a23.44 23.44 0 0 0-4.25-1.76A41.19 41.19 0 0 0 137 81v-.51a41.23 41.23 0 0 0-30.28-39.75zM134 80.44V81a38.19 38.19 0 0 1-29.85 37.25c-.18 0-.34.1-.5.15l-.26.05a85.68 85.68 0 0 1-10.5.66h-.51c-.89-.15-3-.5-3.83-.66A38.19 38.19 0 0 1 57.63 81v-1.68a.53.53 0 0 0 0-.13l.05-.6c.43-6.29 2.06-15.21 7.35-22 .12-.13.22-.27.33-.41a39.36 39.36 0 0 1 2.78-3.09 38.45 38.45 0 0 1 11.64-8c.31.1.63.2 1 .32a21.52 21.52 0 0 1 2.73 1.2c.35.17.7.36 1.06.57l7.64 4.41v1.54a3.1 3.1 0 0 0 1.76 2.61 7.61 7.61 0 0 0 7 0h.09a3 3 0 0 0 1.74-2.6v-2.66l3.2-1.88a2.47 2.47 0 0 0 1.21-2V44A38.22 38.22 0 0 1 134 80.44zM116.08 132c-.54 2.18-2.35 4.26-5.18 5.89l-.16.1a27.79 27.79 0 0 1-13.64 3.24 28.12 28.12 0 0 1-13.83-3.3 12 12 0 0 1-4.64-4.41v-2c0-2.54 1.81-5 5.14-6.9l.15-.09c1.6-.93 6.06-1.91 8.26-2.33v9.32a3.08 3.08 0 0 0 1.82 2.63 7.15 7.15 0 0 0 3.53.86 7.07 7.07 0 0 0 3.45-.82l.09-.05a3.09 3.09 0 0 0 1.74-2.61v-9.68c.71.17 5.79 1.38 8.13 2.73 3.34 1.93 5.19 4.36 5.19 6.84zM97.4 144.18A27.52 27.52 0 0 1 83.82 141a13.66 13.66 0 0 1-2.91-2.19c.43.31.88.6 1.36.88a30.15 30.15 0 0 0 14.83 3.57 29.77 29.77 0 0 0 14.66-3.52l.16-.1a16.47 16.47 0 0 0 2.81-2 11.6 11.6 0 0 1-3.74 3.33l-.2.12a27.14 27.14 0 0 1-13.39 3.09zm-3.22-12.66v-10.47c1.85 0 4.42-.15 6.58-.33v10.81a1.2 1.2 0 0 1-.69.85l-.09.05a5.9 5.9 0 0 1-5 0c-.51-.29-.8-.62-.8-.91zM55 65.9a28.67 28.67 0 0 1 .5-6.31 23 23 0 0 1 9.54-12.78l.41-.24h.08a29.58 29.58 0 0 0-2.24 9.08c-4.46 5.82-6.41 13-7.22 19a27 27 0 0 1-1.07-8.6v-.11zM65.64 44l3.92-2.38c.38-.1.77-.2 1.16-.28a14.79 14.79 0 0 1 2-.29 19.57 19.57 0 0 1 10.76 2.36c.35.17.7.36 1.06.57l10.71 6.18a2.48 2.48 0 0 0 2.5 0l7.51-4.33v.7a.44.44 0 0 1-.24.36l-8.27 4.77a.5.5 0 0 1-.5 0l-10.7-6.17c-.39-.24-.8-.45-1.17-.63a24.35 24.35 0 0 0-2.94-1.3 19.92 19.92 0 0 0-11.13-.94 17.54 17.54 0 0 0-2.15.56 18.73 18.73 0 0 0-3.69 1.66l-.35.2c.49-.39 1-.74 1.52-1.04zM76 37.71a17 17 0 0 1 9.47-2.93 20.27 20.27 0 0 1 10.13 2.93l9.65 5.64a.46.46 0 0 1-.22.29l-8.27 4.77a.5.5 0 0 1-.5 0l-10.7-6.17c-.39-.24-.8-.45-1.17-.63A22 22 0 0 0 73.91 39zm24.77 15.43c0 .27-.26.59-.69.84L100 54a5.93 5.93 0 0 1-5 0c-.47-.27-.76-.61-.76-.88v-.39l1.07.62a2.48 2.48 0 0 0 2.5 0l3-1.73v1.5zM76.7 44.38a40.66 40.66 0 0 0-10 7.31l-.21.22a24.25 24.25 0 0 1 3.87-7.28l.32-.08a17.12 17.12 0 0 1 6.02-.17z"/>
</symbol>
<symbol id="i-microphone" viewBox="0 0 191.49 196.21"><path fill="#fff31c" d="M136.92 52.18c0-2.25-1.5-4.62-4.49-6.34l-19.12-11c-5.94-3.43-15.54-3.44-21.45 0L72.61 45.88c-3 1.71-4.42 3.95-4.41 6.19V105c0 2.24 1.51 4.48 4.48 6.2l19.11 11c.3.17.6.33.92.48s.83.39 1.26.56a21.89 21.89 0 0 0 5.88 1.39 24.24 24.24 0 0 0 11.28-1.37 17.15 17.15 0 0 0 2.11-1l19.26-11.12c2.94-1.7 4.41-3.92 4.41-6.16z"/><path fill="#2834af" d="M123.88 56.56c0 .83.59 1.17 1.3.75l.75-.44a2.87 2.87 0 0 0 1.3-2.26v-4.33a10.51 10.51 0 0 0-5.23-9.09L118.24 39a2.89 2.89 0 0 0-2.61 0l-.78.46a.79.79 0 0 0 0 1.49l3.75 2.15a10.49 10.49 0 0 1 5.27 9.1zm-9.73-10.85l-3.75-2.17a2.89 2.89 0 0 0-2.61 0L107 44a.78.78 0 0 0 0 1.48l3.75 2.15a10.49 10.49 0 0 1 5.27 9.1v4.34c0 .82.59 1.16 1.3.74l.75-.43a2.89 2.89 0 0 0 1.3-2.26v-4.33a10.49 10.49 0 0 0-5.22-9.08zm-7.84 5.15l-3.74-2.17a2.89 2.89 0 0 0-2.61 0l-.78.46a.78.78 0 0 0 0 1.48l3.75 2.15a10.49 10.49 0 0 1 5.27 9.1v4.34c0 .82.58 1.16 1.29.74l.76-.43a2.92 2.92 0 0 0 1.3-2.26v-4.33a10.48 10.48 0 0 0-5.24-9.08zM107.78 97L104 99.13a10.47 10.47 0 0 1-10.51 0L89.77 97c-.71-.42-1.3-.08-1.29.75v.87a2.88 2.88 0 0 0 1.3 2.25l3.76 2.13a10.51 10.51 0 0 0 10.46 0l3.75-2.16a2.88 2.88 0 0 0 1.3-2.26v-.91c.01-.79-.57-1.12-1.27-.67zm.01-9.09l-3.74 2.18a10.5 10.5 0 0 1-10.51 0l-3.76-2.17c-.71-.41-1.3-.07-1.29.75v.87a2.9 2.9 0 0 0 1.31 2.26l3.75 2.2A10.48 10.48 0 0 0 104 94l3.75-2.16a2.88 2.88 0 0 0 1.3-2.27v-.9c.02-.83-.56-1.16-1.26-.76zm-18.54-5.46L93 84.61a10.48 10.48 0 0 0 10.49 0l3.75-2.16a2.88 2.88 0 0 0 1.3-2.27v-.9c0-.82-.59-1.15-1.29-.74l-3.74 2.17a10.49 10.49 0 0 1-10.52 0l-3.75-2.17c-.71-.41-1.3-.07-1.29.75v.87a2.92 2.92 0 0 0 1.3 2.29z"/><path fill="#2834af" d="M128.56 37l-19.12-11c-6.45-3.72-16.52-3.74-23 0l-19.2 11c-3.24 1.88-5 4.45-5.14 7.25v53.3c0 2 .92 4.84 5.19 7.31l5.13 3.14v1c0 3.32 2.63 6.25 5.08 7.91l6.44 4 .14.08a15.37 15.37 0 0 0 4.68 1.35v14.29a35.23 35.23 0 0 0-9.16 3.21l-.2.12c-5.27 3-7.94 6.86-7.94 11.36v4.3c0 4.37 2.87 8.42 8 11.41s11.7 4.38 18.33 4.38S111 170 116 167.13l.23-.13c4.91-2.84 7.7-6.66 7.91-10.81v-4.84c0-4.37-2.87-8.42-8-11.41a29.09 29.09 0 0 0-8.92-2.89V117.4l21.51-12.63c3.3-1.91 5.13-4.53 5.16-7.39v-53c-.09-2.02-1-4.93-5.33-7.38zm-53 72.61a3.19 3.19 0 0 1-.08-.61v-2.66l.15-33.77c0-.71.18-1.23.52-1.42a1.71 1.71 0 0 1 1.58.32 6.76 6.76 0 0 1 2.86 5.12l-.06 36.35a11.21 11.21 0 0 0 .22 2.43l-1.52-1a8.71 8.71 0 0 1-3.58-4.49 2.84 2.84 0 0 1-.14-.31zm28.65 6.08a24.65 24.65 0 0 1-8.82.64 21 21 0 0 1-5.77-1.33 12.07 12.07 0 0 1-1.22-.55c-.3-.14-.59-.29-.85-.44l-5.09-3.08.05-34.33a8.73 8.73 0 0 0-3.8-6.82 3.51 3.51 0 0 0-3.62-.37 3.4 3.4 0 0 0-1.54 3.17l-.15 32.54-4.59-2.8c-1.69-1-3.71-2.6-3.72-4.74V87.26L71 91.42c.67.38 1.21 0 1.21-.91v-.42a2.86 2.86 0 0 0-1.21-2.3l-5.94-4.16v-4.78L71 83c.67.38 1.21 0 1.21-.92v-.41A2.86 2.86 0 0 0 71 79.33l-5.94-4.11v-4.79L71 74.58c.67.39 1.21 0 1.21-.91v-.42A2.89 2.89 0 0 0 71 71l-5.91-4.2V44.47c0-1.78 1.3-3.51 3.66-4.87L75 36l8.58 5.11a2.86 2.86 0 0 0 2.58 0l.57-.32a.79.79 0 0 0 0-1.5l-8.59-5.11 4.61-2.66 8.51 4.88a2.85 2.85 0 0 0 2.59 0l.56-.32c.72-.41.72-1.08 0-1.5L85.9 29.7l2.1-1.21a15.59 15.59 0 0 1 2.41-1.11l8.16 4.72a2.91 2.91 0 0 0 2.59 0l.56-.32a.8.8 0 0 0 0-1.51l-6.87-4c4.56-.58 9.55.14 13.1 2.2l19.12 11c1.71 1 3.74 2.61 3.74 4.8V66.9L125 71a2.89 2.89 0 0 0-1.21 2.3v.42c0 .89.54 1.3 1.21.91l5.81-4v4.79l-5.81 4a2.86 2.86 0 0 0-1.21 2.3V82c0 .89.54 1.3 1.21.92l5.81-4v4.78L125 87.79a2.86 2.86 0 0 0-1.21 2.3v.42c0 .88.54 1.29 1.21.91l5.81-4.06v9.94c0 1.77-1.3 3.49-3.67 4.86zM82.63 115a8.77 8.77 0 0 1-.18-2.07v-.33l2.69 1.63a6.43 6.43 0 0 1-2.51.77zm9.07 3.9l-1.83.5a9.74 9.74 0 0 1-4.39-1l-2.24-1.4a8.67 8.67 0 0 0 3.06-1.07l.83-.49c.22.12.43.24.64.34.39.2.81.38 1.33.59a22.65 22.65 0 0 0 4.8 1.27c-.51.33-1.09.68-1.62 1-.2.05-.39.14-.58.23zm-17.23 32.45c0-3.4 2.11-6.26 6.45-8.77l.21-.12a32.17 32.17 0 0 1 8.59-2.93v8.82h2V121a8.67 8.67 0 0 0 1.53-.69 27.15 27.15 0 0 0 3.75-2.45h1a25.6 25.6 0 0 0 6.13-.75v31.21a3 3 0 0 1-1.64 2.41l-.09.07a9.28 9.28 0 0 1-9 0 3.07 3.07 0 0 1-1.66-2.44h-2a5 5 0 0 0 2.58 4.12 11.24 11.24 0 0 0 11.22 0l.1-.08a4.9 4.9 0 0 0 2.51-4.06v-8.42a26.13 26.13 0 0 1 8.45 2.6c4.2 2.43 6.53 5.56 6.54 8.85V154c-.9 2.42-3 4.67-6.19 6.5l-.21.12c-9.33 5.39-24.56 5.37-34-.06-3.23-1.86-5.38-4.15-6.29-6.6zm40.22 13.05l-.22.13c-9.2 5.31-24.21 5.28-33.46-.06a14 14 0 0 1-5.73-5.59 19.72 19.72 0 0 0 4.48 3.45c5 2.89 11.54 4.33 18.08 4.33s13-1.42 17.89-4.27l.21-.12a19.75 19.75 0 0 0 4.39-3.39 13.5 13.5 0 0 1-5.64 5.52z"/>
</symbol>
<symbol id="i-money" viewBox="0 0 191.49 196.21"><path fill="#fff31c" d="M110.15 74.57c6.8 3.92 17.77 3.94 24.52 0l.16-.09c6.75-3.9 6.71-10.24-.08-14.16s-17.77-3.94-24.52 0l-.15.09c-6.75 3.9-6.72 10.23.07 14.16zM61 130.22c6.79 3.92 17.76 3.94 24.51 0l.16-.08c6.75-3.9 6.71-10.24-.08-14.16s-17.77-3.94-24.52 0l-.15.09c-6.79 3.93-6.76 10.23.08 14.15zm24.56-26.94c6.79 3.92 17.77 3.94 24.52 0l.15-.09C117 99.33 117 93 110.15 89.07c-6.79-3.92-17.76-3.94-24.51 0l-.15.09c-6.76 3.84-6.72 10.19.07 14.12z"/><path fill="#2834af" d="M137.08 62.1c-.48-2.73-2.53-5.27-5.76-7.13a28.59 28.59 0 0 0-26.07 0l-.1.06C102 56.83 100 59.3 99.48 62c-.13.68-.14 10.39-.12 19.16a30.65 30.65 0 0 0-5.72-.53 26.26 26.26 0 0 0-12.91 3.1l-.18.1c-3.91 2.26-6 5.49-5.79 8.88v5.43h-.06a9.9 9.9 0 0 0 0 1.09c0 .12 0 .24.06.36v8.75a28.27 28.27 0 0 0-5.77-.63 26.12 26.12 0 0 0-13 3.14l-.1.06c-3.92 2.27-6 5.5-5.79 8.88v13.2c0 2.22 1 5.45 5.89 8.27a26.76 26.76 0 0 0 13.07 3.13 26.55 26.55 0 0 0 13-3.11l.09-.06c3.79-2.22 5.85-5.17 5.85-8.39v-2.6c6.53 1.26 13.67.32 18.58-2.51l.25-.13c3.73-2.17 5.78-5.14 5.77-8.36v-3.74c6.52 1.26 13.65.3 18.61-2.56l.19-.1c3.75-2.15 5.81-5.13 5.79-8.36V63.25a4.83 4.83 0 0 0-.11-1.15zm-7.16 48.12l-.18.1c-4.72 2.72-12 3.46-18.15 1.87l-.07-.25-.06-4.2v-.17a29.5 29.5 0 0 0 6.82.8 25.75 25.75 0 0 0 12.72-3.05l.17-.09a14.1 14.1 0 0 0 3.05-2.34v1.59c-.03 2.11-1.55 4.16-4.3 5.74zm-24.78 14.85c-4.58 2.64-11.58 3.41-17.64 2a13.33 13.33 0 0 0 0-1.38v-3.1a30.06 30.06 0 0 0 5.62.52 26.16 26.16 0 0 0 12.71-3l.17-.11a13 13 0 0 0 3.61-2.94v2.18c0 2.11-1.51 4.15-4.2 5.72zm-52 6.19a14.16 14.16 0 0 0 3.11 2.38c7.06 4.06 18.51 4.08 25.56 0l.11-.08a13.32 13.32 0 0 0 3-2.33v1.6c0 2.1-1.51 4.14-4.35 5.77l-.09.07c-6.32 3.65-16.65 3.62-23-.06-2-1.14-4.33-3-4.39-5.57v-.14zM85 126.41v1.43a5.59 5.59 0 0 1-.47.84 10.41 10.41 0 0 1-3.61 3.19l-.12.08c-6.46 3.72-17 3.7-23.53 0a9.51 9.51 0 0 1-4.1-4.12V125a14.45 14.45 0 0 0 3.12 2.28 27.25 27.25 0 0 0 12.82 2.92 26.89 26.89 0 0 0 12.64-2.87l.18-.09a13.8 13.8 0 0 0 3.18-2.37l-.1 1.54zm-7.23-28.53a14 14 0 0 0 3.11 2.3 27.11 27.11 0 0 0 12.82 2.94 26.72 26.72 0 0 0 12.67-2.9l.15-.08a14 14 0 0 0 3.06-2.26l-.06.66v.13a4.25 4.25 0 0 1-.06.71 5.3 5.3 0 0 1-.89 2.28 10.48 10.48 0 0 1-3.56 3.16l-.18.1c-6.47 3.73-17 3.71-23.52 0a10.8 10.8 0 0 1-3.54-3.09zm28.93-40.29l.1-.07a23.29 23.29 0 0 1 11.44-2.7 23.52 23.52 0 0 1 11.58 2.75c2.45 1.41 4 3.21 4.3 5.06 0 .23.06.36.07.45v2.43a9.42 9.42 0 0 1-4.05 4.06l-.16.09c-6.46 3.73-17 3.71-23.51 0a9.66 9.66 0 0 1-4.09-4c0-1.68 0-2.81.05-3 .33-1.93 1.83-3.66 4.27-5.07zM84 112.78l-2.27-.85-2-1.71a8.86 8.86 0 0 1-1.64-1.94c-.11-.18-.2-.36-.29-.54v-3a14.81 14.81 0 0 0 2.54 1.84c7 4.07 18.49 4.09 25.5 0l.17-.09a13.21 13.21 0 0 0 3.54-2.85l-.09 1.8v1.92c-.52 1.65-1.79 3-4 4.27l-.12.08c-5.67 3.37-14.65 3.79-21.34 1.07zm34.35-18.1A25.53 25.53 0 0 0 131 91.63l.53-.32a13.41 13.41 0 0 0 2.69-2.12v3.29a6.13 6.13 0 0 1-.39.7 10.16 10.16 0 0 1-3.54 3.14l-.2.11c-4.75 2.75-12 3.54-18.27 2L112 94a29.67 29.67 0 0 0 6.37.68zm-6.93 10.83l.24-5a30.1 30.1 0 0 0 6.58.74 26.26 26.26 0 0 0 12.79-3l.15-.08a13.29 13.29 0 0 0 3-2.27v3.66a6.18 6.18 0 0 1-.47.87 10.26 10.26 0 0 1-3.56 3.14l-.17.1c-4.83 2.69-12.27 3.46-18.54 1.84zm-8.52-25.64l-.16-.26a6.89 6.89 0 0 1-.39-.7V75.5a14.16 14.16 0 0 0 3.13 2.38A26.3 26.3 0 0 0 118.36 81a25.93 25.93 0 0 0 12.7-3l.26-.14a13.8 13.8 0 0 0 2.87-2.19v3.28a6.31 6.31 0 0 1-.42.76l-.13.22a10.39 10.39 0 0 1-3.54 3.08L130 83c-6.47 3.73-17 3.71-23.52 0a10.7 10.7 0 0 1-3.58-3.13zm30.9-6.93a9.94 9.94 0 0 1-3.39 3.06l-.33.18c-6.48 3.75-17.06 3.73-23.6 0a9.63 9.63 0 0 1-4.12-4.06V69a13.86 13.86 0 0 0 3.11 2.38 28.26 28.26 0 0 0 25.52 0l.15-.09a14.1 14.1 0 0 0 3.05-2.29v3.31a6.48 6.48 0 0 1-.39.63zM102.36 83.1v-.79a12.67 12.67 0 0 0 1.43 1.27c-.47-.17-.94-.33-1.43-.48zm15.91 4.67a26 26 0 0 0 12.75-3l.11-.07a13.66 13.66 0 0 0 3.06-2.35v3.48a5.15 5.15 0 0 1-.33.61 9.63 9.63 0 0 1-3.42 3.22l-.46.28c-4.67 2.71-11.8 3.51-17.95 2a8.47 8.47 0 0 0-3.65-5.87 28.38 28.38 0 0 0 9.89 1.7zm-24.59 28.79a26.1 26.1 0 0 0 12.74-3.06l.11-.08a13 13 0 0 0 3-2.27v.94a4.85 4.85 0 0 1-.15 1.19 5.34 5.34 0 0 1-.82 1.8 10.32 10.32 0 0 1-3.54 3.16l-.18.1c-4.53 2.61-11.35 3.44-17.35 2.2v-1.48h-.06a7.26 7.26 0 0 0-1.36-3.49 29.71 29.71 0 0 0 7.61.99zm-11.91-30l.16-.08a24.68 24.68 0 0 1 11.7-2.68 25.06 25.06 0 0 1 11.84 2.72c2.91 1.61 4.53 3.68 4.6 5.83l-.1 1c-.38 1.84-1.91 3.58-4.41 5l-.16.08c-6.47 3.59-17 3.57-23.55 0a9.47 9.47 0 0 1-4.09-3.88v-2c-.16-2 1.14-4 3.55-5.64.16-.14.3-.24.46-.33zM57.2 113.75l.12-.07A24.6 24.6 0 0 1 69 111a28.72 28.72 0 0 1 7 .85l.3.08a16.58 16.58 0 0 1 2 .63l.37.15a15.2 15.2 0 0 1 2.15 1 13 13 0 0 1 2.18 1.48l.21.17a6 6 0 0 1 2.23 4l-.06.94c-.31 1.9-1.87 3.72-4.44 5.14l-.16.09c-6.47 3.56-17 3.54-23.56 0a9.55 9.55 0 0 1-4.08-3.84v-2.1a5.82 5.82 0 0 1 2.31-4.68 12.35 12.35 0 0 1 1.75-1.16z"/>
</symbol>
<symbol id="i-positivity" viewBox="0 0 191.49 196.21"><path fill="#fff31c" d="M105.81 47.98V59.5l29.93 17.27 9.97-5.76V59.49l-29.92-17.27-9.98 5.76zm-9.12 74.19v11.51l29.92 17.28 9.98-5.76-.01-11.52-29.92-17.27-9.97 5.76zM83.73 97.03l29.92-17.28 9.97 5.76v11.51L93.69 114.3l-9.97-5.75.01-11.52zm0-68.16l29.92-17.28 9.97 5.76v11.51L93.69 46.15l-9.97-5.76.01-11.52z"/><path fill="#2834af" d="M70.69 109l-10-5.77-29.95 17.3-.95.59v12.64l11 6.34 30.92-17.85v-12.66zm-2 1.16l-27.92 16.1-8-4.6 27.92-16.12zM31.8 123.39l8 4.6v9.21l-8-4.6zm37.89-2.31L41.77 137.2V128l27.92-16.12zM144 23.93l.25-.14-.25-.14v-.92l-32-18.4-32.43 18.46v14.37l17.32 10-17.63 10V83.2l7.84 4.49L79.69 92v47.79l32.06 18.53 30.63-17.68 1.49-.81V115l-7.6-4.43 7.78-4.53zm-14-5.78l-28.3 16.41-8-4.61L122 13.56zm10.55 7.78v9.19l-27.88 16.12V42zm0 77.89v.41l-27.9 16.11v-9.21L140.6 95v8.81zm-17.66-.91V93.7l7.83-4.51v9.2zm-12.26-5.59l-8-4.61V83.5l8 4.61zm-8-36.84l8 4.61v9.19l-8-4.6zM132.75 42l7.82-4.52v9.2l-7.82 4.51zm-2 10.35l-7.83 4.52v-9.2l7.83-4.52zm-9.83 4.85l-7.25-4.2 7.25-4.18zm2 22.71v-7.76l6.7 3.87zm.73-9.62l7.1-4.1v8.2zm-12.14-16l.16-.09 8 4.6-8 4.59-8-4.59 7.8-4.51zm1.14 22.38l8.27-4.77V81l-8.27 4.78zm8.28 18.25v8.38l-7.26-4.19zm-8.26 2.44v-9.25L140.59 72v9.2zm20.08-23.09V65l7.83-4.52v9.19zm-20.07.07v-9.27L140.6 49v9.19zm-12-38v9.21l-8-4.6v-9.27zm-10-5.75v9.21l-8-4.61v-9.27zm19 22.46l-8 4.59-8-4.6 8-4.6zm-18.95 9.71l-7-4 7-4zm2-8.06l8 4.63v9.19l-8-4.6zm8 36.86l-8-4.6v-9.21l8 4.6zm-10-5.76l-8-4.6V72l8 4.61zm20.43 14.11l8.47 4.89-8 4.6-27.88-16.11 8-4.6zm-10.46 5.48v9.21l-8-4.6v-9.21zm10 5.77v9.2l-8-4.61v-9.2zm-11 16.68l-7 4v-8zm1 1.73v8.06l-7-4zm2 9.21v-9.21l8 4.61v9.21zm10-6.93v-9.19l8.24-4.76v9.19zm-22-9.18v9.2l-8-4.61v-9.2zm39.89-1.58v.41l-7.69 4.44v-9.2l7.83-4.51v8.86zM90.74 99.64v9.2l-8-4.6V95zm20 23v9.2l-27.99-16.1v-9.2zm0 23v8.52l-27.99-16.08v-8.51zm2 .41v-.42l8.25-4.76v8.6l-8.25 4.77zm10.25-6.34l7.83-4.52v8.6l-7.83 4.52zm9.83-5.67l7.83-4.52v8.6l-7.83 4.52zm-20.08 9.28v-9.21l27.92-16.12v9.21zm20.08-23.11v-7.9l6.84 3.95zm0-23V88l7.83-4.52v9.2zm-22.09-46l-8-4.61v-9.2l8 4.6zm-19-22.46l-8-4.6 28.34-16.31 8 4.57zm18.93 47.8v9.2L82.74 69.67v-9.2zm1-36.28l-8-4.6L132 19.3l8 4.61zM90.69 155.48l-11.09 6.4.11 12.61 30.92 17.85 11-6.34v-12.67zm27.91 18.43l-8 4.6-27.81-16.16 7.9-4.56zm-37-9.93l28 16.26v9.21l-27.9-16.12zm30 25.47v-9.21l8-4.6v9.21z"/>
</symbol>
<symbol id="i-up-arrow-white" viewBox="0 0 191.5 196.2"><path fill="#fed902" d="M114.5 65.3L91.6 38.8 68.7 91.7l11.5-6.6V138l22.9-13.2V71.9z"/><path fill="#fff" d="M98.3 42l-13.1-7.6-24.1 55.7L73 96.9v39.7l12.9 7.5 24.4-14.1V77.1l12.3-7.1-24.3-28zM64.9 88.8l21.7-50.1 9.3 5.4-21.7 50.1-9.3-5.4zm20 51.2l-8.9-5.2V96.3l8.9-5.2V140zm22.4-64.7v52.9L86.9 140V87.7l-10.3 6 20.8-48.2 20.5 23.7-10.6 6.1z"/>
</symbol>
<symbol id="i-up-arrow" viewBox="0 0 191.49 196.21"><path fill="#fff31c" d="M114.54 65.28l-22.9-26.44-22.9 52.89 11.45-6.61v52.89l22.91-13.22-.01-52.9 11.45-6.61z"/><path fill="#2834af" d="M122.59 70L98.34 42l-13.13-7.6-24.1 55.66L73 96.9v39.67l13 7.48L110.33 130V77.06zM95.9 44L74.2 94.15l-9.28-5.35 21.7-50.12zm-11 96l-9-5.17v-38.5l9-5.17zm-8.31-46.34l20.84-48.15 20.51 23.69-10.62 6.13v52.9L86.92 140V87.7z"/>
</symbol>
<symbol id="i-workout" viewBox="0 0 191.49 196.21"><path fill="#fff31c" d="M108.58 61.11l-80.31 46.37 61.89 35.73 80.24-46.32-61.82-35.78z"/><path fill="#2834af" d="M106.67 69.34l-5.92 3.42-1.44-.84 3.69-2.13-5 1.39-1.26-.73 2.41-2.89-3.7 2.14-1.45-.83 5.91-3.42 1.77 1-2.5 3.31 5.7-1.46zm6.47 3.66l-6 1.1-2 1.14-1.46-.84 2-1.14 1.9-3.5 1.66 1-1.27 2.07 3.58-.74zm-14.98 3.16l-7.39 2.61-1.8-1 3-2.85-5 1.74-1.8-1 4.52-4.26 1.58.91-3.54 2.93 5.36-1.88 1.59.92-3.18 3.01 5.09-2zm5.1 3.29a1.4 1.4 0 0 1 0 1.26 2.61 2.61 0 0 1-1.17 1.13 5.47 5.47 0 0 1-2 .68 7.24 7.24 0 0 1-2.18 0 5.74 5.74 0 0 1-1.91-.66 2.66 2.66 0 0 1-1.14-1.11 1.4 1.4 0 0 1 0-1.26A2.73 2.73 0 0 1 96 78.35a5.68 5.68 0 0 1 2-.68 6.93 6.93 0 0 1 2.18 0 5.26 5.26 0 0 1 1.92.66 2.63 2.63 0 0 1 1.16 1.12zm-4.08-.73a3.61 3.61 0 0 0-1.67.48c-.52.3-.79.62-.82 1s.19.65.67.92a3 3 0 0 0 1.59.39 3.58 3.58 0 0 0 1.67-.48c.52-.3.79-.62.82-1s-.19-.65-.66-.92a3 3 0 0 0-1.6-.39zm4.06 7.28l1-2-.33-.19-2.3 1.19-1.45-.84 6-3.44 2.48 1.43a2.55 2.55 0 0 1 1 .84.85.85 0 0 1 .07.81 1.71 1.71 0 0 1-.73.7 3.36 3.36 0 0 1-1.46.43 4.08 4.08 0 0 1-1.67-.24l-.92 2.17zm1.6-2.81l.9.52a1.9 1.9 0 0 0 .83.26 1.53 1.53 0 0 0 .76-.21c.24-.14.35-.28.35-.44s-.15-.32-.43-.48l-.9-.52zm6.83 4.13l-.67 3.15-1.75-1 .63-2.72-2.67 1.55-1.45-.84 6-3.44 1.45.84-2.62 1.51 4.67-.33L117 87zM122 90.24a1.38 1.38 0 0 1 0 1.25 2.79 2.79 0 0 1-1.17 1.14 5.81 5.81 0 0 1-2 .68 7.24 7.24 0 0 1-2.18 0 5.59 5.59 0 0 1-1.92-.66 2.66 2.66 0 0 1-1.14-1.11 1.43 1.43 0 0 1 0-1.26 2.66 2.66 0 0 1 1.18-1.14 5.68 5.68 0 0 1 2-.68 6.93 6.93 0 0 1 2.18 0 5.52 5.52 0 0 1 1.92.65 2.7 2.7 0 0 1 1.13 1.13zm-4.08-.73a3.39 3.39 0 0 0-1.67.48c-.52.3-.8.62-.83 1s.2.65.67.92a2.93 2.93 0 0 0 1.59.38 3.42 3.42 0 0 0 1.67-.47c.52-.3.8-.62.83-1s-.19-.65-.67-.92a2.85 2.85 0 0 0-1.64-.39zm8.29 2.84l-3.44 2c-.39.22-.6.45-.63.67s.12.43.46.63a2.08 2.08 0 0 0 1.09.27 2.58 2.58 0 0 0 1.17-.37l3.43-2 1.45.83-3.43 2a5.27 5.27 0 0 1-1.75.63 5.52 5.52 0 0 1-1.77 0 5.21 5.21 0 0 1-1.59-.58 2.48 2.48 0 0 1-1-.9 1 1 0 0 1 0-1 2.7 2.7 0 0 1 1.11-1l3.44-2zm9.06 5.23l-1.15.67-1.62-.94-4.81 2.77-1.46-.84 4.77-2.78-1.61-.93 1.14-.66zm-.22 5.82a4.07 4.07 0 0 1-1.34-.05 4.39 4.39 0 0 1-1.38-.52 2.23 2.23 0 0 1-1.17-1.24c-.11-.44.11-.84.65-1.2l1.54.89c-.2.15-.3.29-.29.45s.13.29.34.42a1.24 1.24 0 0 0 .59.16 1 1 0 0 0 .57-.14c.15-.09.23-.19.23-.3a.65.65 0 0 0-.12-.36 5.85 5.85 0 0 0-.38-.48 5.51 5.51 0 0 1-.55-.76.81.81 0 0 1-.08-.66 1.28 1.28 0 0 1 .67-.69 2.77 2.77 0 0 1 1.19-.37 3.81 3.81 0 0 1 1.34.09 4.57 4.57 0 0 1 1.31.51c.66.38 1 .78 1.11 1.19s-.13.79-.63 1.13l-1.57-.9a.53.53 0 0 0 .26-.4c0-.13-.1-.25-.3-.37a1.17 1.17 0 0 0-.55-.16 1 1 0 0 0-.55.14.38.38 0 0 0-.22.29.59.59 0 0 0 .11.34c.08.12.21.28.38.49a4.36 4.36 0 0 1 .55.76.85.85 0 0 1 .08.68 1.35 1.35 0 0 1-.68.7 3.09 3.09 0 0 1-1.11.36z"/><path fill="#2834af" d="M105.09 53.91l-81.81 47.24v5.59l63.4 36.6 81.73-47.19v-5.59zm-19.42 85.38L26.28 105v-1l59.39 34.29zm-58.39-37l77.81-44.92 59.32 34.33-77.74 44.89zm60.39 36l77.74-44.88v1l-77.74 44.88z"/><path fill="#2834af" d="M83.17 87.1l37.29 21.54a1 1 0 1 0 1-1.74L84.17 85.37a1 1 0 0 0-1.37.37 1 1 0 0 0 .37 1.36zm-8.44-4.87L77.85 84a1 1 0 0 0 .49.13 1 1 0 0 0 .87-.5 1 1 0 0 0-.36-1.36l-3.12-1.8a1 1 0 1 0-1 1.73zm-12.99 7.5l3.12 1.8a1 1 0 0 0 1.37-.37 1 1 0 0 0-.37-1.36L62.74 88a1 1 0 0 0-1 1.74zm-6.13 3.53l3.12 1.8a.93.93 0 0 0 .5.14 1 1 0 0 0 .5-1.87l-3.12-1.8a1 1 0 0 0-1 1.73zm-8.86 7.57L43.63 99a1 1 0 1 0-1 1.73l3.12 1.8a1 1 0 0 0 1-1.73zm68.25 9.78L77.74 89.08a1 1 0 0 0-1 1.73L114 112.34a1 1 0 0 0 1-1.73zM70.18 94.6l37.29 21.53a1 1 0 0 0 .5.14 1 1 0 0 0 .5-1.87L71.18 92.87a1 1 0 0 0-1 1.73zm32.52 23.54L65.41 96.61a1 1 0 1 0-1 1.73l37.29 21.53a1 1 0 0 0 1.37-.36 1 1 0 0 0-.37-1.37zm-6.42 3.71L59 100.32a1 1 0 0 0-1.36.36 1 1 0 0 0 .36 1.37l37.3 21.53a1 1 0 0 0 .5.13 1 1 0 0 0 .86-.5 1 1 0 0 0-.38-1.36zm-7.07 5.65a1 1 0 0 0 .51-1.86l-37.3-21.53a1 1 0 0 0-1.36.36 1 1 0 0 0 .36 1.37l37.3 21.53a1 1 0 0 0 .49.13z"/>
</symbol>
<symbol id="instagram" viewBox="0 0 32 32"><path d="M23.7 10c-1 0-1.7-.8-1.7-1.7 0-1 .8-1.7 1.7-1.7 1 0 1.7.8 1.7 1.7.1.9-.7 1.7-1.7 1.7M16 11.2c-2.7 0-4.8 2.2-4.8 4.8s2.2 4.8 4.8 4.8c2.7 0 4.8-2.2 4.8-4.8s-2.1-4.8-4.8-4.8m0 12.2c-4.1 0-7.4-3.3-7.4-7.4 0-4.1 3.3-7.4 7.4-7.4 4.1 0 7.4 3.3 7.4 7.4 0 4.1-3.3 7.4-7.4 7.4M7.4 4.7c-.6.3-1.1.6-1.6 1.1-.5.5-.8 1-1.1 1.7-.8 1.9-.6 6.4-.6 8.5 0 2.1-.2 6.6.6 8.6.3.7.6 1.2 1.1 1.7.5.5 1 .8 1.7 1.1 1.9.8 6.4.6 8.5.6 2.1 0 6.6.2 8.6-.6.7-.3 1.2-.6 1.7-1.1.5-.5.8-1 1.1-1.7.8-1.9.6-6.4.6-8.6 0-2.1.2-6.6-.6-8.5-.3-.7-.6-1.2-1.1-1.7-.5-.5-1-.8-1.7-1.1-1.9-.8-6.4-.6-8.6-.6-2.1 0-6.6-.2-8.6.6m23 17.3c-.1 2.3-.6 4.4-2.3 6.1-1.7 1.7-3.8 2.2-6.1 2.3-2 .1-4 .1-6 .1s-4 0-6-.1c-2.3-.1-4.4-.6-6.1-2.3-1.7-1.7-2.2-3.8-2.3-6.1-.1-2-.1-4-.1-6s0-4 .1-6c.1-2.3.6-4.4 2.3-6.1C5.6 2.2 7.7 1.7 10 1.6c2-.1 4-.1 6-.1s4 0 6 .1c2.3.1 4.4.6 6.1 2.3 1.7 1.7 2.2 3.8 2.3 6.1.1 2 .1 4 .1 6s0 4-.1 6"/>
</symbol>
<symbol id="link" viewBox="0 0 32 32"><path d="M26.5 24.1l-2.4 2.4c-.3.4-.7.5-1.1.5-.4 0-.8-.1-1.1-.4l-3.4-3.4c-.3-.4-.5-.8-.5-1.2 0-.5.2-.9.5-1.2.5.5 1 1.2 1.9 1.2.9 0 1.6-.7 1.6-1.6 0-.8-.6-1.3-1.2-1.9.3-.3.7-.5 1.2-.5.4 0 .8.2 1.1.5l3.4 3.4c.3.3.5.7.5 1.1 0 .5-.2.9-.5 1.1m-12-11.9c-.5-.5-1-1.2-1.8-1.2-.9 0-1.6.7-1.6 1.6 0 .8.6 1.3 1.2 1.9-.4.3-.8.5-1.3.5-.4 0-.8-.1-1.1-.4l-3.4-3.4c-.3-.4-.5-.8-.5-1.2 0-.4.2-.8.5-1.1l2.4-2.4c.3-.3.7-.5 1.1-.5.4 0 .8.2 1.1.5l3.4 3.4c.3.3.5.7.5 1.1 0 .5-.2.9-.5 1.2m14.1 7.3L25.2 16c-.9-.9-2.1-1.4-3.4-1.4-1.3 0-2.5.5-3.4 1.5l-1.5-1.5c.9-.9 1.5-2.2 1.5-3.5 0-1.3-.5-2.5-1.4-3.4l-3.4-3.4c-.9-.8-2.1-1.3-3.4-1.3-1.3 0-2.5.5-3.4 1.4L4.4 6.8C3.5 7.7 3 8.9 3 10.1c0 1.3.5 2.5 1.4 3.4L7.8 17c.9.9 2.1 1.4 3.4 1.4 1.3 0 2.5-.5 3.4-1.5l1.5 1.5c-.9.9-1.5 2.2-1.5 3.5 0 1.3.5 2.5 1.4 3.4l3.4 3.4c.9.9 2.1 1.4 3.4 1.4 1.3 0 2.5-.5 3.4-1.4l2.4-2.4c.9-.9 1.4-2.1 1.4-3.4 0-1.3-.5-2.5-1.4-3.4"/>
</symbol>
<symbol id="linkedin" viewBox="0 0 32 32"><path d="M9 11.9H3.8v15.5H9V11.9zm.3-4.8c0-1.5-1.1-2.7-2.9-2.7-1.8 0-2.9 1.2-2.9 2.7 0 1.5 1.1 2.7 2.8 2.7 1.9 0 3-1.2 3-2.7zm7.7 7v-2.2h-5.1s.1 1.5 0 15.5H17v-8.6c0-.5 0-.9.2-1.3.4-.9 1.2-1.9 2.6-1.9 1.9 0 2.6 1.4 2.6 3.5v8.3h5.1v-8.9c0-4.7-2.5-7-5.9-7-2.7.1-3.9 1.6-4.6 2.6z"/>
</symbol>
<symbol id="location" viewBox="0 0 32 32"><path d="M16 16c-2.8 0-5-2.2-5-5s2.2-5 5-5 5 2.2 5 5-2.2 5-5 5m0-15C10.5 1 6 5.5 6 11c0 1.2.1 2.4.6 3.5l7.1 15.1c.4.9 1.3 1.4 2.2 1.4.9 0 1.8-.5 2.2-1.4l7.1-15.1c.5-1.1.6-2.3.6-3.5C26 5.5 21.5 1 16 1"/>
</symbol>
<symbol id="logo-vertical" viewBox="0 0 199.17 73.85"><path d="M110.33 2l-8.86 8.86 8.86 8.86 8.86-8.86zm0 23.11L101.47 34l8.86 8.86L119.2 34zm11.54-11.54L113 22.43l8.86 8.86 8.86-8.86zm-33.2 29.26L97.53 34l-8.86-8.86L79.8 34zm0-23.07l8.86-8.86L88.67 2l-8.87 8.9zM77.13 31.29L86 22.43l-8.86-8.86-8.86 8.86zM4.67 61.47a4.35 4.35 0 0 1 3.54-1.7C11.35 59.78 14 62.15 14 66c0 3.29-2.1 6.34-5.78 6.34a4.58 4.58 0 0 1-3.57-1.61V72H1.89V55.11h2.78zm-.17 4.65c0 2.49 1.61 3.77 3.37 3.77 2 0 3.31-1.73 3.31-3.79s-1.3-3.82-3.31-3.82c-1.76-.01-3.37 1.23-3.37 3.84zm15.36-11.01V72h-2.77V55.11zm12.22 4.98h2.78V72h-2.78v-1.24a4.58 4.58 0 0 1-3.57 1.61c-3.68 0-5.78-3.06-5.78-6.34 0-3.88 2.66-6.26 5.81-6.26a4.35 4.35 0 0 1 3.54 1.7zm-6.51 6c0 2.07 1.3 3.79 3.31 3.79 1.76 0 3.37-1.27 3.37-3.77s-1.61-3.85-3.37-3.85c-2.01.01-3.31 1.74-3.31 3.83zm21.75-2.35A4.68 4.68 0 0 0 44 62.27a3.57 3.57 0 0 0-2.63 1 3.81 3.81 0 0 0-1 2.75 4 4 0 0 0 1.08 2.86 3.61 3.61 0 0 0 2.52 1 4.65 4.65 0 0 0 3.43-1.53v3.09a6.53 6.53 0 0 1-3.62.93 5.81 5.81 0 0 1-4.53-1.76 6.2 6.2 0 0 1-1.7-4.47 6.37 6.37 0 0 1 1.81-4.62 6.47 6.47 0 0 1 4.79-1.76 6.4 6.4 0 0 1 3.26.85zm6.06-8.63v9l3.88-4h3.68l-5.13 5 5.49 7h-3.5l-3.91-5.1-.51.51V72h-2.77V55.11zm14.83 8.12a2 2 0 0 0-1.7-1 1.18 1.18 0 0 0-.85.31.9.9 0 0 0-.25.62.76.76 0 0 0 .4.68c.17.11.34.17.93.48l1.42.71a5.72 5.72 0 0 1 1.67 1.1 2.94 2.94 0 0 1 .88 2.21 4 4 0 0 1-1 2.72 4.26 4.26 0 0 1-3.34 1.33 4.1 4.1 0 0 1-2.58-.76 4.65 4.65 0 0 1-1.53-2.18l2.27-1.08a3.14 3.14 0 0 0 .65 1.13 1.7 1.7 0 0 0 1.22.45 1.67 1.67 0 0 0 1.13-.4 1.41 1.41 0 0 0 .4-.93 1.29 1.29 0 0 0-.37-.91 3.66 3.66 0 0 0-1.25-.71l-1-.48a5.88 5.88 0 0 1-1.64-1 2.6 2.6 0 0 1-.85-2 3.72 3.72 0 0 1 1-2.55 3.84 3.84 0 0 1 2.92-1.13 3.73 3.73 0 0 1 2.21.62 4.09 4.09 0 0 1 1.36 1.47zm9.36-.59V72H74.8v-9.36h-2.53v-2.55h2.53v-5h2.78v5h2.54v2.55zm16.52 3.42a6.37 6.37 0 1 1-6.37-6.29 6.19 6.19 0 0 1 6.37 6.29zm-2.83 0a3.55 3.55 0 1 0-7.08 0c0 2.29 1.36 3.79 3.54 3.79s3.54-1.47 3.54-3.76zm5.55-5.97h2.78v1.1a4.11 4.11 0 0 1 3.23-1.42 4 4 0 0 1 3.51 1.61 5.33 5.33 0 0 1 .74 3.31V72h-2.78v-6.62c0-3-1.13-3.12-2.18-3.12-1.25 0-2.52.17-2.52 4V72h-2.78zm24.19 9.2a6.25 6.25 0 0 1-2 2.18 6.56 6.56 0 0 1-3.51.91 5.29 5.29 0 0 1-4-1.53 6.4 6.4 0 0 1-1.76-4.56 7 7 0 0 1 1.9-4.9 5.43 5.43 0 0 1 4-1.61 5.13 5.13 0 0 1 3.82 1.56 7.16 7.16 0 0 1 1.67 5v.34h-8.55a3.94 3.94 0 0 0 1 2.41 2.84 2.84 0 0 0 2.12.76 2.92 2.92 0 0 0 1.9-.59 4.31 4.31 0 0 0 1.1-1.3zm-2.75-4.84a2.88 2.88 0 0 0-.85-1.61 2.89 2.89 0 0 0-3.82.08 3.12 3.12 0 0 0-.85 1.53zm12.39-4.36h2.78v1.1a3.67 3.67 0 0 1 2.95-1.42 3.5 3.5 0 0 1 3.09 1.76 4.22 4.22 0 0 1 3.54-1.75 3.82 3.82 0 0 1 3.4 1.87 5.87 5.87 0 0 1 .62 3V72h-2.78v-6.56a5.53 5.53 0 0 0-.25-2.12 1.57 1.57 0 0 0-1.59-1 2.05 2.05 0 0 0-1.64.88 4.84 4.84 0 0 0-.54 2.72V72h-2.78v-6.56a5.53 5.53 0 0 0-.25-2.12 1.57 1.57 0 0 0-1.59-1 2.05 2.05 0 0 0-1.64.88 4.84 4.84 0 0 0-.54 2.72V72h-2.78zm30.25 9.2a6.25 6.25 0 0 1-2 2.18 6.56 6.56 0 0 1-3.51.91 5.29 5.29 0 0 1-4-1.53 6.4 6.4 0 0 1-1.76-4.56 7 7 0 0 1 1.9-4.9 5.43 5.43 0 0 1 4-1.61 5.13 5.13 0 0 1 3.82 1.56 7.16 7.16 0 0 1 1.67 5v.34h-8.55a3.94 3.94 0 0 0 1 2.41 2.84 2.84 0 0 0 2.12.76 2.92 2.92 0 0 0 1.9-.59 4.31 4.31 0 0 0 1.1-1.3zm-2.75-4.84a2.88 2.88 0 0 0-.85-1.61 2.89 2.89 0 0 0-3.82.08 3.12 3.12 0 0 0-.85 1.53zm14.67-9.34h2.78V72h-2.78v-1.24a4.58 4.58 0 0 1-3.57 1.61c-3.68 0-5.78-3.06-5.78-6.34 0-3.88 2.66-6.26 5.81-6.26a4.35 4.35 0 0 1 3.54 1.7zm-6.51 11c0 2.07 1.3 3.79 3.31 3.79 1.76 0 3.37-1.27 3.37-3.77s-1.61-3.85-3.37-3.85c-2.01-.01-3.31 1.72-3.31 3.81zm14.52-12.74a1.78 1.78 0 1 1-1.82 1.79 1.74 1.74 0 0 1 1.82-1.79zm1.39 6.71V72h-2.78V60.09zm12.12.01h2.78V72h-2.78v-1.24a4.58 4.58 0 0 1-3.57 1.61c-3.68 0-5.78-3.06-5.78-6.34 0-3.88 2.66-6.26 5.81-6.26a4.35 4.35 0 0 1 3.54 1.7zm-6.51 6c0 2.07 1.3 3.79 3.31 3.79 1.76 0 3.37-1.27 3.37-3.77s-1.61-3.85-3.37-3.85c-2.01.01-3.31 1.74-3.31 3.83z"/>
</symbol>
<symbol id="logo-symbol" viewBox="0 0 142 93.33"><path d="M93.76 3.33L75 22.08l18.76 18.76 18.75-18.75zm0 48.83L75 70.92l18.76 18.75 18.75-18.75zm24.42-24.41L99.43 46.5l18.75 18.75 18.75-18.75zM47.91 89.67l18.75-18.75-18.75-18.76-18.76 18.76zm0-48.83l18.75-18.76L47.91 3.33 29.15 22.08zM23.49 65.25L42.24 46.5 23.49 27.75 4.74 46.5z"/>
</symbol>
<symbol id="logo" viewBox="0 0 300.25 34.5"><path d="M33 1.95l-6.84 6.82L33 15.59l6.8-6.82zm0 17.76l-6.82 6.82L33 33.35l6.82-6.82zm8.86-8.88L35 17.65l6.82 6.82 6.82-6.82zM16.31 33.35l6.82-6.82-6.82-6.82-6.82 6.82zm0-17.76l6.82-6.82-6.82-6.82-6.82 6.82zm-8.88 8.88l6.82-6.82-6.82-6.82-6.82 6.82zm59.16-9.71a5.23 5.23 0 0 1 4.26-2c3.78 0 7 2.86 7 7.53 0 4-2.52 7.63-6.95 7.63a5.51 5.51 0 0 1-4.29-1.94v1.5h-3.35V7.1h3.34zm-.2 5.58c0 3 1.94 4.53 4.05 4.53 2.42 0 4-2.08 4-4.56s-1.57-4.6-4-4.6c-2.11 0-4.05 1.5-4.05 4.63zM84.87 7.1v20.33h-3.34V7.1zm14.69 5.99h3.34v14.34h-3.34v-1.5a5.51 5.51 0 0 1-4.29 1.94c-4.43 0-6.95-3.68-6.95-7.63 0-4.67 3.2-7.53 7-7.53a5.23 5.23 0 0 1 4.26 2zm-7.83 7.22c0 2.49 1.57 4.56 4 4.56 2.11 0 4.05-1.53 4.05-4.53s-1.94-4.63-4.05-4.63c-2.43 0-4 2.05-4 4.6zm26.16-2.83a5.63 5.63 0 0 0-4.05-1.77 4.29 4.29 0 0 0-3.17 1.29 4.58 4.58 0 0 0-1.23 3.3 4.75 4.75 0 0 0 1.29 3.44 4.34 4.34 0 0 0 3 1.16 5.59 5.59 0 0 0 4.16-1.9v3.71a7.85 7.85 0 0 1-4.36 1.12 7 7 0 0 1-5.45-2.11 7.45 7.45 0 0 1-2-5.38 7.66 7.66 0 0 1 2.18-5.55 7.78 7.78 0 0 1 5.74-2.07 7.7 7.7 0 0 1 3.92 1zm7.28-10.38v10.79l4.67-4.8h4.43l-6.16 6 6.61 8.38h-4.22l-4.7-6.13-.61.61v5.52h-3.34V7.1zM143 16.87a2.4 2.4 0 0 0-2-1.23 1.41 1.41 0 0 0-1 .37 1.08 1.08 0 0 0-.31.75.92.92 0 0 0 .48.82c.2.14.41.2 1.12.58l1.7.85a6.88 6.88 0 0 1 2 1.33A3.54 3.54 0 0 1 146 23a4.76 4.76 0 0 1-1.26 3.27 5.12 5.12 0 0 1-4 1.6 4.94 4.94 0 0 1-3.1-.92 5.59 5.59 0 0 1-1.84-2.62l2.7-1.33a3.77 3.77 0 0 0 .78 1.36 2 2 0 0 0 1.46.54 2 2 0 0 0 1.36-.48 1.69 1.69 0 0 0 .48-1.12 1.55 1.55 0 0 0-.44-1.09 4.4 4.4 0 0 0-1.43-.89l-1.23-.58a7.07 7.07 0 0 1-2-1.23 3.13 3.13 0 0 1-1-2.42 4.48 4.48 0 0 1 1.19-3.06 4.62 4.62 0 0 1 3.51-1.36 4.49 4.49 0 0 1 2.66.75 4.92 4.92 0 0 1 1.63 1.77zm11.26-.72v11.28h-3.34V16.15h-3v-3.06h3v-6h3.34v6h3.06v3.06zm19.86 4.13a7.66 7.66 0 0 1-15.32 0 7.66 7.66 0 0 1 15.32 0zm-3.41 0c0-3.27-2.15-4.6-4.26-4.6s-4.26 1.33-4.26 4.6c0 2.76 1.63 4.56 4.26 4.56s4.27-1.77 4.27-4.53zm6.68-7.19h3.34v1.33a4.94 4.94 0 0 1 3.88-1.7 4.79 4.79 0 0 1 4.22 1.94c.54.78.89 1.77.89 4v8.79h-3.34v-8c0-3.64-1.36-3.75-2.62-3.75-1.5 0-3 .2-3 4.84v6.88h-3.34zm29.06 11.07a7.52 7.52 0 0 1-2.45 2.62 7.89 7.89 0 0 1-4.22 1.09A6.36 6.36 0 0 1 195 26a7.7 7.7 0 0 1-2.11-5.48 8.4 8.4 0 0 1 2.28-5.89 6.53 6.53 0 0 1 4.8-1.94 6.17 6.17 0 0 1 4.6 1.87 8.61 8.61 0 0 1 2 6.06v.41h-10.3A4.74 4.74 0 0 0 197.5 24a3.41 3.41 0 0 0 2.55.92 3.51 3.51 0 0 0 2.28-.72 5.18 5.18 0 0 0 1.33-1.57zm-3.3-5.82a3.47 3.47 0 0 0-1-1.94 3.48 3.48 0 0 0-4.6.1 3.76 3.76 0 0 0-1 1.84zm14.92-5.25h3.34v1.33a4.42 4.42 0 0 1 3.54-1.7 4.21 4.21 0 0 1 3.71 2.11 5.08 5.08 0 0 1 4.26-2.11A4.59 4.59 0 0 1 237 15a7.06 7.06 0 0 1 .75 3.61v8.85h-3.34v-7.9a6.65 6.65 0 0 0-.31-2.55 1.89 1.89 0 0 0-1.91-1.26 2.47 2.47 0 0 0-2 1.06 5.82 5.82 0 0 0-.65 3.27v7.39h-3.34v-7.9a6.65 6.65 0 0 0-.31-2.55 1.89 1.89 0 0 0-1.89-1.31 2.47 2.47 0 0 0-2 1.06 5.82 5.82 0 0 0-.65 3.27v7.39h-3.34zm36.38 11.07a7.52 7.52 0 0 1-2.45 2.62 7.89 7.89 0 0 1-4.22 1.09A6.36 6.36 0 0 1 243 26a7.7 7.7 0 0 1-2.11-5.48 8.4 8.4 0 0 1 2.28-5.89 6.53 6.53 0 0 1 4.8-1.94 6.17 6.17 0 0 1 4.6 1.87 8.61 8.61 0 0 1 2 6.06v.41h-10.3a4.74 4.74 0 0 0 1.22 2.97 3.41 3.41 0 0 0 2.55.92 3.51 3.51 0 0 0 2.28-.72 5.18 5.18 0 0 0 1.33-1.57zm-3.3-5.82a3.47 3.47 0 0 0-1-1.94 3.48 3.48 0 0 0-4.6.1 3.76 3.76 0 0 0-1 1.84zM268.78 7.1h3.34v20.33h-3.34v-1.5a5.51 5.51 0 0 1-4.29 1.94c-4.43 0-6.95-3.68-6.95-7.63 0-4.67 3.2-7.53 7-7.53a5.23 5.23 0 0 1 4.26 2zm-7.83 13.21c0 2.49 1.57 4.56 4 4.56 2.11 0 4.05-1.53 4.05-4.53s-1.94-4.63-4.05-4.63c-2.44 0-4 2.05-4 4.6zM278.42 5a2.09 2.09 0 0 1 2.15 2.15 2.15 2.15 0 0 1-4.29 0A2.09 2.09 0 0 1 278.42 5zm1.67 8.07v14.36h-3.34V13.09zm14.57.02H298v14.34h-3.34v-1.5a5.51 5.51 0 0 1-4.29 1.94c-4.43 0-6.95-3.68-6.95-7.63 0-4.67 3.2-7.53 7-7.53a5.23 5.23 0 0 1 4.26 2zm-7.83 7.22c0 2.49 1.57 4.56 4 4.56 2.11 0 4.05-1.53 4.05-4.53s-1.94-4.63-4.05-4.63c-2.43 0-4 2.05-4 4.6z"/>
</symbol>
<symbol id="minus" viewBox="0 0 32 32"><path d="M1 13h30v5.2H1z"/>
</symbol>
<symbol id="plus" viewBox="0 0 32 32"><path d="M18.6 13.4V1h-5.2v12.4H1v5.2h12.4V31h5.2V18.6H31v-5.2z"/>
</symbol>
<symbol id="pointer-down" viewBox="0 0 32 32"><path d="M4 10l12 12 12-12z"/>
</symbol>
<symbol id="pointer-left" viewBox="0 0 32 32"><path d="M22 4L10 16l12 12z"/>
</symbol>
<symbol id="pointer-right" viewBox="0 0 32 32"><path d="M10 28l12-12L10 4z"/>
</symbol>
<symbol id="pointer-up" viewBox="0 0 32 32"><path d="M28 22L16 10 4 22z"/>
</symbol>
<symbol id="quote" viewBox="0 0 32 32"><path d="M28.4 14.8c2 0 3.6 1.6 3.6 3.5v7.1c0 2-1.6 3.5-3.6 3.5h-7.2c-2 0-3.6-1.6-3.6-3.5v-13C17.7 7.2 22 3 27.2 3h1.2c.7 0 1.2.5 1.2 1.2v2.4c0 .6-.5 1.2-1.2 1.2h-1.2c-2.6 0-4.8 2.1-4.8 4.7v.5c0 1 .8 1.8 1.8 1.8h4.2zm-16.7 0c2 0 3.6 1.6 3.6 3.5v7.1c0 2-1.6 3.5-3.6 3.5H4.6c-2 0-3.6-1.6-3.6-3.5v-13C1 7.2 5.3 3 10.5 3h1.2c.7 0 1.2.5 1.2 1.2v2.4c0 .6-.5 1.2-1.2 1.2h-1.2c-2.6 0-4.8 2.1-4.8 4.7v.5c0 1 .8 1.8 1.8 1.8h4.2z"/>
</symbol>
<symbol id="twitter" viewBox="0 0 32 32"><path d="M28 8.6c-.9.4-1.8.6-2.8.7 1-.6 1.8-1.5 2.1-2.6-.9.5-2 1-3 1.2-.9-.9-2.1-1.5-3.5-1.5-2.7 0-4.8 2.2-4.8 4.8 0 .4 0 .7.1 1.1-4-.2-7.5-2.1-9.9-5-.4.6-.6 1.5-.6 2.4 0 1.7.8 3.1 2.1 4-.8 0-1.5-.3-2.2-.6v.1c0 2.3 1.6 4.3 3.8 4.7-.3 0-.7.1-1.2.1-.3 0-.6 0-.9-.1.6 1.9 2.4 3.3 4.5 3.3-1.6 1.3-3.7 2-6 2-.4 0-.8 0-1.2-.1 2.1 1.4 4.6 2.2 7.4 2.2 8.8 0 13.6-7.3 13.6-13.6v-.6c1-.7 1.8-1.5 2.5-2.5z"/>
</symbol></svg>