<?xml version="1.0" encoding="UTF-8"?>
<svg width="200px" height="200px" viewBox="0 0 200 200" version="1.1" xmlns="http://www.w3.org/2000/svg" xmlns:xlink="http://www.w3.org/1999/xlink">
    <!-- Generator: Sketch 49.2 (51160) - http://www.bohemiancoding.com/sketch -->
    <title>Pattern Blue (For Blue BG)</title>
    <desc>Created with Sketch.</desc>
    <defs></defs>
    <g id="Pattern-Blue-(For-Blue-BG)" stroke="none" stroke-width="1" fill="none" fill-rule="evenodd">
        <g id="Dots-and-Boxes" transform="translate(-2.000000, -2.000000)">
            <g id="SQ-lt-blue-Outline-4-corners-Copy-3" transform="translate(0.500000, 0.500000)" stroke="#4E5AD5">
                <rect id="Rectangle-2-Copy-5" x="0.5" y="0.5" width="2" height="2"></rect>
            </g>
            <g id="Outline-Squares-" stroke="#4E5AD5">
                <g id="SQ-lt-blue-Outline-4-corners-Copy" transform="translate(0.500000, 100.500000)">
                    <rect id="Rectangle-2-Copy-5" x="0.5" y="0.5" width="2" height="2"></rect>
                    <rect id="Rectangle-2-Copy-7" x="100.5" y="0.5" width="2" height="2"></rect>
                    <rect id="Rectangle-2-Copy-12" x="200.5" y="0.5" width="2" height="2"></rect>
                </g>
                <g id="SQ-lt-blue-Outline-4-corners-Copy-2" transform="translate(0.500000, 200.500000)">
                    <rect id="Rectangle-2-Copy-5" x="0.5" y="0.5" width="2" height="2"></rect>
                    <rect id="Rectangle-2-Copy-6" x="100.5" y="0.5" width="2" height="2"></rect>
                    <rect id="Rectangle-2-Copy-11" x="200.5" y="0.5" width="2" height="2"></rect>
                </g>
                <g id="SQ-lt-blue-Outline-Copy" transform="translate(100.500000, 0.500000)">
                    <rect id="Rectangle-2-Copy-5" x="0.5" y="0.5" width="2" height="2"></rect>
                </g>
                <g id="SQ-lt-blue-Outline-Copy-2" transform="translate(200.500000, 0.500000)">
                    <rect id="Rectangle-2-Copy-5" x="0.5" y="0.5" width="2" height="2"></rect>
                </g>
            </g>
            <g id="Circ-dk-blue-" transform="translate(50.500000, 50.500000)" fill="#00017C">
                <rect id="Rectangle-2-Copy-17" x="0" y="0" width="3" height="3" rx="1.5"></rect>
                <rect id="Rectangle-2-Copy-15" x="100" y="0" width="3" height="3" rx="1.5"></rect>
                <rect id="Rectangle-2-Copy-20" x="0" y="100" width="3" height="3" rx="1.5"></rect>
                <rect id="Rectangle-2-Copy-18" x="100" y="100" width="3" height="3" rx="1.5"></rect>
            </g>
        </g>
        <g id="Dashes" transform="translate(-5.000000, -5.000000)">
            <g id="Group" transform="translate(0.000000, 50.000000)" fill="#4E5AD5">
                <path d="M2.36396103,2.36396103 L3.36396103,2.36396103 L3.36396103,11.363961 L2.36396103,11.363961 L2.36396103,2.36396103 Z M4.36396103,2.36396103 L5.36396103,2.36396103 L5.36396103,11.363961 L4.36396103,11.363961 L4.36396103,2.36396103 Z M6.36396103,2.36396103 L7.36396103,2.36396103 L7.36396103,11.363961 L6.36396103,11.363961 L6.36396103,2.36396103 Z M8.36396103,2.36396103 L9.36396103,2.36396103 L9.36396103,11.363961 L8.36396103,11.363961 L8.36396103,2.36396103 Z M10.363961,2.36396103 L11.363961,2.36396103 L11.363961,11.363961 L10.363961,11.363961 L10.363961,2.36396103 Z" id="Combined-Shape" transform="translate(6.863961, 6.863961) rotate(45.000000) translate(-6.863961, -6.863961) "></path>
                <path d="M102.363961,102.363961 L103.363961,102.363961 L103.363961,111.363961 L102.363961,111.363961 L102.363961,102.363961 Z M104.363961,102.363961 L105.363961,102.363961 L105.363961,111.363961 L104.363961,111.363961 L104.363961,102.363961 Z M106.363961,102.363961 L107.363961,102.363961 L107.363961,111.363961 L106.363961,111.363961 L106.363961,102.363961 Z M108.363961,102.363961 L109.363961,102.363961 L109.363961,111.363961 L108.363961,111.363961 L108.363961,102.363961 Z M110.363961,102.363961 L111.363961,102.363961 L111.363961,111.363961 L110.363961,111.363961 L110.363961,102.363961 Z" id="Combined-Shape-Copy" transform="translate(106.863961, 106.863961) rotate(45.000000) translate(-106.863961, -106.863961) "></path>
                <path d="M102.363961,2.36396103 L103.363961,2.36396103 L103.363961,11.363961 L102.363961,11.363961 L102.363961,2.36396103 Z M104.363961,2.36396103 L105.363961,2.36396103 L105.363961,11.363961 L104.363961,11.363961 L104.363961,2.36396103 Z M106.363961,2.36396103 L107.363961,2.36396103 L107.363961,11.363961 L106.363961,11.363961 L106.363961,2.36396103 Z M108.363961,2.36396103 L109.363961,2.36396103 L109.363961,11.363961 L108.363961,11.363961 L108.363961,2.36396103 Z M110.363961,2.36396103 L111.363961,2.36396103 L111.363961,11.363961 L110.363961,11.363961 L110.363961,2.36396103 Z" id="Combined-Shape-Copy-2" transform="translate(106.863961, 6.863961) rotate(-45.000000) translate(-106.863961, -6.863961) "></path>
                <path d="M2.36396103,102.363961 L3.36396103,102.363961 L3.36396103,111.363961 L2.36396103,111.363961 L2.36396103,102.363961 Z M4.36396103,102.363961 L5.36396103,102.363961 L5.36396103,111.363961 L4.36396103,111.363961 L4.36396103,102.363961 Z M6.36396103,102.363961 L7.36396103,102.363961 L7.36396103,111.363961 L6.36396103,111.363961 L6.36396103,102.363961 Z M8.36396103,102.363961 L9.36396103,102.363961 L9.36396103,111.363961 L8.36396103,111.363961 L8.36396103,102.363961 Z M10.363961,102.363961 L11.363961,102.363961 L11.363961,111.363961 L10.363961,111.363961 L10.363961,102.363961 Z" id="Combined-Shape-Copy-3" transform="translate(6.863961, 106.863961) rotate(-45.000000) translate(-6.863961, -106.863961) "></path>
            </g>
            <g id="Group-Copy" transform="translate(200.000000, 50.000000)" fill="#4E5AD5">
                <path d="M2.36396103,2.36396103 L3.36396103,2.36396103 L3.36396103,11.363961 L2.36396103,11.363961 L2.36396103,2.36396103 Z M4.36396103,2.36396103 L5.36396103,2.36396103 L5.36396103,11.363961 L4.36396103,11.363961 L4.36396103,2.36396103 Z M6.36396103,2.36396103 L7.36396103,2.36396103 L7.36396103,11.363961 L6.36396103,11.363961 L6.36396103,2.36396103 Z M8.36396103,2.36396103 L9.36396103,2.36396103 L9.36396103,11.363961 L8.36396103,11.363961 L8.36396103,2.36396103 Z M10.363961,2.36396103 L11.363961,2.36396103 L11.363961,11.363961 L10.363961,11.363961 L10.363961,2.36396103 Z" id="Combined-Shape" transform="translate(6.863961, 6.863961) rotate(45.000000) translate(-6.863961, -6.863961) "></path>
                <path d="M2.36396103,102.363961 L3.36396103,102.363961 L3.36396103,111.363961 L2.36396103,111.363961 L2.36396103,102.363961 Z M4.36396103,102.363961 L5.36396103,102.363961 L5.36396103,111.363961 L4.36396103,111.363961 L4.36396103,102.363961 Z M6.36396103,102.363961 L7.36396103,102.363961 L7.36396103,111.363961 L6.36396103,111.363961 L6.36396103,102.363961 Z M8.36396103,102.363961 L9.36396103,102.363961 L9.36396103,111.363961 L8.36396103,111.363961 L8.36396103,102.363961 Z M10.363961,102.363961 L11.363961,102.363961 L11.363961,111.363961 L10.363961,111.363961 L10.363961,102.363961 Z" id="Combined-Shape-Copy-3" transform="translate(6.863961, 106.863961) rotate(-45.000000) translate(-6.863961, -106.863961) "></path>
            </g>
            <g id="Ice" transform="translate(51.000000, 0.000000)" fill="#F3FFFF" fill-opacity="0.5">
                <rect id="Combined-Shape" transform="translate(3.863961, 103.863961) rotate(45.000000) translate(-3.863961, -103.863961) " x="3.36396103" y="99.363961" width="1" height="9"></rect>
                <rect id="Combined-Shape-Copy-2" transform="translate(3.863961, 3.863961) rotate(-45.000000) translate(-3.863961, -3.863961) " x="3.36396103" y="-0.636038969" width="1" height="9"></rect>
                <rect id="Combined-Shape-Copy-5" transform="translate(103.865536, 103.863961) rotate(45.000000) translate(-103.865536, -103.863961) " x="103.365536" y="99.363961" width="1" height="9"></rect>
                <rect id="Combined-Shape-Copy-4" transform="translate(103.865536, 3.863961) rotate(-45.000000) translate(-103.865536, -3.863961) " x="103.365536" y="-0.636038969" width="1" height="9"></rect>
                <rect id="Combined-Shape-Copy-12" transform="translate(3.863961, 203.863961) rotate(-45.000000) translate(-3.863961, -203.863961) " x="3.36396103" y="199.363961" width="1" height="9"></rect>
                <rect id="Combined-Shape-Copy-10" transform="translate(103.865536, 203.863961) rotate(-45.000000) translate(-103.865536, -203.863961) " x="103.365536" y="199.363961" width="1" height="9"></rect>
            </g>
        </g>
    </g>
</svg>